<?xml version="1.0" encoding="UTF-8" standalone="no"?><!DOCTYPE svg PUBLIC "-//W3C//DTD SVG 1.1//EN" "http://www.w3.org/Graphics/SVG/1.1/DTD/svg11.dtd"><svg width="100%" height="100%" viewBox="0 0 122 48" version="1.1" xmlns="http://www.w3.org/2000/svg" xmlns:xlink="http://www.w3.org/1999/xlink" xml:space="preserve" xmlns:serif="http://www.serif.com/" style="fill-rule:evenodd;clip-rule:evenodd;stroke-linejoin:round;stroke-miterlimit:2;"><rect id="Artboard1" x="0" y="0" width="121.229" height="47.081" style="fill:none;"/><g><path d="M8.025,46.417l-5.046,-0c-1.319,-0.001 -2.404,-1.085 -2.406,-2.404l0,-5.045c0.004,-1.317 1.089,-2.399 2.406,-2.4l5.046,-0c1.315,0.004 2.396,1.085 2.4,2.4l0,5.045c-0.004,1.315 -1.085,2.396 -2.4,2.4m-5.046,-8.705c-0.691,0.001 -1.26,0.569 -1.261,1.26l0,5.045c0.001,0.691 0.57,1.259 1.261,1.26l5.046,-0c0.691,-0.001 1.26,-0.569 1.26,-1.26l0,-5.045c-0,-0.691 -0.569,-1.259 -1.26,-1.26l-5.046,-0Zm5.047,-6.222l-5.047,-0c-1.319,-0.001 -2.404,-1.085 -2.406,-2.404l0,-5.046c0.004,-1.317 1.089,-2.399 2.406,-2.4l5.046,-0c1.315,0.004 2.396,1.085 2.4,2.4l0,5.046c-0.004,1.315 -1.085,2.396 -2.4,2.4m-5.046,-8.704c-0.691,-0 -1.26,0.568 -1.261,1.259l0,5.045c0.001,0.691 0.57,1.259 1.261,1.26l5.046,-0c0.691,-0.001 1.259,-0.568 1.26,-1.259l0,-5.047c-0,-0.691 -0.569,-1.259 -1.26,-1.259l-5.046,0.001Z" style="fill:#3c78ff;fill-rule:nonzero;"/><path d="M32.599,18.946c0,-2.945 -0.5,-6.044 -2.4,-7.943c-1.259,-1.11 -2.899,-1.693 -4.576,-1.627c-2.18,-0.161 -4.29,0.842 -5.541,2.635l0,-11.315l-1.975,-0l0,27.588l1.975,-0l0,-2.4c1.251,1.793 3.361,2.796 5.541,2.635c1.676,0.065 3.315,-0.518 4.573,-1.628c1.9,-1.9 2.4,-5 2.4,-7.943m-1.977,-0c0,3.875 -0.7,7.827 -5.268,7.827c-4.568,-0 -5.271,-3.952 -5.271,-7.827c0,-3.875 0.7,-7.827 5.271,-7.827c4.571,-0 5.268,3.952 5.268,7.827" style="fill:#3c78ff;"/><path d="M62.499,9.608l-2.169,-0l-4.766,16.352l-5.346,-16.352l-1.939,-0l-5.347,16.352l-4.766,-16.352l-2.17,-0l5.968,18.677l2.014,-0l5.27,-15.577l5.27,15.577l2.014,-0l5.967,-18.677Z" style="fill:#3c78ff;fill-rule:nonzero;"/><path d="M81.749,25.727l-2.711,-2.6c-0.877,1.19 -2.279,1.884 -3.758,1.86c-1.423,0.038 -2.78,-0.612 -3.643,-1.744c-0.853,-1.085 -1.162,-2.518 -1.162,-4.8c0,-2.282 0.309,-3.681 1.162,-4.765c0.863,-1.132 2.22,-1.782 3.643,-1.744c1.478,-0.024 2.88,0.669 3.758,1.859l2.711,-2.634c-1.621,-1.857 -4.008,-2.872 -6.47,-2.751c-4.419,-0 -8.757,2.674 -8.757,10.035c0,7.361 4.343,10.072 8.761,10.072c2.468,0.106 4.853,-0.923 6.47,-2.79" style="fill:#3c78ff;fill-rule:nonzero;"/><path d="M100.734,18.442c0,-3.293 -0.463,-5.773 -2.326,-7.71c-1.555,-1.556 -3.689,-2.399 -5.888,-2.325c-2.188,-0.075 -4.31,0.769 -5.85,2.325c-1.86,1.938 -2.326,4.418 -2.326,7.71c0,3.333 0.465,5.813 2.326,7.75c1.54,1.556 3.662,2.4 5.85,2.325c2.199,0.074 4.333,-0.769 5.888,-2.325c1.862,-1.937 2.326,-4.417 2.326,-7.75m-3.952,-0c0,2.132 -0.154,4.186 -1.356,5.386c-0.772,0.762 -1.82,1.181 -2.905,1.162c-1.074,0.02 -2.11,-0.4 -2.868,-1.162c-1.2,-1.2 -1.356,-3.254 -1.356,-5.386c0,-2.132 0.155,-4.183 1.356,-5.385c0.762,-0.751 1.799,-1.157 2.868,-1.124c1.08,-0.033 2.129,0.372 2.905,1.124c1.2,1.2 1.356,3.255 1.356,5.385" style="fill:#3c78ff;"/><path d="M120.448,28.284l0,-12.554c0.159,-2.043 -0.56,-4.06 -1.976,-5.541c-1.317,-1.206 -3.058,-1.847 -4.843,-1.783c-1.976,-0.033 -3.877,0.77 -5.232,2.209l0,-1.975l-3.875,-0l0,19.644l3.952,-0l0,-11.969c0,-3.024 1.861,-4.379 4.069,-4.379c2.208,-0 3.954,1.315 3.954,4.379l0,11.969l3.951,-0Z" style="fill:#3c78ff;"/></g></svg>