<svg xmlns="http://www.w3.org/2000/svg" width="125" height="120"><defs><clipPath id="a"><path fill="#3c78ff" d="M0 0h125v120H0z" data-name="Rechteck 3734"/></clipPath></defs><g fill="#3c78ff" clip-path="url(#a)" data-name="Gruppe 2663"><path d="M7.452 45.721H2.406A2.407 2.407 0 0 1 0 43.317v-5.045a2.408 2.408 0 0 1 2.406-2.4h5.046a2.407 2.407 0 0 1 2.4 2.4v5.045a2.407 2.407 0 0 1-2.4 2.4m-5.046-8.705a1.262 1.262 0 0 0-1.261 1.26v5.045a1.262 1.262 0 0 0 1.261 1.26h5.046a1.261 1.261 0 0 0 1.26-1.26v-5.045a1.261 1.261 0 0 0-1.26-1.26Zm5.047-6.222H2.406A2.407 2.407 0 0 1 0 28.386V23.34a2.407 2.407 0 0 1 2.406-2.4h5.046a2.407 2.407 0 0 1 2.4 2.4v5.046a2.407 2.407 0 0 1-2.4 2.4m-5.046-8.704a1.261 1.261 0 0 0-1.261 1.259v5.045a1.262 1.262 0 0 0 1.261 1.26h5.046a1.261 1.261 0 0 0 1.26-1.259V23.34a1.26 1.26 0 0 0-1.26-1.259Z" data-name="Pfad 6779"/><path fill-rule="evenodd" d="M32.026 18.25c0-2.945-.5-6.044-2.4-7.943A6.53 6.53 0 0 0 25.05 8.68a6.2 6.2 0 0 0-5.541 2.635V0h-1.975v27.588h1.975v-2.4a6.2 6.2 0 0 0 5.541 2.635 6.53 6.53 0 0 0 4.573-1.628c1.9-1.9 2.4-5 2.4-7.943m-1.977 0c0 3.875-.7 7.827-5.268 7.827s-5.271-3.952-5.271-7.827.7-7.827 5.271-7.827 5.268 3.952 5.268 7.827" data-name="Pfad 6780"/><path d="M61.926 8.912h-2.169l-4.766 16.352-5.346-16.352h-1.939l-5.347 16.352-4.766-16.352h-2.17l5.968 18.677h2.014l5.27-15.577 5.27 15.577h2.014Z" data-name="Pfad 6781"/><path d="m81.176 25.031-2.711-2.6a4.575 4.575 0 0 1-3.758 1.86 4.432 4.432 0 0 1-3.643-1.744c-.853-1.085-1.162-2.518-1.162-4.8s.309-3.681 1.162-4.765a4.432 4.432 0 0 1 3.643-1.744 4.577 4.577 0 0 1 3.758 1.859l2.711-2.634a8.064 8.064 0 0 0-6.47-2.751c-4.419 0-8.757 2.674-8.757 10.035s4.343 10.072 8.761 10.072a8.1 8.1 0 0 0 6.47-2.79" data-name="Pfad 6782"/><path fill-rule="evenodd" d="M100.161 17.746c0-3.293-.463-5.773-2.326-7.71a7.948 7.948 0 0 0-5.888-2.325 7.854 7.854 0 0 0-5.85 2.325c-1.86 1.938-2.326 4.418-2.326 7.71 0 3.333.465 5.813 2.326 7.75a7.852 7.852 0 0 0 5.85 2.325 7.947 7.947 0 0 0 5.888-2.325c1.862-1.937 2.326-4.417 2.326-7.75m-3.952 0c0 2.132-.154 4.186-1.356 5.386a4.033 4.033 0 0 1-2.905 1.162 3.944 3.944 0 0 1-2.868-1.162c-1.2-1.2-1.356-3.254-1.356-5.386s.155-4.183 1.356-5.385a3.913 3.913 0 0 1 2.868-1.124 4 4 0 0 1 2.905 1.124c1.2 1.2 1.356 3.255 1.356 5.385" data-name="Pfad 6783"/><path fill-rule="evenodd" d="M119.875 27.588V15.034a7.209 7.209 0 0 0-1.976-5.541 6.81 6.81 0 0 0-4.843-1.783 7.024 7.024 0 0 0-5.232 2.209V7.944h-3.875v19.644h3.952V15.619c0-3.024 1.861-4.379 4.069-4.379s3.954 1.315 3.954 4.379v11.969Z" data-name="Pfad 6784"/><path d="m24.178 118.757-.947-.912a2.637 2.637 0 0 1-2.189 1.085 2.578 2.578 0 0 1-2.207-1.085 5.585 5.585 0 0 1 0-5.111 2.583 2.583 0 0 1 2.207-1.085 2.617 2.617 0 0 1 2.189 1.066l.947-.891a3.768 3.768 0 0 0-3.136-1.414c-2.4 0-4.221 1.627-4.221 4.879s1.82 4.879 4.221 4.879a3.771 3.771 0 0 0 3.136-1.412" data-name="Pfad 6785"/><path fill-rule="evenodd" d="M33.146 115.295a5.111 5.111 0 0 0-1.162-3.794 3.976 3.976 0 0 0-5.459 0 6.778 6.778 0 0 0 0 7.591 3.981 3.981 0 0 0 5.459 0 5.115 5.115 0 0 0 1.162-3.8m-1.394 0a4.147 4.147 0 0 1-.755 2.943 2.438 2.438 0 0 1-1.742.7 2.4 2.4 0 0 1-1.723-.7 5.975 5.975 0 0 1 0-5.885 2.4 2.4 0 0 1 1.723-.7 2.439 2.439 0 0 1 1.742.7 4.144 4.144 0 0 1 .755 2.942" data-name="Pfad 6786"/><path fill-rule="evenodd" d="M42.658 120.058v-6.1a3.521 3.521 0 0 0-.989-2.653 3.336 3.336 0 0 0-2.439-.891 3.436 3.436 0 0 0-2.672 1.164v-1.045h-1.4v9.525h1.4v-5.866a2.359 2.359 0 1 1 4.705 0v5.866Z" data-name="Pfad 6787"/><path fill-rule="evenodd" d="M52.569 120.058v-6.1a3.522 3.522 0 0 0-.989-2.653 3.334 3.334 0 0 0-2.438-.891 3.436 3.436 0 0 0-2.672 1.162v-1.045h-1.389v9.527h1.393v-5.866a2.359 2.359 0 1 1 4.7 0v5.866Z" data-name="Pfad 6788"/><path fill-rule="evenodd" d="M62.483 115.664v-.64c0-2.827-1.453-4.608-3.911-4.608-2.421 0-3.911 1.8-3.911 4.879 0 3.369 1.646 4.879 4.162 4.879a4.364 4.364 0 0 0 3.485-1.471l-.948-.833a3.126 3.126 0 0 1-2.5 1.083c-1.82 0-2.807-1.2-2.807-3.29Zm-1.394-1.045h-5.034a4.017 4.017 0 0 1 .29-1.589 2.447 2.447 0 0 1 4.454 0 4.018 4.018 0 0 1 .29 1.589" data-name="Pfad 6789"/><path d="m71.547 118.757-.949-.912a2.637 2.637 0 0 1-2.188 1.085 2.577 2.577 0 0 1-2.207-1.085 5.567 5.567 0 0 1 0-5.111 2.583 2.583 0 0 1 2.21-1.077 2.616 2.616 0 0 1 2.188 1.066l.949-.891a3.772 3.772 0 0 0-3.137-1.414c-2.4 0-4.22 1.627-4.22 4.879s1.819 4.879 4.22 4.879a3.775 3.775 0 0 0 3.137-1.412" data-name="Pfad 6790"/><path d="M77.28 120.058v-1.2h-.735c-.891 0-1.3-.523-1.3-1.394v-5.809h2.034v-1.064h-2.034v-2.981h-1.392v2.981h-1.2v1.064h1.2v5.847a2.335 2.335 0 0 0 2.439 2.555Z" data-name="Pfad 6791"/><path fill-rule="evenodd" d="M86.612 115.664v-.64c0-2.827-1.454-4.608-3.913-4.608-2.42 0-3.91 1.8-3.91 4.879 0 3.369 1.646 4.879 4.164 4.879a4.363 4.363 0 0 0 3.484-1.471l-.947-.833a3.129 3.129 0 0 1-2.5 1.083c-1.821 0-2.808-1.2-2.808-3.29Zm-1.4-1.045h-5.034a4.005 4.005 0 0 1 .292-1.589 2.446 2.446 0 0 1 4.452 0 4.007 4.007 0 0 1 .29 1.589" data-name="Pfad 6792"/><path fill-rule="evenodd" d="M96.063 120.057v-13.784h-1.4v5.359a3.065 3.065 0 0 0-2.691-1.22 3.313 3.313 0 0 0-2.324.834c-.968.968-1.162 2.555-1.162 4.045s.194 3.079 1.162 4.047a3.32 3.32 0 0 0 2.324.833 3.086 3.086 0 0 0 2.711-1.258v1.141Zm-1.4-4.763c0 1.859-.309 3.64-2.381 3.64s-2.4-1.781-2.4-3.64.33-3.64 2.4-3.64 2.381 1.781 2.381 3.64" data-name="Pfad 6793"/><path d="M29.405 88.739h-1.511l-2.167 7.648-2.517-7.648h-1.2l-2.5 7.648-2.187-7.648h-1.505l3.02 9.525h1.3l2.478-7.4 2.5 7.4h1.3Z" data-name="Pfad 6794"/><path fill-rule="evenodd" d="M37.368 84.887h-1.394v1.723h1.394Zm-4.106 0h-1.393v1.723h1.394Zm5.112 13.378V88.74H36.98v5.867a2.253 2.253 0 0 1-2.381 2.535c-1.433 0-2.323-.851-2.323-2.535V88.74h-1.395v6.079a3.557 3.557 0 0 0 .964 2.671 3.382 3.382 0 0 0 2.46.891 3.493 3.493 0 0 0 2.692-1.181v1.064Z" data-name="Pfad 6795"/><path fill-rule="evenodd" d="M47.654 89.51a2.94 2.94 0 0 0-2.285-.891 3.2 3.2 0 0 0-2.671 1.279v-1.162h-1.394v9.525h1.394v-5.845a2.327 2.327 0 0 1 2.285-2.557 1.992 1.992 0 0 1 1.646.7Z" data-name="Pfad 6796"/><path d="M52.925 98.265v-1.2h-.737c-.891 0-1.3-.523-1.3-1.394v-5.809h2.033v-1.066h-2.029v-2.981h-1.395v2.981h-1.2v1.064h1.2v5.847a2.336 2.336 0 0 0 2.44 2.555Z" data-name="Pfad 6797"/><path d="M59.157 98.265v-1.2h-.736c-.891 0-1.3-.523-1.3-1.394v-5.809h2.033v-1.066h-2.033v-2.981h-1.393v2.981h-1.2v1.064h1.2v5.847a2.336 2.336 0 0 0 2.439 2.555Z" data-name="Pfad 6798"/><path fill-rule="evenodd" d="M68.483 93.871v-.64c0-2.827-1.452-4.608-3.912-4.608-2.42 0-3.909 1.8-3.909 4.879 0 3.369 1.646 4.879 4.162 4.879a4.364 4.364 0 0 0 3.486-1.471l-.949-.833a3.125 3.125 0 0 1-2.5 1.083c-1.821 0-2.808-1.2-2.808-3.29Zm-1.394-1.045h-5.034a4 4 0 0 1 .291-1.589 2.446 2.446 0 0 1 4.453 0 4.037 4.037 0 0 1 .29 1.589" data-name="Pfad 6799"/><path fill-rule="evenodd" d="M84.114 98.265v-6.1a3.545 3.545 0 0 0-1.029-2.655 3.47 3.47 0 0 0-2.46-.891 3.645 3.645 0 0 0-3.136 1.588 3.142 3.142 0 0 0-2.924-1.588 3.476 3.476 0 0 0-2.691 1.162V88.74h-1.389v9.525h1.394v-5.866a2.254 2.254 0 0 1 2.382-2.536 2.218 2.218 0 0 1 2.343 2.536v5.866h1.394v-6.021a2.365 2.365 0 1 1 4.723.154v5.866Z" data-name="Pfad 6800"/><path fill-rule="evenodd" d="M94.114 93.502c0-1.49-.194-3.077-1.162-4.045a3.312 3.312 0 0 0-2.323-.834 3.065 3.065 0 0 0-2.691 1.22v-5.359h-1.394v13.785h1.394v-1.141a3.05 3.05 0 0 0 2.691 1.258 3.318 3.318 0 0 0 2.323-.833c.968-.968 1.162-2.555 1.162-4.047m-1.394 0c0 1.859-.311 3.64-2.382 3.64s-2.4-1.781-2.4-3.64.33-3.64 2.4-3.64 2.382 1.781 2.382 3.64" data-name="Pfad 6801"/><path fill-rule="evenodd" d="M103.82 93.871v-.64c0-2.827-1.452-4.608-3.912-4.608-2.42 0-3.911 1.8-3.911 4.879 0 3.369 1.646 4.879 4.164 4.879a4.361 4.361 0 0 0 3.484-1.471l-.949-.833a3.123 3.123 0 0 1-2.5 1.083c-1.819 0-2.806-1.2-2.806-3.29Zm-1.394-1.045h-5.034a4.008 4.008 0 0 1 .29-1.589 2.447 2.447 0 0 1 4.454 0 4.027 4.027 0 0 1 .29 1.589" data-name="Pfad 6802"/><path fill-rule="evenodd" d="M112.552 89.51a2.937 2.937 0 0 0-2.284-.891 3.2 3.2 0 0 0-2.672 1.279v-1.162h-1.394v9.525h1.394v-5.845a2.328 2.328 0 0 1 2.286-2.557 2 2 0 0 1 1.646.7Z" data-name="Pfad 6803"/><path fill-rule="evenodd" d="M120.145 98.556V88.74h-1.378v1.123a3.006 3.006 0 0 0-2.672-1.239 3.312 3.312 0 0 0-2.323.834 7.357 7.357 0 0 0 0 7.937 3.274 3.274 0 0 0 2.3.851 3.071 3.071 0 0 0 2.672-1.239v1.492c0 1.625-.774 2.922-2.614 2.922a2.927 2.927 0 0 1-2.284-.949l-.91.891a4.2 4.2 0 0 0 3.234 1.279 3.79 3.79 0 0 0 3.968-4.085m-1.394-5.131c0 1.781-.29 3.563-2.361 3.563s-2.382-1.782-2.382-3.563.311-3.563 2.382-3.563 2.361 1.782 2.361 3.563" data-name="Pfad 6804"/><path fill-rule="evenodd" d="M124.972 90.617h-1.819v1.821h1.819Zm0 5.828h-1.819v1.819h1.819Z" data-name="Pfad 6805"/><path fill-rule="evenodd" d="M24.913 71.709c0-1.49-.194-3.077-1.162-4.045a3.312 3.312 0 0 0-2.324-.834 3.067 3.067 0 0 0-2.691 1.22v-5.363h-1.392v13.784h1.393V75.33a3.051 3.051 0 0 0 2.691 1.258 3.319 3.319 0 0 0 2.324-.833c.968-.968 1.162-2.555 1.162-4.047m-1.394 0c0 1.859-.309 3.64-2.381 3.64s-2.4-1.781-2.4-3.64.331-3.64 2.4-3.64 2.381 1.782 2.381 3.64" data-name="Pfad 6806"/><path fill-rule="evenodd" d="M34.115 76.471v-6.466c0-2.072-1.258-3.175-3.815-3.175a3.691 3.691 0 0 0-3.368 1.414l.95.872a2.5 2.5 0 0 1 2.4-1.085c1.744 0 2.44.7 2.44 2.091v.911h-2.866c-2.13 0-3.292 1.083-3.292 2.748a2.747 2.747 0 0 0 .716 1.938 3.4 3.4 0 0 0 2.691.87 3.342 3.342 0 0 0 2.75-1.027v.909Zm-1.394-3.367a2.2 2.2 0 0 1-.484 1.644 2.784 2.784 0 0 1-2.13.64c-1.511 0-2.187-.524-2.187-1.627s.7-1.684 2.129-1.684h2.672Z" data-name="Pfad 6807"/><path fill-rule="evenodd" d="M43.703 76.471V62.687h-1.394v5.363a3.064 3.064 0 0 0-2.691-1.22 3.309 3.309 0 0 0-2.323.834c-.969.968-1.162 2.555-1.162 4.045s.193 3.079 1.162 4.047a3.316 3.316 0 0 0 2.323.833 3.084 3.084 0 0 0 2.711-1.258v1.141Zm-1.394-4.763c0 1.859-.31 3.64-2.381 3.64s-2.4-1.781-2.4-3.64.33-3.64 2.4-3.64 2.381 1.782 2.381 3.64" data-name="Pfad 6808"/><path fill-rule="evenodd" d="M53.525 72.078v-.64c0-2.827-1.453-4.608-3.911-4.608-2.42 0-3.911 1.8-3.911 4.879 0 3.369 1.646 4.879 4.163 4.879a4.36 4.36 0 0 0 3.484-1.471l-.947-.833a3.129 3.129 0 0 1-2.5 1.083c-1.821 0-2.808-1.2-2.808-3.29Zm-1.394-1.045h-5.034a4 4 0 0 1 .291-1.589 2.446 2.446 0 0 1 4.453 0 4.017 4.017 0 0 1 .29 1.589" data-name="Pfad 6809"/><path fill-rule="evenodd" d="M63.401 76.471v-6.1a3.525 3.525 0 0 0-.988-2.653 3.341 3.341 0 0 0-2.44-.891 3.439 3.439 0 0 0-2.672 1.162v-1.045h-1.394v9.525h1.394v-5.866a2.241 2.241 0 0 1 2.363-2.536 2.218 2.218 0 0 1 2.342 2.536v5.866Z" data-name="Pfad 6810"/></g></svg>