<svg xmlns="http://www.w3.org/2000/svg" width="639.351" height="193.649" version="1.0"><defs><linearGradient id="a" x1="114.915" x2="168.243" y1="33.108" y2="125.474" gradientUnits="userSpaceOnUse"><stop offset=".005" style="stop-color:#fff"/><stop offset=".013" style="stop-color:#fffefc"/><stop offset=".232" style="stop-color:#fad8b1"/><stop offset=".436" style="stop-color:#f6b872"/><stop offset=".622" style="stop-color:#f2a041"/><stop offset=".783" style="stop-color:#f08e1d"/><stop offset=".915" style="stop-color:#ef8308"/><stop offset="1" style="stop-color:#ee7f00"/></linearGradient></defs><g style="fill:#ff7f00;fill-opacity:1"><g style="fill:#ff7f00;fill-rule:evenodd;stroke:none;fill-opacity:1"><path d="M17.052 0v7.54h-5.278V.522H8.12V7.54H3.654V0H0v11.919h20.706V0h-3.654z" style="fill:#ff7f00;fill-opacity:1" transform="matrix(.95499 0 0 .95499 589.24 117.011)"/></g><g style="fill:#ff7f00;fill-rule:evenodd;stroke:none;fill-opacity:1"><path d="M3.509 4.756c.29-.116.551-.29.725-.522.203-.232.348-.493.435-.783.087-.319.145-.638.145-.986 0-.319-.058-.638-.145-.928a2 2 0 0 0-.435-.812 1.946 1.946 0 0 0-.725-.522C3.19.058 2.842 0 2.407 0c-.435 0-.812.058-1.131.203C.986.319.725.522.551.725a2 2 0 0 0-.435.812c-.087.29-.116.609-.116.928 0 .348.029.667.116.986.087.29.232.551.435.783.174.232.435.406.725.522.319.145.696.203 1.131.203.435 0 .783-.058 1.102-.203z" style="fill:#ff7f00;fill-opacity:1" transform="matrix(.95499 0 0 .95499 604.777 109.053)"/></g><g style="fill:#ff7f00;fill-rule:evenodd;stroke:none;fill-opacity:1"><path d="M12.47 7.888c.174.058.435.116.812.203.377.087.783.174 1.247.29.435.087.899.174 1.334.261.464.087.841.145 1.16.203-.319.03-.696.116-1.16.203-.435.087-.899.174-1.334.261-.464.087-.87.174-1.247.232-.377.087-.667.145-.812.203L0 13.254v4.436l20.706-6.438V6.467L0 0v4.437l12.47 3.451z" style="fill:#ff7f00;fill-opacity:1" transform="matrix(.95499 0 0 .95499 589.24 92.027)"/></g><g style="fill:#ff7f00;fill-rule:evenodd;stroke:none;fill-opacity:1"><path d="M3.509 4.756c.29-.115.551-.29.725-.522.203-.232.348-.493.435-.783.087-.32.145-.638.145-.986a3.27 3.27 0 0 0-.145-.928 1.998 1.998 0 0 0-.435-.811 1.948 1.948 0 0 0-.725-.523C3.19.06 2.842 0 2.407 0c-.435 0-.812.059-1.131.203C.986.32.725.523.551.726a1.998 1.998 0 0 0-.435.811A3.26 3.26 0 0 0 0 2.465c0 .349.029.667.116.986.087.29.232.55.435.783.174.233.435.407.725.522.319.145.696.203 1.131.203.435 0 .783-.058 1.102-.203z" style="fill:#ff7f00;fill-opacity:1" transform="matrix(.95499 0 0 .95499 604.777 86.85)"/></g><g style="fill:#ff7f00;fill-opacity:1"><g style="fill:#ff7f00;fill-opacity:1"><g style="fill:#ff7f00;fill-opacity:1"><g style="fill:#ff7f00;fill-opacity:1;fill-rule:evenodd;stroke:none"><path d="M22.2 65.1h36.45V46.2H22.2V18.9h39.15V0H0v107.1h22.2v-42z" style="fill:#ff7f00;fill-opacity:1" transform="matrix(.95499 0 0 .95499 10 25.504)"/></g><g style="fill:#ff7f00;fill-opacity:1;fill-rule:evenodd;stroke:none"><path d="M63.45 67.95c-1.2-3.15-3-6-5.25-8.4-2.1-2.55-4.8-4.8-7.95-6.75-3-2.1-6.45-4.05-10.05-6-3-1.65-5.7-3-7.8-4.35-2.1-1.2-3.75-2.55-5.1-3.75-1.35-1.2-2.4-2.55-3-3.9-.6-1.35-.9-3-.9-4.8 0-3.3 1.05-6 3-8.1 2.1-1.95 4.95-3 8.85-3 1.65 0 3.45.15 5.25.45 1.65.15 3.45.6 5.25 1.2 1.8.45 3.6 1.2 5.55 1.95 1.95.75 4.05 1.65 6.15 2.7L64.8 7.5c-2.55-1.2-5.1-2.25-7.5-3.15-2.55-.9-4.95-1.8-7.35-2.4-2.4-.6-4.8-1.05-7.35-1.5C40.2.15 37.65 0 35.1 0 29.85 0 25.2.75 21 2.1c-4.2 1.35-7.65 3.3-10.65 5.85-2.85 2.7-5.25 5.85-6.75 9.6-1.65 3.9-2.4 8.1-2.4 12.9 0 4.95.9 9.15 2.55 12.6C5.4 46.5 7.35 49.5 9.9 51.9c2.4 2.55 5.1 4.65 7.8 6.3 2.85 1.65 5.4 3 7.65 4.2 2.7 1.5 5.1 2.7 7.2 4.05 2.25 1.2 4.05 2.55 5.7 3.9 1.5 1.35 2.7 2.85 3.45 4.35.9 1.5 1.35 3.3 1.35 5.25 0 1.65-.3 3.15-.75 4.5-.6 1.5-1.35 2.55-2.4 3.6-1.2 1.05-2.55 1.8-4.35 2.25-1.8.6-3.9.9-6.45.9-2.4 0-4.8-.3-7.35-.75-2.4-.45-4.95-1.05-7.35-1.95-2.55-.75-4.95-1.65-7.35-2.7-2.4-1.05-4.8-2.1-7.05-3.3v21.15c4.05 2.1 8.55 3.75 13.35 4.8 4.8 1.05 9.75 1.65 15 1.65 5.85 0 11.1-.75 15.75-2.25 4.5-1.35 8.4-3.45 11.55-6.15 3.15-2.7 5.55-6 7.2-9.9 1.65-3.75 2.4-8.1 2.4-12.9 0-4.2-.6-7.8-1.8-10.95z" style="fill:#ff7f00;fill-opacity:1" transform="matrix(.95499 0 0 .95499 199.708 24.071)"/></g><g style="fill:#ff7f00;fill-opacity:1;fill-rule:evenodd;stroke:none"><path d="M63.45 67.95c-1.2-3.15-3-6-5.25-8.4-2.1-2.55-4.8-4.8-7.95-6.75-3-2.1-6.45-4.05-10.05-6-3-1.65-5.7-3-7.8-4.35-2.1-1.2-3.75-2.55-5.1-3.75-1.35-1.2-2.4-2.55-3-3.9-.6-1.35-.9-3-.9-4.8 0-3.3 1.05-6 3-8.1 2.1-1.95 4.95-3 8.85-3 1.65 0 3.45.15 5.25.45 1.65.15 3.45.6 5.25 1.2 1.8.45 3.6 1.2 5.55 1.95 1.95.75 4.05 1.65 6.15 2.7L64.8 7.5c-2.55-1.2-5.1-2.25-7.5-3.15-2.55-.9-4.95-1.8-7.35-2.4-2.4-.6-4.8-1.05-7.35-1.5C40.2.15 37.65 0 35.1 0 29.85 0 25.2.75 21 2.1c-4.2 1.35-7.65 3.3-10.65 5.85-2.85 2.7-5.25 5.85-6.75 9.6-1.65 3.9-2.4 8.1-2.4 12.9 0 4.95.9 9.15 2.55 12.6C5.4 46.5 7.35 49.5 9.9 51.9c2.4 2.55 5.1 4.65 7.8 6.3 2.85 1.65 5.4 3 7.65 4.2 2.7 1.5 5.1 2.7 7.2 4.05 2.25 1.2 4.05 2.55 5.7 3.9 1.5 1.35 2.7 2.85 3.45 4.35.9 1.5 1.35 3.3 1.35 5.25 0 1.65-.3 3.15-.75 4.5-.6 1.5-1.35 2.55-2.4 3.6-1.2 1.05-2.55 1.8-4.35 2.25-1.8.6-3.9.9-6.45.9-2.4 0-4.8-.3-7.35-.75-2.4-.45-4.95-1.05-7.35-1.95-2.55-.75-4.95-1.65-7.35-2.7-2.4-1.05-4.8-2.1-7.05-3.3v21.15c4.05 2.1 8.55 3.75 13.35 4.8 4.8 1.05 9.75 1.65 15 1.65 5.85 0 11.1-.75 15.75-2.25 4.5-1.35 8.4-3.45 11.55-6.15 3.15-2.7 5.55-6 7.2-9.9 1.65-3.75 2.4-8.1 2.4-12.9 0-4.2-.6-7.8-1.8-10.95z" style="fill:#ff7f00;fill-opacity:1" transform="matrix(.95499 0 0 .95499 276.107 24.071)"/></g><g style="fill:#ff7f00;fill-opacity:1;fill-rule:evenodd;stroke:none"><path d="M45.45 67.35H65.7V89.7c-1.95.45-4.05.75-6.3 1.05-2.25.3-4.95.45-8.1.45-4.95 0-9.15-.9-12.75-2.7-3.45-1.65-6.45-4.2-8.7-7.35-2.25-3.15-3.9-6.9-4.95-11.25-1.05-4.35-1.5-9.3-1.5-14.55 0-5.55.75-10.5 2.25-15s3.6-8.25 6.45-11.55c2.85-3.15 6.3-5.55 10.2-7.35 4.05-1.65 8.55-2.55 13.5-2.55 4.65 0 9 .6 13.2 1.65 4.2 1.2 7.95 2.55 11.25 4.2l7.5-18.15c-4.5-1.95-9.6-3.6-15-4.8C67.2.6 61.65 0 55.95 0 46.95 0 39 1.35 32.1 3.9c-7.05 2.55-12.9 6.15-17.7 10.95-4.65 4.8-8.25 10.5-10.8 17.25C1.2 39 0 46.5 0 54.9c0 9 1.05 16.95 3.3 23.85C5.55 85.5 8.7 91.35 12.9 96c4.2 4.65 9.45 8.25 15.6 10.5 6.15 2.4 13.35 3.6 21.3 3.6 3.75 0 7.35-.15 10.8-.45 3.45-.3 6.6-.75 9.75-1.2 3.15-.45 6.15-1.2 9-1.95 2.85-.75 5.7-1.5 8.55-2.55v-55.5H45.45v18.9z" style="fill:#ff7f00;fill-opacity:1" transform="matrix(.95499 0 0 .95499 354.463 24.071)"/></g><g style="fill:#ff7f00;fill-opacity:1;fill-rule:evenodd;stroke:none"><path d="m48.75 94.2-13.05-6V18.9l13.05-6V0H0v12.9l13.05 6v69.3L0 94.2v12.9h48.75V94.2z" style="fill:#ff7f00;fill-opacity:1" transform="matrix(.95499 0 0 .95499 455.787 25.504)"/></g><g style="fill:#ff7f00;fill-opacity:1;fill-rule:evenodd;stroke:none"><path d="M63.45 67.95c-1.2-3.15-3-6-5.25-8.4-2.1-2.55-4.8-4.8-7.95-6.75-3-2.1-6.45-4.05-10.05-6-3-1.65-5.7-3-7.8-4.35-2.1-1.2-3.75-2.55-5.1-3.75-1.35-1.2-2.4-2.55-3-3.9-.6-1.35-.9-3-.9-4.8 0-3.3 1.05-6 3-8.1 2.1-1.95 4.95-3 8.85-3 1.65 0 3.45.15 5.25.45 1.65.15 3.45.6 5.25 1.2 1.8.45 3.6 1.2 5.55 1.95 1.95.75 4.05 1.65 6.15 2.7L64.8 7.5c-2.55-1.2-5.1-2.25-7.5-3.15-2.55-.9-4.95-1.8-7.35-2.4-2.4-.6-4.8-1.05-7.35-1.5C40.2.15 37.65 0 35.1 0 29.85 0 25.2.75 21 2.1c-4.2 1.35-7.65 3.3-10.65 5.85-2.85 2.7-5.25 5.85-6.75 9.6-1.65 3.9-2.4 8.1-2.4 12.9 0 4.95.9 9.15 2.55 12.6C5.4 46.5 7.35 49.5 9.9 51.9c2.4 2.55 5.1 4.65 7.8 6.3 2.85 1.65 5.4 3 7.65 4.2 2.7 1.5 5.1 2.7 7.2 4.05 2.25 1.2 4.05 2.55 5.7 3.9 1.5 1.35 2.7 2.85 3.45 4.35.9 1.5 1.35 3.3 1.35 5.25 0 1.65-.3 3.15-.75 4.5-.6 1.5-1.35 2.55-2.4 3.6-1.2 1.05-2.55 1.8-4.35 2.25-1.8.6-3.9.9-6.45.9-2.4 0-4.8-.3-7.35-.75-2.4-.45-4.95-1.05-7.35-1.95-2.55-.75-4.95-1.65-7.35-2.7-2.4-1.05-4.8-2.1-7.05-3.3v21.15c4.05 2.1 8.55 3.75 13.35 4.8 4.8 1.05 9.75 1.65 15 1.65 5.85 0 11.1-.75 15.75-2.25 4.5-1.35 8.4-3.45 11.55-6.15 3.15-2.7 5.55-6 7.2-9.9 1.65-3.75 2.4-8.1 2.4-12.9 0-4.2-.6-7.8-1.8-10.95z" style="fill:#ff7f00;fill-opacity:1" transform="matrix(.95499 0 0 .95499 514.853 24.071)"/></g></g><g style="fill:#ff7f00;stroke:#fe6604;stroke-width:.75;stroke-linecap:butt;stroke-linejoin:miter;stroke-dasharray:none;fill-opacity:1"><path stroke="none" d="M17.052 31.583v7.54h-5.278v-7.018H8.12v7.018H3.654v-7.54H0v11.92h20.706v-11.92h-3.654zm2.726-3.577c.29-.116.551-.29.725-.522.203-.232.348-.493.435-.783.087-.319.145-.638.145-.986 0-.319-.058-.638-.145-.928a2 2 0 0 0-.435-.812 1.946 1.946 0 0 0-.725-.522c-.319-.145-.667-.203-1.102-.203-.435 0-.812.058-1.131.203-.29.116-.551.32-.725.522a2 2 0 0 0-.435.812c-.087.29-.116.61-.116.928 0 .348.029.667.116.986.087.29.232.551.435.783.174.232.435.406.725.522.319.145.696.203 1.131.203.435 0 .783-.058 1.102-.203zM12.47 13.31c.174.058.435.116.812.203.377.087.783.174 1.247.29.435.087.899.174 1.334.261.464.087.841.145 1.16.203-.319.03-.696.116-1.16.203-.435.087-.899.174-1.334.261-.464.087-.87.174-1.247.232-.377.087-.667.145-.812.203L0 18.676v4.436l20.706-6.438V11.89L0 5.422v4.437l12.47 3.451zm7.308-8.554c.29-.115.551-.29.725-.522.203-.232.348-.493.435-.783.087-.32.145-.637.145-.986a3.27 3.27 0 0 0-.145-.928 1.998 1.998 0 0 0-.435-.811 1.948 1.948 0 0 0-.725-.523C19.459.06 19.111 0 18.676 0c-.435 0-.812.059-1.131.203-.29.116-.551.32-.725.523a1.998 1.998 0 0 0-.435.811 3.26 3.26 0 0 0-.116.928c0 .349.029.667.116.986.087.29.232.55.435.783.174.233.435.407.725.522.319.145.696.203 1.131.203.435 0 .783-.058 1.102-.203z" style="fill:#ff7f00;fill-opacity:1;stroke:none" transform="matrix(.95499 0 0 .95499 589.24 86.85)"/></g></g><g style="fill:#ff7f00;fill-opacity:1"><g style="fill:#ff7f00;fill-opacity:1"><path d="m112.063 12.922 12.828 60.608-36.27 29.93 47.154-6.787 30.02 35.492-6.638-46.435 35.97-29.871-47.123 6.638-35.94-49.575zm20.991 45.449 9.12 16.744 5.531-10.166-2.093 11.422 18.15-6.16-16.595 9.33 10.046 5.232-11.092-1.764 6.458 18.718-9.957-16.894-5.472 9.598 1.674-10.944-17.97 5.98 16.535-9.628-10.405-5.74 11.96 2.421-5.89-18.15z" style="fill:#ff7f00;stroke:none;fill-opacity:1" transform="matrix(.95499 0 0 .95499 -2.892 -2.34)"/><path d="m176.65 156.711-14.9 12.28c-7.447-22.162-.217-46.863 21.182-60.578l4.104 19.35c-7.324 6.188-12.406 18.341-10.386 28.948z" style="fill:#ff7f00;fill-opacity:1;stroke:none" transform="matrix(1 0 0 1 -77.467 -78.34)"/><path d="m138.89 44.76-12.151-16.656c22.924-6.432 48.487 2.426 61.646 25.56l-19.8 2.892c-5.933-7.603-18.361-13.125-29.696-11.797zM147.28 115.05l12.198 14.345c-25.19 8.592-50.79-1.226-64.425-23.832l19.933-2.777c6.677 8.66 19.602 14.18 32.295 12.263zM177.164 74.703l15.094-12.571c8.262 25.718-3.148 51.509-24.3 63.49l-2.73-18.81c8.727-7.075 14.052-20.077 11.936-32.109z" style="fill:#ff7f00;fill-opacity:1;stroke:none" transform="matrix(.95499 0 0 .95499 -2.892 -2.34)"/></g><g style="fill:#ff7f00;fill-opacity:1"><path d="M181.496 161.887c548.232 96.559 477.582-50.367 477.582-50.367s56.257 147.589-483.603 42.55c9.671 9.454 6.021 7.817 6.021 7.817z" clip-rule="evenodd" style="fill:#ff7f00;fill-opacity:1;fill-rule:evenodd" transform="matrix(.95499 0 0 .95499 -2.892 -2.34)"/></g></g></g></g></svg>