<?xml version="1.0" encoding="UTF-8" standalone="no"?><!DOCTYPE svg PUBLIC "-//W3C//DTD SVG 1.1//EN" "http://www.w3.org/Graphics/SVG/1.1/DTD/svg11.dtd"><svg width="100%" height="100%" viewBox="0 0 182 133" version="1.1" xmlns="http://www.w3.org/2000/svg" xmlns:xlink="http://www.w3.org/1999/xlink" xml:space="preserve" xmlns:serif="http://www.serif.com/" style="fill-rule:evenodd;clip-rule:evenodd;stroke-linejoin:round;stroke-miterlimit:2;"><rect id="Artboard1" x="0" y="0" width="181.921" height="132.297" style="fill:none;"/><g id="Slices"><g id="sogi-osig"><path id="Fill-1" d="M159.846,59.814c0,0.71 -0.353,1.063 -1.061,1.063l-7.707,0c-0.71,0 -1.061,-0.353 -1.061,-1.063l0,-36.978c0,-0.706 0.351,-1.06 1.061,-1.06l7.707,0c0.708,0 1.061,0.354 1.061,1.06l0,36.978Z" style="fill:#960000;"/><path id="Fill-3" d="M47.823,37.864c0.803,0.334 1.49,0.801 2.069,1.397c0.575,0.594 1.04,1.283 1.395,2.064c0.353,0.783 0.531,1.622 0.531,2.515l0,10.502c0,0.892 -0.178,1.741 -0.531,2.541c-0.355,0.802 -0.82,1.5 -1.395,2.094c-0.579,0.596 -1.266,1.061 -2.069,1.396c-0.801,0.335 -1.647,0.504 -2.541,0.504l-21.931,-0c-0.71,-0 -1.06,-0.353 -1.06,-1.062l0,-6.758c0,-0.298 0.1,-0.551 0.305,-0.755c0.205,-0.203 0.457,-0.306 0.755,-0.306l18.636,-0c0.296,-0 0.549,-0.093 0.753,-0.281c0.205,-0.184 0.306,-0.427 0.306,-0.725l0,-4.636c0,-0.298 -0.101,-0.549 -0.306,-0.754c-0.204,-0.205 -0.457,-0.307 -0.753,-0.307l-13.519,-0c-0.894,-0 -1.741,-0.168 -2.542,-0.503c-0.801,-0.336 -1.501,-0.801 -2.093,-1.397c-0.598,-0.596 -1.061,-1.285 -1.399,-2.068c-0.334,-0.781 -0.501,-1.62 -0.501,-2.512l0,-10.501c0,-0.895 0.167,-1.743 0.501,-2.544c0.338,-0.797 0.801,-1.486 1.399,-2.065c0.592,-0.577 1.292,-1.042 2.093,-1.396c0.801,-0.354 1.648,-0.53 2.542,-0.53l20.704,-0c0.706,-0 1.061,0.353 1.061,1.059l0,6.873c0,0.298 -0.103,0.54 -0.308,0.725c-0.205,0.187 -0.455,0.278 -0.753,0.278l-17.462,-0c-0.3,-0 -0.541,0.103 -0.727,0.308c-0.187,0.205 -0.281,0.455 -0.281,0.753l0,4.527c0,0.298 0.094,0.549 0.281,0.753c0.186,0.205 0.427,0.308 0.727,0.308l13.572,-0c0.894,-0 1.74,0.167 2.541,0.503" style="fill:#960000;"/><path id="Fill-5" d="M88.847,21.777c0.894,-0 1.74,0.176 2.541,0.531c0.799,0.353 1.49,0.818 2.065,1.395c0.577,0.579 1.044,1.268 1.397,2.065c0.355,0.801 0.531,1.649 0.531,2.544l0,26.03c0,0.892 -0.176,1.742 -0.531,2.541c-0.353,0.803 -0.82,1.5 -1.397,2.094c-0.575,0.596 -1.266,1.061 -2.065,1.396c-0.801,0.335 -1.647,0.504 -2.541,0.504l-19.777,-0c-0.892,-0 -1.739,-0.169 -2.539,-0.504c-0.801,-0.335 -1.5,-0.8 -2.096,-1.396c-0.596,-0.594 -1.059,-1.291 -1.395,-2.094c-0.336,-0.799 -0.503,-1.649 -0.503,-2.541l0,-26.03c0,-0.895 0.167,-1.743 0.503,-2.544c0.336,-0.797 0.799,-1.486 1.395,-2.065c0.596,-0.577 1.295,-1.042 2.096,-1.395c0.8,-0.355 1.647,-0.531 2.539,-0.531l19.777,-0Zm-16.48,29.604l13.126,-0l0,-20.109l-13.126,-0l0,20.109Z" style="fill:#960000;"/><path id="Fill-7" d="M138.991,39.846c0.205,0.205 0.307,0.456 0.307,0.753l0,13.742c0,0.892 -0.176,1.742 -0.531,2.541c-0.353,0.803 -0.818,1.5 -1.397,2.095c-0.575,0.596 -1.266,1.061 -2.065,1.395c-0.801,0.336 -1.647,0.505 -2.543,0.505l-19.773,0c-0.894,0 -1.741,-0.169 -2.541,-0.505c-0.802,-0.334 -1.5,-0.799 -2.094,-1.395c-0.598,-0.595 -1.061,-1.292 -1.397,-2.095c-0.336,-0.799 -0.503,-1.649 -0.503,-2.541l0,-26.029c0,-0.896 0.167,-1.744 0.503,-2.545c0.336,-0.797 0.799,-1.486 1.397,-2.065c0.594,-0.577 1.292,-1.042 2.094,-1.395c0.8,-0.355 1.647,-0.531 2.541,-0.531l23.069,0c0.298,0 0.547,0.102 0.754,0.307c0.207,0.203 0.307,0.456 0.307,0.753l0,7.374c0,0.3 -0.1,0.549 -0.307,0.754c-0.207,0.205 -0.456,0.307 -0.754,0.307l-18.713,0c-0.298,0 -0.547,0.095 -0.752,0.279c-0.207,0.188 -0.307,0.429 -0.307,0.727l0,18.097c0,0.3 0.1,0.541 0.307,0.727c0.205,0.186 0.454,0.279 0.752,0.279l11.059,0c0.3,0 0.541,-0.093 0.729,-0.279c0.186,-0.186 0.279,-0.427 0.279,-0.727l0,-9.775c0,-0.297 0.102,-0.548 0.307,-0.753c0.204,-0.205 0.456,-0.308 0.754,-0.308l7.764,0c0.297,0 0.547,0.103 0.754,0.308" style="fill:#960000;"/><path id="Fill-9" d="M48.243,70.652c0.894,0 1.74,0.176 2.541,0.531c0.803,0.353 1.491,0.82 2.067,1.395c0.577,0.579 1.044,1.268 1.398,2.067c0.352,0.801 0.529,1.648 0.529,2.542l0,26.03c0,0.894 -0.177,1.741 -0.529,2.542c-0.354,0.801 -0.821,1.499 -1.398,2.093c-0.576,0.596 -1.264,1.061 -2.067,1.397c-0.801,0.336 -1.647,0.503 -2.541,0.503l-19.775,0c-0.89,0 -1.74,-0.167 -2.541,-0.503c-0.801,-0.336 -1.497,-0.801 -2.094,-1.397c-0.596,-0.594 -1.061,-1.292 -1.397,-2.093c-0.333,-0.801 -0.503,-1.648 -0.503,-2.542l0,-26.03c0,-0.894 0.17,-1.741 0.503,-2.542c0.336,-0.799 0.801,-1.488 1.397,-2.067c0.597,-0.575 1.293,-1.042 2.094,-1.395c0.801,-0.355 1.651,-0.531 2.541,-0.531l19.775,0Zm-16.476,29.604l13.126,0l0,-20.109l-13.126,0l0,20.109Z" style="fill:#960000;"/><path id="Fill-11" d="M91.388,86.739c0.799,0.334 1.487,0.801 2.065,1.395c0.579,0.598 1.043,1.285 1.396,2.067c0.356,0.784 0.532,1.621 0.532,2.514l0,10.502c0,0.894 -0.176,1.741 -0.532,2.542c-0.353,0.801 -0.817,1.499 -1.396,2.093c-0.578,0.596 -1.266,1.061 -2.065,1.397c-0.801,0.336 -1.65,0.503 -2.542,0.503l-21.932,0c-0.708,0 -1.061,-0.353 -1.061,-1.061l0,-6.759c0,-0.296 0.102,-0.55 0.308,-0.754c0.204,-0.204 0.453,-0.305 0.753,-0.305l18.635,0c0.299,0 0.549,-0.093 0.754,-0.281c0.207,-0.186 0.307,-0.429 0.307,-0.727l0,-4.636c0,-0.297 -0.1,-0.549 -0.307,-0.754c-0.205,-0.203 -0.455,-0.306 -0.754,-0.306l-13.517,0c-0.893,0 -1.742,-0.168 -2.539,-0.504c-0.805,-0.335 -1.502,-0.801 -2.097,-1.397c-0.597,-0.596 -1.061,-1.283 -1.395,-2.067c-0.338,-0.782 -0.505,-1.619 -0.505,-2.513l0,-10.501c0,-0.893 0.167,-1.741 0.505,-2.542c0.334,-0.799 0.798,-1.488 1.395,-2.067c0.595,-0.575 1.292,-1.042 2.097,-1.395c0.797,-0.355 1.646,-0.531 2.539,-0.531l20.701,0c0.707,0 1.063,0.353 1.063,1.059l0,6.872c0,0.299 -0.103,0.541 -0.306,0.727c-0.207,0.187 -0.459,0.279 -0.757,0.279l-17.461,0c-0.3,0 -0.539,0.101 -0.727,0.308c-0.186,0.205 -0.279,0.455 -0.279,0.753l0,4.525c0,0.298 0.093,0.549 0.279,0.754c0.188,0.206 0.427,0.307 0.727,0.307l13.574,0c0.892,0 1.741,0.169 2.542,0.503" style="fill:#960000;"/><path id="Fill-13" d="M115.928,108.692c-0,0.708 -0.355,1.061 -1.061,1.061l-7.707,-0c-0.709,-0 -1.061,-0.353 -1.061,-1.061l-0,-36.98c-0,-0.706 0.352,-1.059 1.061,-1.059l7.707,-0c0.706,-0 1.061,0.353 1.061,1.059l-0,36.98Z" style="fill:#960000;"/><path id="Fill-15" d="M159.54,88.722c0.203,0.205 0.307,0.456 0.307,0.754l-0,13.741c-0,0.894 -0.176,1.742 -0.531,2.543c-0.353,0.801 -0.82,1.498 -1.397,2.093c-0.575,0.596 -1.266,1.061 -2.067,1.397c-0.799,0.336 -1.645,0.503 -2.539,0.503l-19.775,0c-0.894,0 -1.742,-0.167 -2.543,-0.503c-0.801,-0.336 -1.498,-0.801 -2.094,-1.397c-0.596,-0.595 -1.06,-1.292 -1.397,-2.093c-0.334,-0.801 -0.5,-1.649 -0.5,-2.543l-0,-26.029c-0,-0.894 0.166,-1.742 0.5,-2.543c0.337,-0.799 0.801,-1.488 1.397,-2.067c0.596,-0.575 1.293,-1.042 2.094,-1.395c0.801,-0.355 1.649,-0.531 2.543,-0.531l23.07,0c0.296,0 0.548,0.104 0.753,0.307c0.205,0.205 0.308,0.456 0.308,0.753l-0,7.374c-0,0.298 -0.103,0.551 -0.308,0.754c-0.205,0.207 -0.457,0.307 -0.753,0.307l-18.714,0c-0.298,0 -0.548,0.093 -0.751,0.281c-0.208,0.184 -0.31,0.427 -0.31,0.725l-0,18.099c-0,0.298 0.102,0.539 0.31,0.725c0.203,0.186 0.453,0.279 0.751,0.279l11.061,0c0.298,0 0.539,-0.093 0.727,-0.279c0.186,-0.186 0.281,-0.427 0.281,-0.725l-0,-9.776c-0,-0.298 0.099,-0.549 0.304,-0.754c0.205,-0.205 0.457,-0.307 0.755,-0.307l7.763,0c0.298,0 0.55,0.102 0.755,0.307" style="fill:#960000;"/><path id="Fill-17" d="M29.493,0.613c0.71,0 1.061,0.353 1.061,1.058l0,7.374c0,0.71 -0.353,1.061 -1.061,1.061l-18.769,0.003l0.002,19.353c0,0.708 -0.355,1.061 -1.063,1.061l-7.712,0c-0.71,0 -1.061,-0.353 -1.061,-1.061l0,-22.314c0,-0.894 0.169,-1.741 0.503,-2.542c0.336,-0.799 0.801,-1.488 1.397,-2.067c0.596,-0.577 1.294,-1.042 2.096,-1.395c0.8,-0.355 1.649,-0.531 2.539,-0.531l22.068,0Z" style="fill:#960000;"/><path id="Fill-20" d="M7.426,131.391c-0.89,0 -1.74,-0.176 -2.539,-0.531c-0.803,-0.354 -1.5,-0.818 -2.096,-1.397c-0.596,-0.577 -1.061,-1.267 -1.397,-2.067c-0.334,-0.801 -0.503,-1.646 -0.503,-2.54l-0,-22.314c-0,-0.708 0.351,-1.061 1.061,-1.061l7.712,0c0.708,0 1.062,0.351 1.062,1.061l-0.001,19.351l18.769,0.005c0.708,0 1.061,0.351 1.061,1.061l-0,7.371c-0,0.708 -0.352,1.061 -1.061,1.061l-22.068,0Z" style="fill:#960000;"/><path id="Fill-22" d="M174.355,0.613c0.89,0 1.74,0.176 2.541,0.531c0.801,0.353 1.5,0.818 2.094,1.395c0.596,0.579 1.063,1.268 1.397,2.067c0.334,0.801 0.503,1.648 0.503,2.542l0,22.314c0,0.708 -0.351,1.061 -1.061,1.061l-7.712,0c-0.706,0 -1.061,-0.353 -1.061,-1.061l0,-19.353l-18.767,-0.003c-0.708,0 -1.061,-0.351 -1.061,-1.061l0,-7.374c0,-0.705 0.351,-1.058 1.061,-1.058l22.066,0Z" style="fill:#960000;"/><path id="Fill-25" d="M152.289,131.391c-0.71,0 -1.061,-0.353 -1.061,-1.061l0,-7.371c0,-0.71 0.353,-1.061 1.061,-1.061l18.767,-0.005l0,-19.351c0,-0.71 0.355,-1.061 1.061,-1.061l7.712,0c0.71,0 1.061,0.353 1.061,1.061l0,22.314c0,0.894 -0.169,1.739 -0.503,2.54c-0.334,0.8 -0.801,1.49 -1.397,2.067c-0.594,0.579 -1.293,1.043 -2.094,1.397c-0.801,0.355 -1.651,0.531 -2.541,0.531l-22.066,0Z" style="fill:#960000;"/></g></g></svg>