<svg xmlns="http://www.w3.org/2000/svg" width="1024" height="157" viewBox="-1.473 -1.473 339.945 52.037"><path d="M32.17 43.927c0 1.611-1.45 2.917-3.242 2.917H3.238C1.451 46.844 0 45.538 0 43.927V30.003c0-1.61 1.45-2.914 3.238-2.914h25.69c1.791 0 3.242 1.303 3.242 2.914zm35.899 0c0 1.611-1.451 2.917-3.244 2.917H39.14c-1.79 0-3.24-1.306-3.24-2.917V30.003c0-1.61 1.45-2.914 3.24-2.914h25.684c1.793 0 3.244 1.303 3.244 2.914zm35.906 0c0 1.611-1.455 2.917-3.244 2.917H75.044c-1.789 0-3.245-1.306-3.245-2.917V30.003c0-1.61 1.456-2.914 3.245-2.914h25.687c1.79 0 3.244 1.303 3.244 2.914zm35.9 0c0 1.611-1.452 2.917-3.245 2.917h-25.684c-1.79 0-3.244-1.306-3.244-2.917V30.003c0-1.61 1.454-2.914 3.244-2.914h25.684c1.793 0 3.245 1.303 3.245 2.914zm35.878.006c0 1.611-1.447 2.917-3.238 2.917h-25.689c-1.789 0-3.239-1.306-3.239-2.917V30.01c0-1.61 1.45-2.914 3.239-2.914h25.689c1.79 0 3.238 1.303 3.238 2.914z" style="fill:#57a1d3"/><path d="M334.282 37.38h.877v1.34h-.877zm0 2.41h.877v6.984h-.877zm-1.416 4.67c-.136 1.484-1.04 2.474-2.475 2.474-1.638 0-2.606-1.027-2.606-3.659 0-2.422.968-3.645 2.68-3.645 1.463 0 2.308.805 2.4 2.238h-.878c-.102-1.091-.588-1.583-1.522-1.583-.953 0-1.743.525-1.743 3.006 0 2.625.836 2.984 1.654 2.984.894 0 1.462-.592 1.61-1.816zm-7.43-7.08h.879v1.34h-.88zm0 2.41h.879v6.984h-.88zm-2.714-2.41h.879v9.394h-.88zm-6.717 0h.88v3.461h.03c.188-.74.85-1.21 1.814-1.21 1.712 0 2.49 1.235 2.49 3.644 0 2.42-.778 3.659-2.49 3.659-.922 0-1.672-.517-1.906-1.319h-.027v1.159h-.79zm2.58 8.895c.873 0 1.696-.408 1.696-3 0-2.578-.823-2.99-1.696-2.99-.898 0-1.7.412-1.7 2.99 0 2.592.802 3 1.7 3zm-9.206-8.895h.876v3.461h.03c.19-.74.849-1.21 1.817-1.21 1.71 0 2.487 1.235 2.487 3.644 0 2.42-.778 3.659-2.487 3.659-.925 0-1.672-.517-1.906-1.319h-.027v1.159h-.79V37.38Zm2.573 8.895c.879 0 1.699-.408 1.699-3 0-2.578-.82-2.99-1.7-2.99-.891 0-1.696.412-1.696 2.99 0 2.592.805 3 1.697 3zm-9.118-6.485h.88v4.918c0 1.128.42 1.567 1.346 1.567.992 0 1.696-.712 1.696-1.789V39.79h.876v6.984h-.787v-.975h-.03c-.437.778-1.202 1.135-1.992 1.135-1.187 0-1.989-.554-1.989-1.87V39.79zm-6.596 0h.79v.996h.028c.276-.645.925-1.156 1.918-1.156 1.728 0 2.471 1.236 2.471 3.66 0 2.405-.774 3.644-2.484 3.644-.968 0-1.629-.474-1.816-1.211h-.028v3.369h-.879V39.79zm2.603.495c-.497 0-.937.24-1.229.621-.378.482-.495 1.171-.495 2.385 0 2.576.802 2.984 1.694 2.984.88 0 1.7-.408 1.7-2.984 0-2.542-.82-3.006-1.67-3.006zm-8.812-2.905h.877v1.34h-.877zm0 2.41h.877v6.984h-.877zm-3.34.658h-1.07v-.658h1.07v-1.936h.878v1.936h1.377v.658h-1.377v5.01c0 .553.262.738.833.738.178 0 .35-.028.544-.08v.658c-.101.052-.322.08-.618.08-1.183 0-1.638-.29-1.638-1.224v-5.182zm-4.533-.658h.879v1.088h.03c.336-.778 1.052-1.248 1.962-1.248.098 0 .203.012.304.04v.79a2.568 2.568 0 0 0-.424-.04c-.962 0-1.872.634-1.872 1.983v4.37h-.88V39.79zm-3.97-.16c1.709 0 2.677 1.223 2.677 3.645 0 2.432-.968 3.659-2.677 3.659-1.715 0-2.68-1.227-2.68-3.659 0-2.422.965-3.645 2.68-3.645zm0 6.645c.98 0 1.736-.765 1.736-3 0-2.221-.756-2.99-1.736-2.99-.984 0-1.746.769-1.746 2.99 0 2.235.762 3 1.746 3zm-8.929-6.485h.792v.996h.028c.277-.645.922-1.156 1.915-1.156 1.728 0 2.475 1.236 2.475 3.66 0 2.405-.778 3.644-2.49 3.644-.966 0-1.623-.474-1.813-1.211h-.031v3.369h-.876zm2.603.495c-.495 0-.935.24-1.229.621-.382.482-.498 1.171-.498 2.385 0 2.576.805 2.984 1.7 2.984.879 0 1.696-.408 1.696-2.984 0-2.542-.817-3.006-1.669-3.006zm-7.051 3.015c-1.097-.378-1.494-.959-1.494-1.657 0-1.435.996-2.013 2.312-2.013 1.462 0 2.136.67 2.136 1.946v.197h-.876v-.197c0-.907-.467-1.29-1.276-1.29-1.023 0-1.417.49-1.417 1.185 0 .489.175.87 1.054 1.175l1.273.433c1.054.353 1.448 1.011 1.448 1.773 0 1.2-.76 2.082-2.398 2.082-1.598 0-2.388-.594-2.388-2.17v-.225h.876v.181c0 1.03.498 1.555 1.494 1.555.937 0 1.536-.476 1.536-1.25 0-.621-.276-1.014-1.05-1.292zm-7.696-1.432c0-1.433.76-2.238 2.398-2.238 1.61 0 2.194.75 2.194 1.857v4.128c0 .396.147.58.452.58h.251v.579c-.163.052-.292.08-.412.08-.686 0-1.125-.145-1.125-.87v-.234h-.028c-.352.919-1.142 1.184-2.006 1.184-1.362 0-1.976-.766-1.976-1.977 0-.92.47-1.657 1.564-1.93l1.657-.424c.613-.157.747-.29.747-1.104 0-.894-.556-1.214-1.347-1.214-1.04 0-1.493.568-1.493 1.583h-.876zm3.716.962h-.03c-.086.237-.588.378-.935.46l-.733.167c-.876.209-1.332.618-1.332 1.451 0 .815.467 1.367 1.226 1.367 1.07 0 1.804-.725 1.804-1.975zm-7.47-3.04h.875v1.088h.031c.337-.778 1.05-1.248 1.96-1.248.102 0 .204.012.307.04v.79a2.64 2.64 0 0 0-.426-.04c-.962 0-1.872.634-1.872 1.983v4.37h-.876zm-3.506 5.84c0 .934.453 1.224 1.638 1.224.292 0 .513-.028.615-.08v-.658c-.19.052-.366.08-.541.08-.572 0-.835-.185-.835-.738v-5.01h1.376v-.658h-1.376v-1.936h-.877v1.936h-1.067v.658h1.067zm-6.615-6.91h.879v-1.34h-.879zm0 8.054h.879V39.79h-.879zm-1.58-2.315c-.133 1.485-1.036 2.475-2.5 2.475-1.644 0-2.608-1.027-2.608-3.659 0-2.422.964-3.645 2.677-3.645 1.727 0 2.502 1.067 2.502 3.397v.286h-4.242v.328c0 2.014.79 2.634 1.654 2.634.922 0 1.492-.592 1.641-1.816zm-.864-1.804c-.03-1.734-.57-2.37-1.653-2.37-1.084 0-1.627.636-1.654 2.37zm-6.395 2.96h-.027c-.235.802-.983 1.319-1.905 1.319-1.712 0-2.486-1.24-2.486-3.659 0-2.41.774-3.645 2.486-3.645.964 0 1.625.47 1.817 1.211h.026v-3.46h.88v9.393h-.79v-1.159Zm-1.784.66c.891 0 1.695-.408 1.695-3 0-2.578-.804-2.99-1.695-2.99-.877 0-1.7.412-1.7 2.99 0 2.592.823 3 1.7 3zm-7.418-1.816c-.134 1.485-1.041 2.475-2.506 2.475-1.637 0-2.602-1.027-2.602-3.659 0-2.422.965-3.645 2.677-3.645 1.728 0 2.501 1.067 2.501 3.397v.286h-4.247v.328c0 2.014.792 2.634 1.658 2.634.92 0 1.49-.592 1.64-1.816zm-.866-1.804c-.03-1.734-.573-2.37-1.653-2.37-1.084 0-1.624.636-1.658 2.37zm-10.494-2.865h.793v.974h.028c.44-.78 1.199-1.134 1.992-1.134 1.183 0 1.988.55 1.988 1.869v5.275h-.876V41.72c0-.956-.439-1.435-1.333-1.435-1.026 0-1.713.713-1.713 1.792v4.697h-.879zm-4.037-.16c1.712 0 2.679 1.223 2.679 3.645 0 2.432-.967 3.659-2.68 3.659-1.71 0-2.678-1.227-2.678-3.659 0-2.422.968-3.645 2.679-3.645zm0 6.645c.979 0 1.741-.765 1.741-3 0-2.221-.762-2.99-1.741-2.99-.98 0-1.745.769-1.745 2.99 0 2.235.764 3 1.745 3zm-4.978-8.895h.882v1.34h-.882zm0 2.41h.882v6.984h-.882zm-6.628 6.984h.88v-4.697c0-1.079.686-1.792 1.71-1.792.894 0 1.333.48 1.333 1.435v5.054h.879v-5.275c0-1.319-.805-1.869-1.992-1.869-.79 0-1.552.354-1.988 1.134h-.031v-.974h-.79v6.984zm-7.567-9.394h.94v6.75c0 1.408.672 2.09 2.047 2.09s2.048-.682 2.048-2.09v-6.75h.94v6.762c0 1.974-1.07 2.792-2.988 2.792-1.917 0-2.987-.818-2.987-2.792zm142.484-10.7c-1.094-.384-1.49-.958-1.49-1.656 0-1.433.992-2.013 2.311-2.013 1.466 0 2.137.672 2.137 1.945v.2h-.877v-.2c0-.907-.467-1.288-1.273-1.288-1.026 0-1.42.486-1.42 1.183 0 .49.176.87 1.052 1.172l1.272.433c1.058.357 1.454 1.014 1.454 1.78 0 1.196-.765 2.074-2.4 2.074-1.596 0-2.389-.59-2.389-2.17v-.221h.88v.185c0 1.023.498 1.549 1.494 1.549.934 0 1.536-.474 1.536-1.245 0-.624-.277-1.018-1.054-1.291zm-2.514 1.16c-.132 1.484-1.039 2.47-2.475 2.47-1.638 0-2.603-1.023-2.603-3.657 0-2.42.965-3.642 2.677-3.642 1.463 0 2.315.798 2.4 2.237h-.878c-.101-1.094-.584-1.58-1.522-1.58-.95 0-1.742.526-1.742 3 0 2.631.836 2.985 1.653 2.985.895 0 1.466-.594 1.611-1.814zm-7.3-7.08h.873v1.34h-.874zm0 2.41h.873v6.983h-.874zm-2.693-2.41h.876v9.393h-.876zm-6.646 0h.88v3.458h.027c.191-.735.849-1.207 1.814-1.207 1.715 0 2.49 1.235 2.49 3.642 0 2.422-.775 3.657-2.49 3.657-.919 0-1.666-.51-1.9-1.315h-.03v1.158h-.79zm2.577 8.893c.875 0 1.7-.406 1.7-3 0-2.58-.825-2.985-1.7-2.985-.895 0-1.697.406-1.697 2.985 0 2.594.802 3 1.697 3zm-9.036-6.482h.873v4.917c0 1.131.43 1.565 1.349 1.565.996 0 1.7-.71 1.7-1.786V23.17h.88v6.982h-.794v-.974h-.028c-.442.778-1.201 1.131-1.989 1.131-1.189 0-1.991-.553-1.991-1.862v-5.277zm-6.536 0h.79v.998h.027c.28-.645.925-1.158 1.918-1.158 1.728 0 2.474 1.235 2.474 3.657 0 2.407-.77 3.642-2.486 3.642-.965 0-1.626-.473-1.817-1.208h-.028v3.37h-.878zm2.606.497c-.5 0-.937.234-1.229.621-.381.482-.499 1.168-.499 2.38 0 2.578.81 2.984 1.697 2.984.88 0 1.697-.406 1.697-2.985 0-2.542-.817-3-1.666-3zm-9.26 3.449c.773.273 1.05.667 1.05 1.291 0 .771-.599 1.245-1.537 1.245-.993 0-1.493-.526-1.493-1.55v-.184h-.883v.221c0 1.58.793 2.17 2.392 2.17 1.635 0 2.4-.878 2.4-2.074 0-.766-.397-1.423-1.448-1.78l-1.275-.433c-.879-.301-1.054-.683-1.054-1.172 0-.697.396-1.183 1.42-1.183.805 0 1.273.381 1.273 1.288v.2h.875v-.2c0-1.273-.67-1.945-2.133-1.945-1.319 0-2.315.58-2.315 2.013 0 .698.397 1.272 1.495 1.656zm-5.601-3.292h-1.07v-.654h1.07v-1.94h.879v1.94h1.376v.654h-1.376v5.013c0 .553.264.738.836.738.174 0 .35-.028.54-.08v.657c-.104.056-.325.08-.614.08-1.187 0-1.641-.29-1.641-1.223zm-4.467-.654h.876v1.09h.031c.338-.778 1.054-1.25 1.961-1.25.105 0 .206.015.314.04v.786a2.37 2.37 0 0 0-.43-.04c-.966 0-1.876.63-1.876 1.989v4.367h-.876v-6.982zm-3.965-.16c1.712 0 2.677 1.222 2.677 3.642 0 2.437-.965 3.657-2.677 3.657-1.712 0-2.677-1.22-2.677-3.657 0-2.42.965-3.642 2.677-3.642zm0 6.642c.983 0 1.74-.763 1.74-3 0-2.226-.757-2.985-1.74-2.985-.98 0-1.74.76-1.74 2.985 0 2.237.76 3 1.74 3zm-8.852-6.482h.787v.998h.03c.277-.645.922-1.158 1.918-1.158 1.728 0 2.475 1.235 2.475 3.657 0 2.407-.778 3.642-2.49 3.642-.965 0-1.626-.473-1.814-1.208h-.03v3.37h-.876zm2.603.497c-.498 0-.935.234-1.23.621-.38.482-.498 1.168-.498 2.38 0 2.578.806 2.984 1.7 2.984.876 0 1.697-.406 1.697-2.985 0-2.542-.82-3-1.669-3zm-6.98 3.012c-1.097-.384-1.494-.958-1.494-1.656 0-1.433.995-2.013 2.315-2.013 1.463 0 2.132.672 2.132 1.945v.2h-.875v-.2c0-.907-.468-1.288-1.273-1.288-1.024 0-1.423.486-1.423 1.183 0 .49.178.87 1.054 1.172l1.276.433c1.054.357 1.45 1.014 1.45 1.78 0 1.196-.762 2.074-2.403 2.074-1.596 0-2.385-.59-2.385-2.17v-.221h.879v.185c0 1.023.498 1.549 1.494 1.549.937 0 1.537-.474 1.537-1.245 0-.624-.277-1.018-1.055-1.291zm-7.727-3.51h.79v.975h.03c.437-.781 1.2-1.134 1.992-1.134 1.183 0 1.988.553 1.988 1.868v5.274h-.879v-5.056c0-.952-.44-1.429-1.328-1.429-1.026 0-1.715.71-1.715 1.79v4.695h-.878v-6.982zm-6.394 2.078c0-1.439.76-2.237 2.398-2.237 1.61 0 2.195.75 2.195 1.853v4.131c0 .396.15.581.458.581h.247v.577c-.16.056-.294.08-.41.08-.687 0-1.127-.144-1.127-.87v-.236h-.029c-.352.922-1.14 1.183-2.004 1.183-1.365 0-1.978-.762-1.978-1.973 0-.922.469-1.657 1.566-1.933l1.654-.418c.618-.16.746-.29.746-1.107 0-.894-.554-1.21-1.345-1.21-1.04 0-1.494.564-1.494 1.579h-.877zm3.716.96h-.03c-.086.236-.582.383-.935.46l-.731.169c-.88.212-1.334.62-1.334 1.448 0 .817.47 1.368 1.231 1.368 1.068 0 1.8-.72 1.8-1.97zm-7.32-3.037h.877v1.09h.029c.339-.778 1.053-1.25 1.963-1.25.101 0 .204.015.304.04v.786a2.264 2.264 0 0 0-.421-.04c-.97 0-1.875.63-1.875 1.989v4.367h-.877v-6.982zm-3.508.654h-1.067v-.654h1.067v-1.94h.876v1.94h1.377v.654h-1.377v5.013c0 .553.266.738.836.738.175 0 .353-.028.54-.08v.657c-.1.056-.322.08-.615.08-1.185 0-1.637-.29-1.637-1.223zm-8.3 2.855c-1.094-.384-1.489-.958-1.489-1.656 0-1.433.991-2.013 2.309-2.013 1.464 0 2.139.672 2.139 1.945v.2h-.876v-.2c0-.907-.472-1.288-1.276-1.288-1.025 0-1.42.486-1.42 1.183 0 .49.177.87 1.053 1.172l1.273.433c1.054.357 1.45 1.014 1.45 1.78 0 1.196-.76 2.074-2.4 2.074-1.594 0-2.385-.59-2.385-2.17v-.221h.877v.185c0 1.023.5 1.549 1.496 1.549.934 0 1.533-.474 1.533-1.245 0-.624-.28-1.018-1.054-1.291zm-2.677 1.16c-.13 1.484-1.039 2.47-2.5 2.47-1.64 0-2.608-1.023-2.608-3.657 0-2.42.968-3.642 2.68-3.642 1.728 0 2.502 1.063 2.502 3.393v.292h-4.245v.329c0 2.01.792 2.628 1.654 2.628.922 0 1.494-.594 1.638-1.814zm-.863-1.802c-.028-1.74-.57-2.37-1.654-2.37-1.082 0-1.623.63-1.654 2.37zm-6.32 2.957h-.03c-.233.805-.981 1.315-1.903 1.315-1.71 0-2.49-1.235-2.49-3.657 0-2.407.78-3.642 2.49-3.642.965 0 1.625.472 1.813 1.207h.03V20.76h.878v9.393h-.788zm-1.789.658c.894 0 1.7-.406 1.7-3 0-2.58-.806-2.985-1.7-2.985-.876 0-1.697.406-1.697 2.985 0 2.594.821 3 1.697 3zm-12.32-6.482h.793v.974h.026c.442-.781 1.202-1.134 1.994-1.134 1.183 0 1.987.553 1.987 1.868v5.274h-.877v-5.056c0-.952-.44-1.429-1.331-1.429-1.026 0-1.714.71-1.714 1.79v4.695h-.877zm-3.966-.16c1.712 0 2.675 1.222 2.675 3.642 0 2.437-.963 3.657-2.675 3.657-1.708 0-2.676-1.22-2.676-3.657 0-2.42.968-3.642 2.676-3.642zm0 6.642c.982 0 1.744-.763 1.744-3 0-2.226-.762-2.985-1.744-2.985-.98 0-1.742.76-1.742 2.985 0 2.237.763 3 1.742 3zm-4.901-8.893h.879v1.34h-.88zm0 2.41h.879v6.983h-.88zm-6.556 0h.79v.975h.028c.441-.781 1.2-1.134 1.99-1.134 1.187 0 1.989.553 1.989 1.868v5.274h-.876v-5.056c0-.952-.44-1.429-1.33-1.429-1.026 0-1.713.71-1.713 1.79v4.695h-.878zm-7.495-2.41h.94v6.747c0 1.411.672 2.094 2.047 2.094s2.048-.683 2.048-2.094V20.76h.94v6.763c0 1.973-1.07 2.787-2.988 2.787-1.917 0-2.987-.814-2.987-2.787zM333.825 6.55h.88v1.088h.03c.338-.774 1.054-1.248 1.96-1.248.102 0 .207.016.305.04v.79a2.236 2.236 0 0 0-.421-.043c-.968 0-1.875.63-1.875 1.99v4.366h-.879zm-6.495-2.413h.876v3.384h.03c.22-.713.985-1.13 1.903-1.13 1.19 0 1.992.552 1.992 1.868v5.274h-.879V8.481c0-.96-.44-1.432-1.334-1.432-1.02 0-1.712.712-1.712 1.788v4.696h-.876V4.137Zm-1.448 7.083c-.135 1.487-1.039 2.474-2.502 2.474-1.641 0-2.606-1.027-2.606-3.661 0-2.42.965-3.643 2.68-3.643 1.728 0 2.499 1.066 2.499 3.394v.288h-4.239v.333c0 2.01.787 2.628 1.654 2.628.92 0 1.488-.59 1.638-1.813zm-.863-1.802c-.031-1.74-.569-2.37-1.651-2.37-1.088 0-1.629.63-1.654 2.37zm-9.965-5.28h.875v5.886h.03l3.017-3.474h1.082l-2.343 2.591 2.767 4.392H319.4l-2.312-3.682-1.159 1.233v2.45h-.876V4.136Zm-4.02 2.412h.88v1.088h.027c.34-.774 1.057-1.248 1.964-1.248.101 0 .203.016.307.04v.79a2.325 2.325 0 0 0-.427-.043c-.965 0-1.872.63-1.872 1.99v4.366h-.879zm-1.476 4.67c-.132 1.487-1.042 2.474-2.505 2.474-1.641 0-2.603-1.027-2.603-3.661 0-2.42.962-3.643 2.677-3.643 1.727 0 2.502 1.066 2.502 3.394v.288h-4.245v.333c0 2.01.79 2.628 1.654 2.628.925 0 1.494-.59 1.641-1.813zm-.864-1.802c-.03-1.74-.571-2.37-1.656-2.37-1.082 0-1.626.63-1.654 2.37zm-11.161-5.28h.996l2.323 8.501h.031l2.33-8.502h.993l-2.751 9.396h-1.171zm-6.474 2.412h.879v1.088h.03c.336-.774 1.055-1.248 1.962-1.248.104 0 .206.016.307.04v.79a2.274 2.274 0 0 0-.424-.043c-.962 0-1.875.63-1.875 1.99v4.366h-.88V6.55Zm-1.45 4.67c-.13 1.487-1.043 2.474-2.506 2.474-1.641 0-2.606-1.027-2.606-3.661 0-2.42.965-3.643 2.676-3.643 1.73 0 2.51 1.066 2.51 3.394v.288h-4.253v.333c0 2.01.794 2.628 1.657 2.628.923 0 1.495-.59 1.642-1.813zm-.868-1.802c-.028-1.74-.568-2.37-1.654-2.37-1.081 0-1.625.63-1.657 2.37zm-10.42-5.28h.876V7.52h.031c.218-.713.98-1.13 1.909-1.13 1.177 0 1.985.552 1.985 1.868v5.274h-.879V8.481c0-.96-.439-1.432-1.33-1.432-1.027 0-1.716.712-1.716 1.788v4.696h-.876V4.137Zm-2.167 7.082c-.145 1.222-.716 1.813-1.61 1.813-.818 0-1.651-.354-1.651-2.984 0-2.472.79-3 1.74-3 .937 0 1.42.485 1.52 1.58h.884c-.09-1.436-.942-2.239-2.404-2.239-1.713 0-2.677 1.224-2.677 3.643 0 2.634.964 3.66 2.603 3.66 1.435 0 2.345-.986 2.478-2.473zm-6.424-5.74h.879V4.138h-.879zm0 8.053h.879V6.55h-.879zm-2.693 0h.88V4.137h-.88zm-3.297-6.325h-1.069V6.55h1.07V4.614h.876V6.55h1.377v.658h-1.377v5.013c0 .55.267.735.833.735.178 0 .353-.028.544-.08v.657c-.101.056-.323.077-.615.077-1.187 0-1.639-.288-1.639-1.22zm-6.784-.658h.79v.971h.029c.44-.777 1.202-1.13 1.987-1.13 1.189 0 1.994.552 1.994 1.868v5.274h-.877V8.481c0-.96-.437-1.432-1.335-1.432-1.02 0-1.712.712-1.712 1.788v4.696h-.876zm-1.448 4.67c-.133 1.487-1.04 2.474-2.502 2.474-1.643 0-2.608-1.027-2.608-3.661 0-2.42.965-3.643 2.682-3.643 1.726 0 2.502 1.066 2.502 3.394v.288h-4.246v.333c0 2.01.791 2.628 1.653 2.628.924 0 1.493-.59 1.638-1.813zm-.866-1.802c-.028-1.74-.57-2.37-1.653-2.37-1.083 0-1.626.63-1.653 2.37zm-7.125 4.115h.879V7.208h1.374V6.55h-1.374v-.83c0-.805.306-1.026.95-1.026.16 0 .295.012.424.036v-.657a3.245 3.245 0 0 0-.557-.037c-1.478 0-1.696.722-1.696 1.684v.83h-1.068v.658h1.068zm-3.585-6.325h-1.066V6.55h1.066v-.83c0-.962.219-1.684 1.697-1.684.264 0 .394.012.557.037v.657a2.246 2.246 0 0 0-.424-.036c-.643 0-.954.22-.954 1.026v.83h1.378v.658h-1.378v6.325h-.876zm-4.288-.818c1.712 0 2.682 1.224 2.682 3.643 0 2.434-.97 3.66-2.682 3.66-1.711 0-2.677-1.226-2.677-3.66 0-2.42.966-3.643 2.677-3.643zm0 6.643c.983 0 1.742-.763 1.742-3 0-2.226-.76-2.984-1.742-2.984-.98 0-1.74.758-1.74 2.984 0 2.237.76 3 1.74 3zm-1.536-8.973h.878V5.4h-.878zm2.198 0h.876V5.4h-.876zm-9.372 8.315h-.031c-.231.805-.98 1.319-1.903 1.319-1.712 0-2.485-1.239-2.485-3.661 0-2.407.773-3.643 2.485-3.643.967 0 1.623.474 1.816 1.211h.029V4.137h.88v9.396h-.791zm-1.788.658c.893 0 1.699-.406 1.699-3 0-2.577-.806-2.984-1.699-2.984-.876 0-1.696.407-1.696 2.984 0 2.594.82 3 1.696 3zm-8.808-6.483h.79v.971h.03c.44-.777 1.201-1.13 1.99-1.13 1.186 0 1.992.552 1.992 1.868v5.274h-.878V8.481c0-.96-.44-1.432-1.333-1.432-1.023 0-1.711.712-1.711 1.788v4.696h-.88V6.55Zm-6.393 2.078c0-1.435.756-2.238 2.398-2.238 1.61 0 2.196.75 2.196 1.857v4.128c0 .397.149.58.453.58h.25v.578a1.246 1.246 0 0 1-.41.077c-.688 0-1.128-.14-1.128-.866v-.234h-.028c-.352.92-1.145 1.184-2.004 1.184-1.362 0-1.977-.766-1.977-1.974 0-.925.468-1.66 1.566-1.936l1.653-.421c.613-.157.749-.29.749-1.104 0-.894-.557-1.21-1.35-1.21-1.037 0-1.492.565-1.492 1.58h-.876zm3.718.959h-.032c-.087.237-.585.381-.938.462l-.73.172c-.879.208-1.33.617-1.33 1.444 0 .818.466 1.368 1.226 1.368 1.07 0 1.804-.722 1.804-1.97V9.586Zm-10.145-5.45h.879v3.464h.03c.19-.737.849-1.21 1.816-1.21 1.71 0 2.485 1.235 2.485 3.642 0 2.422-.775 3.66-2.485 3.66-.924 0-1.671-.513-1.905-1.318h-.027v1.158h-.793V4.137Zm2.576 8.896c.878 0 1.696-.406 1.696-3 0-2.577-.818-2.984-1.696-2.984-.893 0-1.697.407-1.697 2.984 0 2.594.804 3 1.697 3zm-6.59-6.483h.878v1.088h.03c.335-.774 1.054-1.248 1.96-1.248.102 0 .205.016.308.04v.79a2.331 2.331 0 0 0-.424-.043c-.967 0-1.874.63-1.874 1.99v4.366h-.878zm-1.536 4.67c-.129 1.487-1.039 2.474-2.501 2.474-1.64 0-2.605-1.027-2.605-3.661 0-2.42.966-3.643 2.678-3.643 1.726 0 2.504 1.066 2.504 3.394v.288H197.8v.333c0 2.01.79 2.628 1.653 2.628.923 0 1.492-.59 1.636-1.813zm-.863-1.802c-.028-1.74-.57-2.37-1.652-2.37-1.084 0-1.625.63-1.653 2.37zM190 4.138h.996l2.324 8.501h.03l2.33-8.502h.992l-2.751 9.396h-1.17zM145.178 4.168h6.178c3.579 0 4.246 2.634 3.69 5.271-.774 3.65-3.352 5.3-6.684 5.3h-1.886l-1.486 7.023h-3.529zm1.85 7.958h1.568c1.396 0 2.528-.84 2.908-2.637.364-1.724-.113-2.711-1.877-2.711h-1.47zm-3.366-7.958-.617 2.908h-3.822l-3.103 14.686h-3.53l3.104-14.686h-3.824l.614-2.908zm-20.12 0-2.595 12.268c-.372 1.752-.23 3.058 1.41 3.058 1.644 0 2.337-1.306 2.707-3.058l2.593-12.268h3.529l-2.593 12.268c-.95 4.487-3.919 5.667-6.787 5.667-2.867 0-5.382-.959-4.389-5.667l2.594-12.268h3.53zm-21.25 0-.275 13.008h.073l5.348-13.008h3.653l-7.74 17.594H98.82L98.52 4.168h3.772zM91.704 3.82c5.294 0 5.156 3.797 4.023 9.145-1.131 5.345-2.594 9.138-7.889 9.138-5.292 0-5.152-3.793-4.023-9.138 1.133-5.348 2.597-9.145 7.889-9.145zM88.39 19.494c2.084 0 2.807-1.799 3.806-6.529.995-4.709 1.038-6.531-1.043-6.531-2.084 0-2.812 1.822-3.808 6.531-1.001 4.73-1.039 6.529 1.045 6.529zM89.031 0h2.746l-.615 2.908h-2.745zm4.216 0h2.743l-.613 2.908h-2.745ZM75.945 4.168l-.272 13.008h.073l5.347-13.008h3.652l-7.739 17.594h-4.535l-.299-17.594h3.773z" style="fill:#1d1d1b"/><path d="M182.565 4.017h.801v42.935h-.801z" class="st1" style="fill:#1d1d1b"/></svg>