<?xml version="1.0" encoding="UTF-8" standalone="no"?><!DOCTYPE svg PUBLIC "-//W3C//DTD SVG 1.1//EN" "http://www.w3.org/Graphics/SVG/1.1/DTD/svg11.dtd"><svg width="100%" height="100%" viewBox="0 0 540 157" version="1.1" xmlns="http://www.w3.org/2000/svg" xmlns:xlink="http://www.w3.org/1999/xlink" xml:space="preserve" xmlns:serif="http://www.serif.com/" style="fill-rule:evenodd;clip-rule:evenodd;stroke-linejoin:round;stroke-miterlimit:2;"><rect id="Artboard1" x="0" y="0" width="539.326" height="157" style="fill:none;"/><clipPath id="_clip1"><rect id="Artboard11" serif:id="Artboard1" x="0" y="0" width="539.326" height="157"/></clipPath><g clip-path="url(#_clip1)"><path d="M101.341,136.882c0,4.853 -4.368,8.787 -9.766,8.787l-77.384,-0c-5.383,-0 -9.754,-3.934 -9.754,-8.787l0,-41.943c0,-4.849 4.368,-8.777 9.754,-8.777l77.384,-0c5.395,-0 9.766,3.925 9.766,8.777l0,41.943Zm108.137,-0c0,4.853 -4.371,8.787 -9.772,8.787l-77.369,-0c-5.392,-0 -9.76,-3.934 -9.76,-8.787l-0,-41.943c-0,-4.849 4.368,-8.777 9.76,-8.777l77.366,-0c5.401,-0 9.772,3.925 9.772,8.777l0.003,41.943Zm108.158,-0c-0,4.853 -4.383,8.787 -9.772,8.787l-77.376,-0c-5.388,-0 -9.774,-3.934 -9.774,-8.787l-0,-41.943c-0,-4.849 4.386,-8.777 9.774,-8.777l77.376,-0c5.392,-0 9.772,3.925 9.772,8.777l-0,41.943Zm108.14,-0c-0,4.853 -4.374,8.787 -9.775,8.787l-77.367,-0c-5.392,-0 -9.771,-3.934 -9.771,-8.787l-0,-41.943c-0,-4.849 4.379,-8.777 9.771,-8.777l77.367,-0c5.401,-0 9.775,3.925 9.775,8.777l-0,41.943Zm108.073,0.018c0,4.853 -4.358,8.787 -9.753,8.787l-77.382,-0c-5.389,-0 -9.757,-3.934 -9.757,-8.787l0,-41.94c0,-4.849 4.368,-8.777 9.757,-8.777l77.382,-0c5.392,-0 9.753,3.925 9.753,8.777l0,41.94Z" style="fill:#57a1d3;fill-rule:nonzero;"/><path d="M1011.38,117.161l2.641,-0l0,4.036l-2.641,0l-0,-4.036Zm-0,7.259l2.641,0l0,21.038l-2.641,-0l-0,-21.038Zm-4.266,14.067c-0.409,4.471 -3.132,7.453 -7.455,7.453c-4.934,-0 -7.85,-3.094 -7.85,-11.022c0,-7.296 2.916,-10.98 8.073,-10.98c4.407,0 6.952,2.425 7.229,6.742l-2.644,-0c-0.308,-3.287 -1.772,-4.769 -4.585,-4.769c-2.871,0 -5.25,1.582 -5.25,9.055c-0,7.907 2.518,8.989 4.982,8.989c2.693,-0 4.404,-1.784 4.85,-5.471l2.65,0.003Zm-22.381,-21.326l2.648,-0l0,4.036l-2.651,0l0.003,-4.036Zm0,7.259l2.648,0l0,21.038l-2.651,-0l0.003,-21.038Zm-8.175,-7.259l2.648,-0l-0,28.297l-2.651,-0l0.003,-28.297Zm-20.233,-0l2.651,-0l-0,10.425l0.09,0c0.566,-2.229 2.56,-3.645 5.464,-3.645c5.157,0 7.501,3.72 7.501,10.977c-0,7.29 -2.344,11.022 -7.501,11.022c-2.777,-0 -5.036,-1.558 -5.741,-3.973l-0.082,-0l0,3.491l-2.379,-0l-0.003,-28.297Zm7.771,26.794c2.63,-0 5.109,-1.229 5.109,-9.037c0,-7.766 -2.479,-9.007 -5.109,-9.007c-2.705,0 -5.12,1.241 -5.12,9.007c-0,7.808 2.415,9.037 5.12,9.037Zm-27.73,-26.794l2.638,-0l0,10.425l0.091,0c0.572,-2.229 2.557,-3.645 5.473,-3.645c5.151,0 7.491,3.72 7.491,10.977c0,7.29 -2.343,11.022 -7.491,11.022c-2.786,-0 -5.037,-1.558 -5.741,-3.973l-0.082,-0l0,3.491l-2.379,-0l-0,-28.297Zm7.75,26.794c2.648,-0 5.118,-1.229 5.118,-9.037c-0,-7.766 -2.47,-9.007 -5.121,-9.007c-2.684,0 -5.109,1.241 -5.109,9.007c0,7.808 2.425,9.037 5.112,9.037Zm-27.466,-19.535l2.651,0l0,14.815c0,3.397 1.265,4.72 4.055,4.72c2.988,-0 5.108,-2.145 5.108,-5.389l0,-14.146l2.639,0l0,21.038l-2.37,-0l-0,-2.937l-0.091,-0c-1.316,2.343 -3.621,3.419 -6,3.419c-3.576,-0 -5.992,-1.669 -5.992,-5.633l0,-15.887Zm-19.868,0l2.379,0l0,3l0.085,0c0.831,-1.942 2.786,-3.482 5.777,-3.482c5.205,0 7.443,3.723 7.443,11.025c0,7.245 -2.331,10.977 -7.482,10.977c-2.916,-0 -4.907,-1.428 -5.47,-3.648l-0.085,-0l0,10.148l-2.647,0l-0,-28.02Zm7.84,1.491c-1.497,0 -2.822,0.723 -3.702,1.871c-1.138,1.452 -1.491,3.527 -1.491,7.184c0,7.76 2.416,8.989 5.103,8.989c2.651,-0 5.121,-1.229 5.121,-8.989c-0,-7.657 -2.47,-9.055 -5.031,-9.055Zm-26.544,-8.75l2.642,-0l0,4.036l-2.642,0l0,-4.036Zm0,7.259l2.642,0l0,21.038l-2.642,-0l0,-21.038Zm-10.06,1.982l-3.224,0l0,-1.982l3.224,0l-0,-5.831l2.644,-0l0,5.831l4.148,0l0,1.982l-4.148,0l0,15.092c0,1.665 0.79,2.223 2.51,2.223c0.536,-0 1.054,-0.085 1.638,-0.241l0,1.982c-0.304,0.156 -0.97,0.241 -1.861,0.241c-3.564,-0 -4.934,-0.874 -4.934,-3.687l-0,-15.61l0.003,0Zm-13.658,-1.982l2.651,0l-0,3.278l0.09,-0c1.012,-2.344 3.169,-3.76 5.91,-3.76c0.295,0 0.612,0.036 0.916,0.121l-0,2.379c-0.422,-0.075 -0.849,-0.115 -1.277,-0.12c-2.898,-0 -5.639,1.91 -5.639,5.973l-0,13.164l-2.651,-0l0,-21.035Zm-11.956,-0.482c5.148,0 8.064,3.684 8.064,10.98c0,7.326 -2.916,11.022 -8.064,11.022c-5.166,-0 -8.072,-3.696 -8.072,-11.022c-0,-7.296 2.906,-10.98 8.072,-10.98Zm0,20.017c2.952,-0 5.23,-2.305 5.23,-9.037c-0,-6.69 -2.278,-9.007 -5.23,-9.007c-2.964,0 -5.259,2.317 -5.259,9.007c-0,6.732 2.295,9.037 5.259,9.037Zm-26.896,-19.535l2.386,0l-0,3l0.084,0c0.834,-1.942 2.777,-3.482 5.768,-3.482c5.206,0 7.456,3.723 7.456,11.025c-0,7.245 -2.344,10.977 -7.501,10.977c-2.91,-0 -4.889,-1.428 -5.461,-3.648l-0.093,-0l-0,10.148l-2.639,0l-0,-28.02Zm7.841,1.491c-1.491,0 -2.817,0.723 -3.702,1.871c-1.151,1.452 -1.5,3.527 -1.5,7.184c-0,7.76 2.425,8.989 5.121,8.989c2.647,-0 5.108,-1.229 5.108,-8.989c0,-7.657 -2.461,-9.055 -5.027,-9.055Zm-21.24,9.082c-3.304,-1.138 -4.5,-2.888 -4.5,-4.991c0,-4.323 3,-6.064 6.965,-6.064c4.403,0 6.434,2.019 6.434,5.862l-0,0.594l-2.639,-0l-0,-0.594c-0,-2.732 -1.407,-3.886 -3.844,-3.886c-3.081,0 -4.268,1.476 -4.268,3.57c-0,1.473 0.527,2.621 3.175,3.539l3.834,1.305c3.175,1.063 4.362,3.045 4.362,5.34c0,3.615 -2.289,6.272 -7.223,6.272c-4.814,-0 -7.193,-1.789 -7.193,-6.537l-0,-0.678l2.638,0l0,0.546c0,3.102 1.5,4.684 4.501,4.684c2.822,-0 4.626,-1.434 4.626,-3.766c0,-1.87 -0.831,-3.054 -3.162,-3.891l-3.706,-1.305Zm-23.182,-4.313c0,-4.317 2.29,-6.742 7.224,-6.742c4.849,0 6.608,2.26 6.608,5.594l0,12.435c0,1.192 0.443,1.747 1.362,1.747l0.756,-0l0,1.744c-0.491,0.156 -0.88,0.241 -1.241,0.241c-2.066,-0 -3.389,-0.437 -3.389,-2.621l0,-0.705l-0.084,0c-1.06,2.769 -3.44,3.567 -6.043,3.567c-4.102,-0 -5.952,-2.308 -5.952,-5.955c0,-2.772 1.416,-4.992 4.711,-5.814l4.992,-1.277c1.846,-0.473 2.25,-0.874 2.25,-3.326c-0,-2.693 -1.675,-3.657 -4.058,-3.657c-3.133,0 -4.497,1.711 -4.497,4.769l-2.639,-0Zm11.194,2.898l-0.091,-0c-0.259,0.713 -1.771,1.138 -2.816,1.385l-2.208,0.503c-2.639,0.63 -4.012,1.862 -4.012,4.371c-0,2.455 1.406,4.118 3.693,4.118c3.223,-0 5.434,-2.184 5.434,-5.949l-0,-4.428Zm-22.502,-9.158l2.636,0l-0,3.278l0.093,-0c1.015,-2.344 3.163,-3.76 5.904,-3.76c0.308,0 0.615,0.036 0.925,0.121l0,2.379c-0.424,-0.074 -0.853,-0.115 -1.283,-0.12c-2.898,-0 -5.639,1.91 -5.639,5.973l-0,13.164l-2.639,-0l0.003,-21.035Zm-10.561,17.592c0,2.813 1.365,3.687 4.934,3.687c0.88,-0 1.546,-0.085 1.853,-0.241l-0,-1.982c-0.572,0.156 -1.103,0.241 -1.63,0.241c-1.723,-0 -2.515,-0.558 -2.515,-2.223l-0,-15.092l4.145,0l-0,-1.982l-4.145,0l-0,-5.831l-2.642,-0l0,5.831l-3.214,0l0,1.982l3.214,0l0,15.61Zm-19.926,-20.815l2.648,0l-0,-4.036l-2.648,-0l0,4.036Zm0,24.261l2.648,-0l-0,-21.038l-2.648,0l0,21.038Zm-4.759,-6.974c-0.401,4.474 -3.121,7.456 -7.531,7.456c-4.952,-0 -7.856,-3.094 -7.856,-11.022c0,-7.296 2.904,-10.98 8.064,-10.98c5.202,0 7.537,3.214 7.537,10.233l-0,0.861l-12.778,0l-0,0.988c-0,6.067 2.379,7.935 4.982,7.935c2.777,-0 4.494,-1.784 4.943,-5.471l2.639,0Zm-2.603,-5.434c-0.09,-5.223 -1.717,-7.139 -4.979,-7.139c-3.265,0 -4.901,1.916 -4.982,7.139l9.961,0Zm-19.26,8.917l-0.084,-0c-0.708,2.415 -2.961,3.973 -5.739,3.973c-5.157,-0 -7.488,-3.735 -7.488,-11.022c-0,-7.26 2.331,-10.98 7.488,-10.98c2.904,0 4.895,1.416 5.473,3.648l0.079,0l-0,-10.422l2.651,-0l-0,28.294l-2.38,-0l-0,-3.491Zm-5.377,1.988c2.684,-0 5.106,-1.229 5.106,-9.037c-0,-7.766 -2.422,-9.007 -5.106,-9.007c-2.642,0 -5.121,1.241 -5.121,9.007c0,7.808 2.479,9.037 5.121,9.037Zm-22.345,-5.471c-0.403,4.474 -3.136,7.456 -7.549,7.456c-4.931,-0 -7.837,-3.094 -7.837,-11.022c-0,-7.296 2.906,-10.98 8.063,-10.98c5.206,0 7.534,3.214 7.534,10.233l0,0.861l-12.793,0l-0,0.988c-0,6.067 2.386,7.935 4.994,7.935c2.772,-0 4.489,-1.784 4.94,-5.471l2.648,0Zm-2.608,-5.434c-0.091,-5.223 -1.726,-7.139 -4.98,-7.139c-3.265,0 -4.892,1.916 -4.994,7.139l9.974,0Zm-31.611,-8.63l2.389,0l-0,2.934l0.084,0c1.325,-2.349 3.612,-3.416 6,-3.416c3.564,0 5.989,1.657 5.989,5.63l-0,15.89l-2.639,-0l0,-15.224c0,-2.88 -1.322,-4.323 -4.015,-4.323c-3.091,0 -5.16,2.148 -5.16,5.398l-0,14.149l-2.648,-0l-0,-21.038Zm-12.16,-0.482c5.156,0 8.069,3.684 8.069,10.98c0,7.326 -2.913,11.022 -8.072,11.022c-5.151,-0 -8.067,-3.696 -8.067,-11.022c-0,-7.296 2.916,-10.98 8.07,-10.98Zm-0,20.017c2.949,-0 5.244,-2.305 5.244,-9.037c-0,-6.69 -2.295,-9.007 -5.244,-9.007c-2.952,0 -5.257,2.317 -5.257,9.007c0,6.732 2.301,9.037 5.257,9.037Zm-14.995,-26.794l2.656,-0l0,4.036l-2.656,0l-0,-4.036Zm-0,7.259l2.656,0l0,21.038l-2.656,-0l-0,-21.038Zm-19.966,21.038l2.651,-0l0,-14.149c0,-3.25 2.067,-5.398 5.151,-5.398c2.693,0 4.015,1.446 4.015,4.323l0,15.224l2.648,-0l0,-15.89c0,-3.973 -2.425,-5.63 -6,-5.63c-2.38,0 -4.675,1.067 -5.989,3.416l-0.093,0l0,-2.934l-2.38,0l0,21.038l-0.003,-0Zm-22.793,-28.297l2.831,-0l0,20.332c0,4.242 2.024,6.296 6.166,6.296c4.142,0 6.169,-2.054 6.169,-6.296l0,-20.332l2.832,-0l-0,20.369c-0,5.946 -3.223,8.41 -9.001,8.41c-5.774,-0 -8.997,-2.464 -8.997,-8.41l-0,-20.369Zm429.197,-32.231c-3.295,-1.157 -4.488,-2.886 -4.488,-4.989c0,-4.316 2.988,-6.063 6.961,-6.063c4.416,-0 6.438,2.024 6.438,5.859l-0,0.602l-2.642,-0l-0,-0.602c-0,-2.733 -1.407,-3.88 -3.835,-3.88c-3.09,-0 -4.277,1.464 -4.277,3.563c-0,1.476 0.53,2.621 3.169,3.531l3.831,1.304c3.187,1.075 4.38,3.054 4.38,5.362c0,3.602 -2.304,6.247 -7.229,6.247c-4.808,0 -7.197,-1.777 -7.197,-6.536l0,-0.666l2.651,-0l0,0.557c0,3.082 1.5,4.666 4.501,4.666c2.813,0 4.626,-1.428 4.626,-3.75c0,-1.88 -0.834,-3.067 -3.175,-3.889l-3.714,-1.316Zm-7.572,3.494c-0.398,4.47 -3.13,7.44 -7.456,7.44c-4.934,0 -7.841,-3.081 -7.841,-11.016c0,-7.289 2.907,-10.97 8.064,-10.97c4.407,-0 6.973,2.403 7.23,6.738l-2.645,0c-0.304,-3.295 -1.759,-4.759 -4.585,-4.759c-2.862,-0 -5.247,1.584 -5.247,9.037c-0,7.925 2.518,8.991 4.979,8.991c2.696,0 4.416,-1.789 4.853,-5.464l2.648,0.003Zm-21.99,-21.327l2.63,0l-0,4.037l-2.633,-0l0.003,-4.037Zm0,7.26l2.63,-0l-0,21.034l-2.633,0l0.003,-21.034Zm-8.112,-7.26l2.639,0l-0,28.294l-2.639,0l0,-28.294Zm-20.019,0l2.65,0l0,10.416l0.082,0c0.575,-2.214 2.557,-3.635 5.464,-3.635c5.166,-0 7.5,3.72 7.5,10.97c0,7.296 -2.334,11.016 -7.5,11.016c-2.768,0 -5.018,-1.536 -5.723,-3.961l-0.091,0l0,3.488l-2.379,0l-0.003,-28.294Zm7.762,26.788c2.636,0 5.121,-1.223 5.121,-9.037c0,-7.771 -2.485,-8.991 -5.121,-8.991c-2.696,-0 -5.112,1.223 -5.112,8.991c0,7.814 2.416,9.037 5.112,9.037Zm-27.218,-19.525l2.629,-0l0,14.811c0,3.407 1.295,4.714 4.064,4.714c3,0 5.121,-2.139 5.121,-5.38l-0,-14.148l2.65,-0l0,21.031l-2.391,0l-0,-2.934l-0.085,0c-1.331,2.344 -3.617,3.407 -5.991,3.407c-3.582,0 -5.997,-1.666 -5.997,-5.609l-0,-15.895l-0,0.003Zm-19.689,-0l2.38,-0l0,3.006l0.081,-0c0.844,-1.943 2.787,-3.488 5.778,-3.488c5.205,-0 7.452,3.72 7.452,11.016c0,7.25 -2.319,10.97 -7.488,10.97c-2.907,0 -4.898,-1.425 -5.473,-3.639l-0.085,0l0,10.152l-2.645,-0l0,-28.017Zm7.85,1.497c-1.506,-0 -2.822,0.705 -3.702,1.87c-1.147,1.452 -1.503,3.519 -1.503,7.17c0,7.765 2.44,8.988 5.112,8.988c2.651,0 5.112,-1.223 5.112,-8.991c-0,-7.658 -2.461,-9.037 -5.019,-9.037Zm-27.893,10.389c2.328,0.822 3.163,2.009 3.163,3.889c-0,2.322 -1.805,3.75 -4.63,3.75c-2.991,0 -4.497,-1.584 -4.497,-4.669l-0,-0.554l-2.66,-0l-0,0.666c-0,4.759 2.389,6.536 7.205,6.536c4.925,0 7.23,-2.645 7.23,-6.247c-0,-2.308 -1.196,-4.287 -4.362,-5.362l-3.841,-1.304c-2.648,-0.907 -3.175,-2.058 -3.175,-3.531c0,-2.099 1.193,-3.563 4.278,-3.563c2.425,-0 3.834,1.147 3.834,3.88l0,0.602l2.636,-0l-0,-0.602c-0,-3.835 -2.018,-5.859 -6.425,-5.859c-3.973,-0 -6.974,1.747 -6.974,6.063c0,2.103 1.196,3.832 4.504,4.989l3.714,1.316Zm-16.872,-9.916l-3.223,-0l0,-1.97l3.223,-0l0,-5.844l2.648,-0l0,5.844l4.145,-0l-0,1.97l-4.145,-0l0,15.1c0,1.666 0.795,2.223 2.518,2.223c0.524,0 1.055,-0.084 1.627,-0.241l-0,1.979c-0.313,0.169 -0.979,0.241 -1.85,0.241c-3.575,0 -4.943,-0.873 -4.943,-3.684l0,-15.618Zm-13.455,-1.97l2.638,-0l0,3.283l0.094,0c1.018,-2.344 3.175,-3.765 5.907,-3.765c0.316,-0 0.62,0.045 0.946,0.12l-0,2.368c-0.428,-0.08 -0.861,-0.12 -1.296,-0.121c-2.91,0 -5.651,1.898 -5.651,5.992l0,13.154l-2.638,0l-0,-21.031Zm-11.944,-0.482c5.157,-0 8.064,3.681 8.064,10.97c-0,7.341 -2.907,11.016 -8.064,11.016c-5.157,0 -8.064,-3.675 -8.064,-11.016c0,-7.289 2.907,-10.97 8.064,-10.97Zm-0,20.007c2.961,0 5.241,-2.298 5.241,-9.037c0,-6.705 -2.28,-8.991 -5.241,-8.991c-2.952,-0 -5.241,2.289 -5.241,8.991c-0,6.739 2.289,9.037 5.241,9.037Zm-26.664,-19.525l2.37,-0l0,3.006l0.091,-0c0.834,-1.943 2.777,-3.488 5.777,-3.488c5.205,-0 7.455,3.72 7.455,11.016c0,7.25 -2.343,10.97 -7.5,10.97c-2.907,0 -4.898,-1.425 -5.464,-3.639l-0.091,0l0,10.152l-2.638,-0l-0,-28.017Zm7.84,1.497c-1.5,-0 -2.816,0.705 -3.705,1.87c-1.144,1.452 -1.5,3.519 -1.5,7.17c0,7.765 2.428,8.988 5.121,8.988c2.639,0 5.112,-1.223 5.112,-8.991c-0,-7.658 -2.47,-9.037 -5.028,-9.037Zm-21.025,9.073c-3.305,-1.157 -4.5,-2.886 -4.5,-4.989c-0,-4.316 2.997,-6.063 6.973,-6.063c4.407,-0 6.422,2.024 6.422,5.859l0,0.602l-2.636,-0l0,-0.602c0,-2.733 -1.409,-3.88 -3.834,-3.88c-3.085,-0 -4.287,1.464 -4.287,3.563c0,1.476 0.537,2.621 3.175,3.531l3.844,1.304c3.175,1.075 4.368,3.054 4.368,5.362c-0,3.602 -2.296,6.247 -7.239,6.247c-4.807,0 -7.184,-1.777 -7.184,-6.536l-0,-0.666l2.648,-0l-0,0.557c-0,3.082 1.5,4.666 4.5,4.666c2.823,0 4.63,-1.428 4.63,-3.75c-0,-1.88 -0.835,-3.067 -3.178,-3.889l-3.702,-1.316Zm-23.276,-10.573l2.38,-0l-0,2.937l0.09,-0c1.317,-2.353 3.615,-3.416 6.001,-3.416c3.563,-0 5.988,1.665 5.988,5.627l0,15.886l-2.648,0l0,-15.23c0,-2.867 -1.325,-4.304 -4,-4.304c-3.091,-0 -5.166,2.138 -5.166,5.392l-0,14.142l-2.645,0l0,-21.034Zm-19.26,6.259c-0,-4.335 2.289,-6.738 7.223,-6.738c4.85,-0 6.612,2.259 6.612,5.581l0,12.444c0,1.193 0.452,1.75 1.38,1.75l0.744,0l-0,1.738c-0.482,0.169 -0.886,0.241 -1.235,0.241c-2.07,0 -3.395,-0.434 -3.395,-2.62l-0,-0.711l-0.087,-0c-1.061,2.777 -3.434,3.563 -6.037,3.563c-4.112,0 -5.958,-2.295 -5.958,-5.943c-0,-2.777 1.413,-4.991 4.717,-5.823l4.982,-1.259c1.862,-0.482 2.247,-0.873 2.247,-3.334c0,-2.693 -1.668,-3.645 -4.051,-3.645c-3.133,-0 -4.5,1.699 -4.5,4.756l-2.642,0Zm11.193,2.892l-0.09,-0c-0.259,0.711 -1.753,1.154 -2.816,1.386l-2.202,0.509c-2.651,0.638 -4.019,1.867 -4.019,4.361c0,2.461 1.416,4.121 3.708,4.121c3.217,0 5.422,-2.169 5.422,-5.934l-0.003,-4.443Zm-22.049,-9.148l2.641,-0l0,3.283l0.088,0c1.021,-2.344 3.172,-3.765 5.913,-3.765c0.304,-0 0.614,0.045 0.916,0.12l-0,2.368c-0.418,-0.08 -0.843,-0.12 -1.269,-0.121c-2.921,0 -5.648,1.898 -5.648,5.992l0,13.154l-2.641,0l-0,-21.031Zm-10.567,1.97l-3.214,-0l-0,-1.97l3.214,-0l-0,-5.844l2.638,-0l0,5.844l4.148,-0l0,1.97l-4.148,-0l0,15.1c0,1.666 0.802,2.223 2.519,2.223c0.527,0 1.063,-0.084 1.626,-0.241l0,1.979c-0.301,0.169 -0.97,0.241 -1.852,0.241c-3.57,0 -4.931,-0.873 -4.931,-3.684l-0,-15.618Zm-25.002,8.6c-3.295,-1.157 -4.485,-2.886 -4.485,-4.989c-0,-4.316 2.985,-6.063 6.955,-6.063c4.41,-0 6.443,2.024 6.443,5.859l0,0.602l-2.638,-0l-0,-0.602c-0,-2.733 -1.422,-3.88 -3.844,-3.88c-3.088,-0 -4.277,1.464 -4.277,3.563c-0,1.476 0.533,2.621 3.171,3.531l3.835,1.304c3.175,1.075 4.368,3.054 4.368,5.362c-0,3.602 -2.289,6.247 -7.23,6.247c-4.801,0 -7.184,-1.777 -7.184,-6.536l0,-0.666l2.642,-0l-0,0.557c-0,3.082 1.506,4.666 4.506,4.666c2.814,0 4.618,-1.428 4.618,-3.75c0,-1.88 -0.843,-3.067 -3.175,-3.889l-3.705,-1.316Zm-8.064,3.494c-0.391,4.47 -3.129,7.44 -7.53,7.44c-4.94,0 -7.856,-3.081 -7.856,-11.016c-0,-7.289 2.916,-10.97 8.073,-10.97c5.205,-0 7.536,3.202 7.536,10.22l0,0.88l-12.787,-0l0,0.991c0,6.055 2.386,7.916 4.982,7.916c2.778,0 4.501,-1.789 4.934,-5.464l2.648,0.003Zm-2.599,-5.428c-0.085,-5.242 -1.717,-7.139 -4.983,-7.139c-3.259,-0 -4.888,1.897 -4.982,7.139l9.965,-0Zm-19.038,8.907l-0.09,0c-0.702,2.425 -2.955,3.961 -5.732,3.961c-5.151,0 -7.501,-3.72 -7.501,-11.016c0,-7.25 2.35,-10.97 7.501,-10.97c2.906,-0 4.894,1.421 5.461,3.635l0.09,0l0,-10.416l2.645,0l-0,28.294l-2.374,0l0,-3.488Zm-5.389,1.982c2.693,0 5.121,-1.223 5.121,-9.037c0,-7.771 -2.428,-8.991 -5.121,-8.991c-2.638,-0 -5.111,1.223 -5.111,8.991c-0,7.814 2.473,9.037 5.111,9.037Zm-37.111,-19.525l2.389,-0l0,2.934l0.078,-0c1.332,-2.353 3.621,-3.416 6.007,-3.416c3.563,-0 5.985,1.665 5.985,5.627l0,15.886l-2.642,0l0,-15.23c0,-2.867 -1.325,-4.304 -4.009,-4.304c-3.09,-0 -5.163,2.138 -5.163,5.392l0,14.142l-2.642,0l-0.003,-21.031Zm-11.946,-0.482c5.157,-0 8.058,3.681 8.058,10.97c-0,7.341 -2.901,11.016 -8.058,11.016c-5.145,0 -8.061,-3.675 -8.061,-11.016c0,-7.289 2.916,-10.97 8.061,-10.97Zm-0,20.007c2.958,0 5.253,-2.298 5.253,-9.037c0,-6.705 -2.295,-8.991 -5.253,-8.991c-2.952,-0 -5.248,2.289 -5.248,8.991c0,6.739 2.299,9.037 5.248,9.037Zm-14.763,-26.788l2.648,0l-0,4.037l-2.651,-0l0.003,-4.037Zm-0,7.26l2.648,-0l-0,21.034l-2.651,0l0.003,-21.034Zm-19.749,-0l2.38,-0l0,2.937l0.084,-0c1.329,-2.353 3.615,-3.416 5.995,-3.416c3.575,-0 5.991,1.665 5.991,5.627l0,15.886l-2.639,0l0,-15.23c0,-2.867 -1.325,-4.304 -4.006,-4.304c-3.09,-0 -5.16,2.138 -5.16,5.392l0,14.142l-2.645,0l0,-21.034Zm-22.576,-7.26l2.831,0l0,20.324c0,4.25 2.024,6.307 6.166,6.307c4.142,0 6.169,-2.057 6.169,-6.307l0,-20.324l2.832,0l-0,20.372c-0,5.943 -3.223,8.395 -9.001,8.395c-5.774,0 -8.997,-2.452 -8.997,-8.395l-0,-20.372Zm431.348,-42.804l2.651,0l-0,3.277l0.09,0c1.018,-2.331 3.175,-3.759 5.904,-3.759c0.307,0 0.624,0.048 0.919,0.121l-0,2.379c-0.418,-0.083 -0.842,-0.126 -1.268,-0.129c-2.916,-0 -5.648,1.897 -5.648,5.994l-0,13.152l-2.648,-0l0,-21.035Zm-19.565,-7.269l2.639,0l0,10.194l0.091,-0c0.662,-2.148 2.967,-3.404 5.732,-3.404c3.584,0 6,1.663 6,5.627l0,15.887l-2.647,-0l-0,-15.218c-0,-2.892 -1.326,-4.314 -4.019,-4.314c-3.072,0 -5.157,2.145 -5.157,5.386l0,14.146l-2.639,-0l0,-28.304Zm-4.361,21.336c-0.407,4.479 -3.13,7.453 -7.537,7.453c-4.943,-0 -7.85,-3.094 -7.85,-11.028c0,-7.29 2.907,-10.974 8.073,-10.974c5.205,0 7.528,3.211 7.528,10.224l-0,0.867l-12.769,0l-0,1.003c-0,6.055 2.37,7.916 4.982,7.916c2.771,0 4.482,-1.777 4.934,-5.461l2.639,0Zm-2.6,-5.428c-0.093,-5.241 -1.714,-7.139 -4.973,-7.139c-3.277,0 -4.907,1.898 -4.982,7.139l9.955,0Zm-30.017,-15.905l2.636,0l-0,17.731l0.09,-0l9.088,-10.465l3.259,0l-7.057,7.805l8.335,13.23l-3.26,-0l-6.964,-11.092l-3.491,3.715l-0,7.38l-2.639,-0l0,-28.31l0.003,0.006Zm-12.109,7.266l2.651,0l-0,3.277l0.081,0c1.024,-2.331 3.184,-3.759 5.916,-3.759c0.304,0 0.611,0.048 0.925,0.121l-0,2.379c-0.424,-0.083 -0.855,-0.126 -1.286,-0.129c-2.907,-0 -5.639,1.897 -5.639,5.994l-0,13.152l-2.648,-0l-0,-21.035Zm-4.446,14.067c-0.398,4.479 -3.139,7.453 -7.546,7.453c-4.943,-0 -7.841,-3.094 -7.841,-11.028c0,-7.29 2.898,-10.974 8.064,-10.974c5.202,0 7.537,3.211 7.537,10.224l-0,0.867l-12.787,0l-0,1.003c-0,6.055 2.379,7.916 4.982,7.916c2.786,0 4.5,-1.777 4.943,-5.461l2.648,0Zm-2.603,-5.428c-0.09,-5.241 -1.72,-7.139 -4.988,-7.139c-3.259,0 -4.898,1.898 -4.982,7.139l9.97,0Zm-33.62,-15.905l3.001,0l6.997,25.608l0.093,-0l7.019,-25.611l2.991,0l-8.287,28.304l-3.527,-0l-8.287,-28.301Zm-19.504,7.266l2.651,0l-0,3.277l0.09,0c1.012,-2.331 3.178,-3.759 5.91,-3.759c0.314,0 0.621,0.048 0.925,0.121l0,2.379c-0.421,-0.083 -0.848,-0.126 -1.277,-0.129c-2.898,-0 -5.648,1.897 -5.648,5.994l-0,13.152l-2.651,-0l0,-21.035Zm-4.365,14.067c-0.391,4.479 -3.141,7.453 -7.548,7.453c-4.943,-0 -7.85,-3.094 -7.85,-11.028c-0,-7.29 2.907,-10.974 8.06,-10.974c5.212,0 7.561,3.211 7.561,10.224l0,0.867l-12.811,0l0,1.003c0,6.055 2.392,7.916 4.991,7.916c2.781,0 4.504,-1.777 4.947,-5.461l2.65,0Zm-2.614,-5.428c-0.085,-5.241 -1.711,-7.139 -4.983,-7.139c-3.256,0 -4.894,1.898 -4.991,7.139l9.974,0Zm-31.388,-15.905l2.639,0l-0,10.188l0.093,-0c0.657,-2.148 2.952,-3.404 5.751,-3.404c3.545,0 5.979,1.663 5.979,5.627l-0,15.887l-2.648,-0l0,-15.215c0,-2.892 -1.322,-4.314 -4.006,-4.314c-3.094,0 -5.169,2.145 -5.169,5.386l-0,14.146l-2.639,-0l0,-28.304l0,0.003Zm-6.528,21.333c-0.436,3.681 -2.156,5.461 -4.849,5.461c-2.464,0 -4.973,-1.066 -4.973,-8.988c-0,-7.446 2.379,-9.037 5.241,-9.037c2.822,0 4.277,1.461 4.578,4.759l2.663,0c-0.271,-4.325 -2.837,-6.744 -7.241,-6.744c-5.16,0 -8.064,3.687 -8.064,10.974c0,7.934 2.904,11.025 7.841,11.025c4.323,-0 7.064,-2.971 7.464,-7.45l-2.66,0Zm-19.35,-17.29l2.648,-0l-0,-4.043l-2.648,0l-0,4.043Zm-0,24.258l2.648,-0l-0,-21.035l-2.648,0l-0,21.035Zm-8.112,-0l2.651,-0l-0,-28.304l-2.651,0l-0,28.304Zm-9.932,-19.053l-3.22,0l0,-1.982l3.223,0l0,-5.832l2.639,0l0,5.832l4.148,0l0,1.982l-4.148,0l0,15.101c0,1.656 0.804,2.214 2.509,2.214c0.537,-0 1.064,-0.085 1.639,-0.241l0,1.979c-0.304,0.168 -0.973,0.232 -1.853,0.232c-3.575,-0 -4.937,-0.868 -4.937,-3.675l0,-15.61Zm-20.435,-1.982l2.38,0l-0,2.925l0.087,-0c1.326,-2.341 3.621,-3.404 5.986,-3.404c3.581,0 6.006,1.663 6.006,5.627l0,15.887l-2.642,-0l0,-15.218c0,-2.892 -1.316,-4.314 -4.021,-4.314c-3.073,0 -5.157,2.145 -5.157,5.386l0,14.146l-2.639,-0l0,-21.035Zm-4.361,14.067c-0.401,4.479 -3.133,7.453 -7.537,7.453c-4.949,-0 -7.856,-3.094 -7.856,-11.028c-0,-7.29 2.907,-10.974 8.079,-10.974c5.199,0 7.536,3.211 7.536,10.224l0,0.867l-12.79,0l0,1.003c0,6.055 2.383,7.916 4.98,7.916c2.783,0 4.497,-1.777 4.934,-5.461l2.654,0Zm-2.609,-5.428c-0.084,-5.241 -1.717,-7.139 -4.979,-7.139c-3.263,0 -4.898,1.898 -4.98,7.139l9.959,0Zm-21.462,12.396l2.647,-0l0,-19.053l4.139,0l0,-1.982l-4.139,0l0,-2.5c0,-2.425 0.922,-3.091 2.862,-3.091c0.482,0 0.889,0.036 1.277,0.109l0,-1.979c-0.555,-0.086 -1.116,-0.123 -1.678,-0.112c-4.452,0 -5.108,2.175 -5.108,5.073l-0,2.5l-3.217,0l-0,1.982l3.217,0l-0,19.053Zm-10.799,-19.053l-3.211,0l-0,-1.982l3.211,0l-0,-2.5c-0,-2.898 0.659,-5.073 5.111,-5.073c0.796,0 1.187,0.036 1.678,0.112l0,1.979c-0.421,-0.077 -0.849,-0.113 -1.277,-0.109c-1.937,0 -2.874,0.663 -2.874,3.091l0,2.5l4.151,0l0,1.982l-4.151,0l0,19.053l-2.638,-0l-0,-19.053Zm-12.917,-2.464c5.157,0 8.079,3.687 8.079,10.974c0,7.332 -2.922,11.025 -8.079,11.025c-5.154,-0 -8.064,-3.693 -8.064,-11.025c0,-7.29 2.91,-10.974 8.064,-10.974Zm0,20.01c2.961,0 5.248,-2.298 5.248,-9.036c-0,-6.706 -2.29,-8.989 -5.248,-8.989c-2.952,0 -5.241,2.283 -5.241,8.989c-0,6.738 2.289,9.036 5.241,9.036Zm-4.627,-27.028l2.645,-0l0,4.036l-2.645,-0l0,-4.036Zm6.621,-0l2.639,-0l0,4.036l-2.639,-0l0,-4.036Zm-28.231,25.046l-0.093,0c-0.696,2.425 -2.952,3.974 -5.732,3.974c-5.157,-0 -7.486,-3.733 -7.486,-11.028c0,-7.251 2.329,-10.974 7.486,-10.974c2.913,0 4.889,1.428 5.47,3.648l0.087,-0l0,-10.435l2.651,0l0,28.304l-2.383,-0l0,-3.489Zm-5.385,1.982c2.689,0 5.117,-1.223 5.117,-9.036c0,-7.763 -2.428,-8.989 -5.117,-8.989c-2.639,0 -5.109,1.226 -5.109,8.989c-0,7.813 2.47,9.036 5.109,9.036Zm-26.532,-19.528l2.379,0l0,2.925l0.091,-0c1.325,-2.341 3.617,-3.404 5.994,-3.404c3.573,0 6,1.663 6,5.627l0,15.887l-2.644,-0l-0,-15.218c-0,-2.892 -1.326,-4.314 -4.016,-4.314c-3.081,0 -5.154,2.145 -5.154,5.386l0,14.146l-2.65,-0l-0,-21.035Zm-19.258,6.259c0,-4.322 2.278,-6.741 7.224,-6.741c4.849,0 6.615,2.259 6.615,5.594l-0,12.434c-0,1.196 0.448,1.747 1.364,1.747l0.753,0l0,1.742c-0.396,0.146 -0.813,0.224 -1.235,0.232c-2.072,-0 -3.398,-0.422 -3.398,-2.609l0,-0.705l-0.084,0c-1.06,2.771 -3.449,3.567 -6.037,3.567c-4.102,-0 -5.955,-2.308 -5.955,-5.947c0,-2.786 1.41,-5 4.717,-5.831l4.98,-1.269c1.846,-0.472 2.256,-0.873 2.256,-3.325c-0,-2.693 -1.678,-3.645 -4.067,-3.645c-3.123,0 -4.494,1.702 -4.494,4.759l-2.639,0l0,-0.003Zm11.2,2.889l-0.097,0c-0.262,0.714 -1.762,1.148 -2.825,1.392l-2.199,0.518c-2.648,0.627 -4.006,1.859 -4.006,4.35c-0,2.464 1.403,4.12 3.693,4.12c3.223,0 5.434,-2.174 5.434,-5.934l-0,-4.449l-0,0.003Zm-30.559,-16.417l2.647,0l0,10.435l0.091,-0c0.572,-2.22 2.557,-3.645 5.47,-3.645c5.151,0 7.485,3.72 7.485,10.971c0,7.295 -2.334,11.025 -7.485,11.025c-2.783,-0 -5.034,-1.546 -5.738,-3.971l-0.082,0l0,3.489l-2.388,-0l-0,-28.304Zm7.759,26.797c2.645,0 5.109,-1.223 5.109,-9.036c-0,-7.763 -2.464,-8.989 -5.109,-8.989c-2.69,0 -5.112,1.226 -5.112,8.989c0,7.813 2.422,9.036 5.112,9.036Zm-19.851,-19.528l2.645,0l0,3.277l0.09,0c1.01,-2.331 3.175,-3.759 5.905,-3.759c0.307,0 0.617,0.048 0.927,0.121l0,2.379c-0.421,-0.082 -0.848,-0.125 -1.277,-0.129c-2.913,-0 -5.645,1.897 -5.645,5.994l0,13.152l-2.645,-0l0,-21.035Zm-4.626,14.067c-0.389,4.479 -3.13,7.453 -7.534,7.453c-4.94,-0 -7.847,-3.094 -7.847,-11.028c-0,-7.29 2.91,-10.974 8.067,-10.974c5.199,0 7.542,3.211 7.542,10.224l0,0.867l-12.784,0l0,1.003c0,6.055 2.38,7.916 4.98,7.916c2.78,0 4.494,-1.777 4.928,-5.461l2.648,0Zm-2.6,-5.428c-0.084,-5.241 -1.717,-7.139 -4.976,-7.139c-3.266,0 -4.895,1.898 -4.98,7.139l9.956,0Zm-33.451,-15.905l3,0l7.001,25.608l0.09,-0l7.019,-25.611l2.988,0l-8.287,28.304l-3.524,-0l-8.287,-28.301Zm-135.015,0.091l18.609,-0c10.781,-0 12.79,7.934 11.116,15.877c-2.332,10.995 -10.097,15.965 -20.134,15.965l-5.681,0l-4.477,21.155l-10.63,0l11.197,-52.997Zm5.572,23.971l4.724,0c4.205,0 7.615,-2.53 8.759,-7.943c1.097,-5.193 -0.34,-8.166 -5.654,-8.166l-4.428,-0l-3.401,16.109Zm-10.139,-23.971l-1.858,8.759l-11.513,0l-9.347,44.238l-10.633,0l9.35,-44.238l-11.519,0l1.849,-8.759l33.671,-0Zm-60.606,-0l-7.817,36.954c-1.121,5.278 -0.693,9.212 4.247,9.212c4.952,-0 7.04,-3.934 8.154,-9.212l7.811,-36.954l10.63,-0l-7.81,36.954c-2.862,13.516 -11.805,17.071 -20.445,17.071c-8.636,-0 -16.212,-2.889 -13.22,-17.071l7.813,-36.954l10.637,-0Zm-64.011,-0l-0.828,39.183l0.22,0l16.109,-39.183l11.004,-0l-23.315,52.997l-13.648,0l-0.904,-52.997l11.362,-0Zm-31.893,-1.048c15.946,-0 15.531,11.437 12.118,27.547c-3.407,16.1 -7.814,27.526 -23.764,27.526c-15.941,-0 -15.519,-11.426 -12.118,-27.526c3.413,-16.11 7.823,-27.547 23.764,-27.547Zm-9.983,47.214c6.278,-0 8.455,-5.419 11.465,-19.667c2.997,-14.185 3.126,-19.673 -3.142,-19.673c-6.278,-0 -8.471,5.488 -11.471,19.673c-3.015,14.248 -3.13,19.667 3.148,19.667Zm1.931,-58.721l8.271,-0l-1.852,8.759l-8.269,0l1.85,-8.759Zm12.7,-0l8.262,-0l-1.846,8.759l-8.269,0l1.853,-8.759Zm-52.118,12.555l-0.82,39.183l0.22,0l16.107,-39.183l11,-0l-23.311,52.997l-13.661,0l-0.901,-52.997l11.366,-0Z" style="fill:#1d1d1b;fill-rule:nonzero;"/></g></svg>