<?xml version="1.0" encoding="utf-8"?>
<!-- Generator: Adobe Illustrator 21.1.0, SVG Export Plug-In . SVG Version: 6.00 Build 0)  -->
<svg version="1.1" id="Layer_1" xmlns="http://www.w3.org/2000/svg" xmlns:xlink="http://www.w3.org/1999/xlink" x="0px" y="0px"
	 viewBox="0 0 170 41" width="170" height="41" style="enable-background:new 0 0 170 41;" xml:space="preserve">
<style type="text/css">
	.st0{fill:#FF6600;}
</style>
<path class="st0" d="M128.7,0.3l-5.5,24.2c-1.4,6-4.9,8.6-8.5,8.6s-5.9-2.9-5.1-6.6l6-26.2h-9.1l-5.8,25.5l0,0
	c-2,8.7,3.5,15.7,12.1,15.7c8.7,0,16.7-4.3,19.3-15.7l0,0l5.8-25.5C137.9,0.3,128.7,0.3,128.7,0.3z"/>
<polygon class="st0" points="16.6,16.5 35.6,0.3 23.5,0.3 0.1,20 15.9,40.7 27.2,40.7 14.6,24.6 32.9,24.6 34.8,16.6 16.5,16.6 "/>
<polygon class="st0" points="154.2,0.3 142.9,0.3 155.6,16.6 137.2,16.6 135.4,24.6 153.4,24.6 134.5,40.7 146.6,40.7 170,21 "/>
<path class="st0" d="M79.9,14.1C79.7,13,81,8,85.5,8h15.7l1.9-7.8H86C73.8,0.2,71.4,10.8,71,14h8.9V14.1z"/>
<path class="st0" d="M67.6,32.7l-1.9,8h18.1c5.1,0,13.5-2.1,14.7-13.3c0.4-3.3-1.3-10.9-9.4-10.9h-18c0,1,1.1,7.5,9.5,8h5.7l0,0l0,0
	c2.1,0,3.9,1.3,3.4,3.9c-0.4,2.2-1.8,4.2-5.4,4.2L67.6,32.7z"/>
<path class="st0" d="M60.5,20.1c0,0,6.9-1.7,8.2-9.2C69.9,4,66.1,0.3,59.4,0.3H41.5L38.4,14h8.8l1.4-6h9.2c1,0,3.8,0.6,3.1,4.3
	c-0.6,3.1-3.5,4.2-5.7,4.2c-0.6,0-17.2,0-17.2,0l-5.5,24.2h20.4c3.9,0,11.3-2.6,13-10.3C67.6,22.3,60.9,20.2,60.5,20.1L60.5,20.1z
	 M42.9,32.7l1.9-8.2h9.6c2.2,0,3.5,1.7,3,3.9c-0.6,2.5-2.2,4.3-4.9,4.3l0,0H42.9z"/>
</svg>
