<?xml version="1.0" encoding="UTF-8" standalone="no"?>
<!-- Created with Inkscape (http://www.inkscape.org/) -->
<svg
   xmlns:dc="http://purl.org/dc/elements/1.1/"
   xmlns:cc="http://creativecommons.org/ns#"
   xmlns:rdf="http://www.w3.org/1999/02/22-rdf-syntax-ns#"
   xmlns:svg="http://www.w3.org/2000/svg"
   xmlns="http://www.w3.org/2000/svg"
   xmlns:sodipodi="http://sodipodi.sourceforge.net/DTD/sodipodi-0.dtd"
   xmlns:inkscape="http://www.inkscape.org/namespaces/inkscape"
   width="500"
   height="213.77"
   id="svg2"
   sodipodi:version="0.32"
   inkscape:version="0.46"
   version="1.0"
   sodipodi:docname="Logo Chemins de fer du Jura.svg"
   inkscape:output_extension="org.inkscape.output.svg.inkscape">
  <defs
     id="defs4">
    <inkscape:perspective
       sodipodi:type="inkscape:persp3d"
       inkscape:vp_x="0 : 526.18109 : 1"
       inkscape:vp_y="0 : 1000 : 0"
       inkscape:vp_z="744.09448 : 526.18109 : 1"
       inkscape:persp3d-origin="372.04724 : 350.78739 : 1"
       id="perspective10" />
    <clipPath
       id="clipPath3266"
       clipPathUnits="userSpaceOnUse">
      <path
         id="path3268"
         d="M 0,595.32 L 841.92,595.32 L 841.92,0 L 0,0 L 0,595.32 z" />
    </clipPath>
    <clipPath
       id="clipPath3260"
       clipPathUnits="userSpaceOnUse">
      <path
         id="path3262"
         d="M 6.1e-05,595.276 L 841.89006,595.276 L 841.89006,0 L 6.1e-05,0 L 6.1e-05,595.276 z" />
    </clipPath>
    <clipPath
       id="clipPath3248"
       clipPathUnits="userSpaceOnUse">
      <path
         id="path3250"
         d="M 0,595.32 L 841.92,595.32 L 841.92,0 L 0,0 L 0,595.32 z" />
    </clipPath>
    <clipPath
       id="clipPath3242"
       clipPathUnits="userSpaceOnUse">
      <path
         id="path3244"
         d="M 6.1e-05,595.276 L 841.89006,595.276 L 841.89006,0 L 6.1e-05,0 L 6.1e-05,595.276 z" />
    </clipPath>
    <clipPath
       id="clipPath3236"
       clipPathUnits="userSpaceOnUse">
      <path
         id="path3238"
         clip-rule="evenodd"
         d="M 297.036,451.474 L 558.425,451.474 L 558.425,394.829 L 297.036,394.829 L 297.036,451.474 z" />
    </clipPath>
    <clipPath
       id="clipPath3224"
       clipPathUnits="userSpaceOnUse">
      <path
         id="path3226"
         d="M 0,595.32 L 841.92,595.32 L 841.92,0 L 0,0 L 0,595.32 z" />
    </clipPath>
    <clipPath
       id="clipPath3218"
       clipPathUnits="userSpaceOnUse">
      <path
         id="path3220"
         d="M 6.1e-05,595.276 L 841.89006,595.276 L 841.89006,0 L 6.1e-05,0 L 6.1e-05,595.276 z" />
    </clipPath>
    <clipPath
       id="clipPath3212"
       clipPathUnits="userSpaceOnUse">
      <path
         id="path3214"
         clip-rule="evenodd"
         d="M 671.811,394.781 L 710.684,451.474 L 849.611,451.474 L 849.611,394.781 L 671.811,394.781" />
    </clipPath>
    <clipPath
       id="clipPath3190"
       clipPathUnits="userSpaceOnUse">
      <path
         id="path3192"
         d="M 0,595.32 L 841.92,595.32 L 841.92,0 L 0,0 L 0,595.32 z" />
    </clipPath>
    <clipPath
       id="clipPath3184"
       clipPathUnits="userSpaceOnUse">
      <path
         id="path3186"
         d="M 6.1e-05,595.276 L 841.89006,595.276 L 841.89006,0 L 6.1e-05,0 L 6.1e-05,595.276 z" />
    </clipPath>
    <clipPath
       id="clipPath3172"
       clipPathUnits="userSpaceOnUse">
      <path
         id="path3174"
         d="M 450.339,55.338 L 487.435,55.338 L 487.435,64.0683 L 450.339,64.0683 L 450.339,55.338 z" />
    </clipPath>
    <clipPath
       id="clipPath3122"
       clipPathUnits="userSpaceOnUse">
      <path
         id="path3124"
         clip-rule="evenodd"
         d="M 424.477,65.803 L 424.507,65.613 L 424.536,65.305 L 424.576,65.078 L 424.616,64.969 L 424.541,64.989 L 424.439,64.991 L 424.406,64.957 L 424.393,64.904 L 424.391,64.836 L 424.142,64.956 L 423.926,65.049 L 423.732,65.113 L 423.599,65.132 L 423.518,65.126 L 423.466,65.102 C 423.514,64.701 423.621,64.44 423.968,64.209 C 423.829,64.147 423.872,64.063 423.959,63.973 C 423.655,63.97 423.161,63.762 422.986,63.519 L 422.979,63.481 L 423.017,63.433 L 423.064,63.403 L 423.398,63.342 L 423.771,63.277 L 423.95,63.257 L 423.909,63.135 L 423.931,63.083 L 424.002,63.076 L 424.042,63.079 C 423.858,62.889 423.579,62.454 423.509,62.209 L 423.526,62.173 L 423.566,62.15 L 423.8,62.185 L 424.018,62.262 L 424.278,62.381 L 424.577,62.556 C 424.628,62.354 424.651,62.297 424.825,62.442 L 424.804,62.026 L 424.786,61.719 L 424.793,61.638 L 424.828,61.59 L 424.888,61.586 C 425.203,61.646 425.473,62.165 425.59,62.395 L 425.645,62.36 L 425.707,62.34 L 425.717,62.341 L 425.749,62.394 L 425.776,62.52 L 425.784,62.595 L 425.861,62.511 L 425.98,62.348 L 426.113,62.126 L 426.244,61.948 L 426.425,61.802 L 426.472,61.792 L 426.513,61.823 L 426.57,61.976 L 426.617,62.168 L 426.621,62.346 L 426.593,62.569 L 426.516,62.814 L 426.465,62.943 L 426.52,62.959 L 426.534,62.994 L 426.495,63.071 C 426.942,63.108 427.439,62.734 427.622,62.892 C 427.618,63.283 426.992,63.7 426.685,63.826 L 426.703,63.851 L 426.72,63.893 L 426.717,63.926 L 426.67,63.956 L 426.587,63.989 L 426.684,64.03 L 426.866,64.13 L 427.388,64.431 L 427.491,64.496 L 427.552,64.544 L 427.578,64.586 L 427.566,64.65 C 427.313,64.857 426.695,64.857 426.401,64.723 L 426.402,64.808 L 426.376,64.847 L 426.304,64.859 L 426.216,64.832 C 426.289,65.191 426.375,65.596 426.195,65.939 L 426.137,65.997 L 426.073,66.003 L 426.015,65.95 L 425.786,65.581 L 425.581,65.27 L 425.546,65.154 C 425.495,65.276 425.37,65.317 425.31,65.179 L 425.203,65.36 L 425.039,65.605 L 424.901,65.745 L 424.771,65.849 C 424.666,65.897 424.476,66.016 424.477,65.803" />
    </clipPath>
    <clipPath
       id="clipPath3116"
       clipPathUnits="userSpaceOnUse">
      <path
         id="path3118"
         d="M 428.146,66.539 L 422.7173,66.539 L 422.7173,61.37 L 428.146,61.37 L 428.146,66.539 z" />
    </clipPath>
    <clipPath
       id="clipPath3104"
       clipPathUnits="userSpaceOnUse">
      <path
         id="path3106"
         d="M 435.744,68.875 L 421.922,68.875 L 421.922,55.93 L 435.744,55.93 L 435.744,68.875 z" />
    </clipPath>
    <clipPath
       id="clipPath3094"
       clipPathUnits="userSpaceOnUse">
      <path
         id="path3096"
         d="M 0,595.32 L 841.92,595.32 L 841.92,0 L 0,0 L 0,595.32 z" />
    </clipPath>
    <clipPath
       id="clipPath3088"
       clipPathUnits="userSpaceOnUse">
      <path
         id="path3090"
         d="M 6.1e-05,595.276 L 841.89006,595.276 L 841.89006,0 L 6.1e-05,0 L 6.1e-05,595.276 z" />
    </clipPath>
    <clipPath
       id="clipPath3076"
       clipPathUnits="userSpaceOnUse">
      <path
         id="path3078"
         d="M 0,595.32 L 841.92,595.32 L 841.92,0 L 0,0 L 0,595.32 z" />
    </clipPath>
    <clipPath
       id="clipPath3070"
       clipPathUnits="userSpaceOnUse">
      <path
         id="path3072"
         d="M 6.1e-05,595.276 L 841.89006,595.276 L 841.89006,0 L 6.1e-05,0 L 6.1e-05,595.276 z" />
    </clipPath>
    <clipPath
       id="clipPath3064"
       clipPathUnits="userSpaceOnUse">
      <path
         id="path3066"
         clip-rule="evenodd"
         d="M 720.268,-8.5034 L 756.85,49.207 L 850.393,49.207 L 850.393,-8.5034 L 720.268,-8.5034" />
    </clipPath>
    <clipPath
       id="clipPath2986"
       clipPathUnits="userSpaceOnUse">
      <path
         id="path2988"
         d="M 0,595.32 L 841.92,595.32 L 841.92,0 L 0,0 L 0,595.32 z" />
    </clipPath>
    <clipPath
       id="clipPath2980"
       clipPathUnits="userSpaceOnUse">
      <path
         id="path2982"
         d="M 6.1e-05,595.276 L 841.89006,595.276 L 841.89006,0 L 6.1e-05,0 L 6.1e-05,595.276 z" />
    </clipPath>
    <clipPath
       id="clipPath2968"
       clipPathUnits="userSpaceOnUse">
      <path
         id="path2970"
         d="M 0,595.32 L 841.92,595.32 L 841.92,0 L 0,0 L 0,595.32 z" />
    </clipPath>
    <clipPath
       id="clipPath2962"
       clipPathUnits="userSpaceOnUse">
      <path
         id="path2964"
         d="M 6.1e-05,595.276 L 841.89006,595.276 L 841.89006,0 L 6.1e-05,0 L 6.1e-05,595.276 z" />
    </clipPath>
    <clipPath
       id="clipPath2956"
       clipPathUnits="userSpaceOnUse">
      <path
         id="path2958"
         clip-rule="evenodd"
         d="M -8.504,293.682 L 110.551,293.682 L 110.551,217.146 L -8.504,217.146 L -8.504,293.682 z" />
    </clipPath>
    <clipPath
       id="clipPath2944"
       clipPathUnits="userSpaceOnUse">
      <path
         id="path2946"
         d="M 0,595.32 L 841.92,595.32 L 841.92,0 L 0,0 L 0,595.32 z" />
    </clipPath>
    <clipPath
       id="clipPath2938"
       clipPathUnits="userSpaceOnUse">
      <path
         id="path2940"
         d="M 6.1e-05,595.276 L 841.89006,595.276 L 841.89006,0 L 6.1e-05,0 L 6.1e-05,595.276 z" />
    </clipPath>
    <clipPath
       id="clipPath2932"
       clipPathUnits="userSpaceOnUse">
      <path
         id="path2934"
         clip-rule="evenodd"
         d="M -8.504,181.841 L 110.551,181.841 L 110.551,105.305 L -8.504,105.305 L -8.504,181.841 z" />
    </clipPath>
    <clipPath
       id="clipPath2920"
       clipPathUnits="userSpaceOnUse">
      <path
         id="path2922"
         d="M 0,595.32 L 841.92,595.32 L 841.92,0 L 0,0 L 0,595.32 z" />
    </clipPath>
    <clipPath
       id="clipPath2914"
       clipPathUnits="userSpaceOnUse">
      <path
         id="path2916"
         d="M 6.1e-05,595.276 L 841.89006,595.276 L 841.89006,0 L 6.1e-05,0 L 6.1e-05,595.276 z" />
    </clipPath>
    <clipPath
       id="clipPath2908"
       clipPathUnits="userSpaceOnUse">
      <path
         id="path2910"
         clip-rule="evenodd"
         d="M -8.504,405.523 L 110.551,405.523 L 110.551,328.987 L -8.504,328.987 L -8.504,405.523 z" />
    </clipPath>
    <clipPath
       id="clipPath2896"
       clipPathUnits="userSpaceOnUse">
      <path
         id="path2898"
         d="M 0,595.32 L 841.92,595.32 L 841.92,0 L 0,0 L 0,595.32 z" />
    </clipPath>
    <clipPath
       id="clipPath2890"
       clipPathUnits="userSpaceOnUse">
      <path
         id="path2892"
         d="M 6.1e-05,595.276 L 841.89006,595.276 L 841.89006,0 L 6.1e-05,0 L 6.1e-05,595.276 z" />
    </clipPath>
    <clipPath
       id="clipPath2884"
       clipPathUnits="userSpaceOnUse">
      <path
         id="path2886"
         clip-rule="evenodd"
         d="M -8.504,517.364 L 110.551,517.364 L 110.551,440.829 L -8.504,440.829 L -8.504,517.364 z" />
    </clipPath>
    <clipPath
       id="clipPath2872"
       clipPathUnits="userSpaceOnUse">
      <path
         id="path2874"
         d="M 0,595.32 L 841.92,595.32 L 841.92,0 L 0,0 L 0,595.32 z" />
    </clipPath>
    <clipPath
       id="clipPath2866"
       clipPathUnits="userSpaceOnUse">
      <path
         id="path2868"
         d="M 6.1e-05,595.276 L 841.89006,595.276 L 841.89006,0 L 6.1e-05,0 L 6.1e-05,595.276 z" />
    </clipPath>
    <clipPath
       id="clipPath2860"
       clipPathUnits="userSpaceOnUse">
      <path
         id="path2862"
         clip-rule="evenodd"
         d="M 297.036,227.48 L 412.096,227.48 L 412.096,162.283 L 297.036,162.283 L 297.036,227.48 z" />
    </clipPath>
    <clipPath
       id="clipPath2848"
       clipPathUnits="userSpaceOnUse">
      <path
         id="path2850"
         d="M 0,595.32 L 841.92,595.32 L 841.92,0 L 0,0 L 0,595.32 z" />
    </clipPath>
    <clipPath
       id="clipPath2842"
       clipPathUnits="userSpaceOnUse">
      <path
         id="path2844"
         d="M 6.1e-05,595.276 L 841.89006,595.276 L 841.89006,0 L 6.1e-05,0 L 6.1e-05,595.276 z" />
    </clipPath>
    <clipPath
       id="clipPath2836"
       clipPathUnits="userSpaceOnUse">
      <path
         id="path2838"
         clip-rule="evenodd"
         d="M 297.036,147.402 L 412.096,147.402 L 412.096,82.205 L 297.036,82.205 L 297.036,147.402 z" />
    </clipPath>
    <clipPath
       id="clipPath2824"
       clipPathUnits="userSpaceOnUse">
      <path
         id="path2826"
         d="M 0,595.32 L 841.92,595.32 L 841.92,0 L 0,0 L 0,595.32 z" />
    </clipPath>
    <clipPath
       id="clipPath2818"
       clipPathUnits="userSpaceOnUse">
      <path
         id="path2820"
         d="M 6.1e-05,595.276 L 841.89006,595.276 L 841.89006,0 L 6.1e-05,0 L 6.1e-05,595.276 z" />
    </clipPath>
    <clipPath
       id="clipPath2812"
       clipPathUnits="userSpaceOnUse">
      <path
         id="path2814"
         clip-rule="evenodd"
         d="M 297.036,307.559 L 412.096,307.559 L 412.096,242.362 L 297.036,242.362 L 297.036,307.559 z" />
    </clipPath>
    <clipPath
       id="clipPath2706"
       clipPathUnits="userSpaceOnUse">
      <path
         id="path2708"
         d="M 0,595.32 L 841.92,595.32 L 841.92,0 L 0,0 L 0,595.32 z" />
    </clipPath>
    <clipPath
       id="clipPath2700"
       clipPathUnits="userSpaceOnUse">
      <path
         id="path2702"
         d="M 6.1e-05,595.276 L 841.89006,595.276 L 841.89006,0 L 6.1e-05,0 L 6.1e-05,595.276 z" />
    </clipPath>
    <clipPath
       id="clipPath2610"
       clipPathUnits="userSpaceOnUse">
      <path
         id="path2612"
         d="M -11.081,1.8163 L 1.338,1.8163 L 1.338,-18.9527 L -11.081,-18.9527 L -11.081,1.8163 z" />
    </clipPath>
    <clipPath
       id="clipPath2604"
       clipPathUnits="userSpaceOnUse">
      <path
         id="path2606"
         d="M -11.081,1.8147 L 1.337,1.8147 L 1.337,-18.9533 L -11.081,-18.9533 L -11.081,1.8147 z" />
    </clipPath>
    <clipPath
       id="clipPath2598"
       clipPathUnits="userSpaceOnUse">
      <path
         id="path2600"
         clip-rule="evenodd"
         d="M -0.19345,1.2988 L 1.20785,1.2988 L 1.20785,-0.0004 L -0.19345,-0.0004 L -0.19345,1.2988 z" />
    </clipPath>
    <clipPath
       id="clipPath2592"
       clipPathUnits="userSpaceOnUse">
      <path
         id="path2594"
         d="M 0,-1.8984 L 1,-1.8984 L 1,1 L 0,1 L 0,-1.8984 z" />
    </clipPath>
    <clipPath
       id="clipPath2584"
       clipPathUnits="userSpaceOnUse">
      <path
         id="path2586"
         d="M -11.0812,-18.9529 L 1.33773,-18.9529 L 1.33773,1.81627 L -11.0812,1.81627 L -11.0812,-18.9529 z" />
    </clipPath>
    <clipPath
       id="clipPath2574"
       clipPathUnits="userSpaceOnUse">
      <path
         id="path2576"
         d="M 842,36.956 L 1683.92,36.956 L 1683.92,632.276 L 842,632.276 L 842,36.956 z" />
    </clipPath>
    <clipPath
       id="clipPath2568"
       clipPathUnits="userSpaceOnUse">
      <path
         id="path2570"
         d="M 842,37 L 1683.89,37 L 1683.89,632.276 L 842,632.276 L 842,37 z" />
    </clipPath>
    <clipPath
       id="clipPath2562"
       clipPathUnits="userSpaceOnUse">
      <path
         id="path2564"
         clip-rule="evenodd"
         d="M 1580.116,51.787 L 1675.117,51.787 L 1675.117,89.027 L 1580.116,89.027 L 1580.116,51.787 z" />
    </clipPath>
    <clipPath
       id="clipPath2554"
       clipPathUnits="userSpaceOnUse">
      <path
         id="path2556"
         d="M 842,36.9555 L 1683.92,36.9555 L 1683.92,632.276 L 842,632.276 L 842,36.9555 z" />
    </clipPath>
    <clipPath
       id="clipPath2544"
       clipPathUnits="userSpaceOnUse">
      <path
         id="path2546"
         d="M 0,595.32 L 841.92,595.32 L 841.92,0 L 0,0 L 0,595.32 z" />
    </clipPath>
    <clipPath
       id="clipPath2538"
       clipPathUnits="userSpaceOnUse">
      <path
         id="path2540"
         d="M 6.1e-05,595.276 L 841.89006,595.276 L 841.89006,0 L 6.1e-05,0 L 6.1e-05,595.276 z" />
    </clipPath>
    <clipPath
       id="clipPath2532"
       clipPathUnits="userSpaceOnUse">
      <path
         id="path2534"
         clip-rule="evenodd"
         d="M 738.116,580.489 L 833.117,580.489 L 833.117,543.249 L 738.116,543.249 L 738.116,580.489 z" />
    </clipPath>
    <clipPath
       id="clipPath2508"
       clipPathUnits="userSpaceOnUse">
      <path
         id="path2510"
         d="M 0,595.32 L 841.92,595.32 L 841.92,0 L 0,0 L 0,595.32 z" />
    </clipPath>
    <clipPath
       id="clipPath2502"
       clipPathUnits="userSpaceOnUse">
      <path
         id="path2504"
         d="M 6.1e-05,595.276 L 841.89006,595.276 L 841.89006,0 L 6.1e-05,0 L 6.1e-05,595.276 z" />
    </clipPath>
    <clipPath
       id="clipPath2490"
       clipPathUnits="userSpaceOnUse">
      <path
         id="path2492"
         d="M -5.1091,0.98723 L 2.5973,0.98723 L 2.5973,0.01434 L -5.1091,0.01434 L -5.1091,0.98723 z" />
    </clipPath>
    <clipPath
       id="clipPath2484"
       clipPathUnits="userSpaceOnUse">
      <path
         id="path2486"
         d="M -5.1091,0.98716 L 2.5971,0.98716 L 2.5971,0.01434 L -5.1091,0.01434 L -5.1091,0.98716 z" />
    </clipPath>
    <clipPath
       id="clipPath2478"
       clipPathUnits="userSpaceOnUse">
      <path
         id="path2480"
         clip-rule="evenodd"
         d="M 0.002417,0.99961 L 0.997437,0.99961 L 0.997437,0.00044 L 0.002417,0.00044 L 0.002417,0.99961 z" />
    </clipPath>
    <clipPath
       id="clipPath2470"
       clipPathUnits="userSpaceOnUse">
      <path
         id="path2472"
         d="M -5.10908,0.014338 L 2.59736,0.014338 L 2.59736,0.987229 L -5.10908,0.987229 L -5.10908,0.014338 z" />
    </clipPath>
    <clipPath
       id="clipPath2460"
       clipPathUnits="userSpaceOnUse">
      <path
         id="path2462"
         d="M 842,36.956 L 1683.92,36.956 L 1683.92,632.276 L 842,632.276 L 842,36.956 z" />
    </clipPath>
    <clipPath
       id="clipPath2454"
       clipPathUnits="userSpaceOnUse">
      <path
         id="path2456"
         d="M 842,37 L 1683.89,37 L 1683.89,632.276 L 842,632.276 L 842,37 z" />
    </clipPath>
    <clipPath
       id="clipPath2448"
       clipPathUnits="userSpaceOnUse">
      <path
         id="path2450"
         clip-rule="evenodd"
         d="M 1400.425,29.38 L 1509.13,29.38 L 1509.13,640.779 L 1400.425,640.779 L 1400.425,29.38 z" />
    </clipPath>
    <clipPath
       id="clipPath2440"
       clipPathUnits="userSpaceOnUse">
      <path
         id="path2442"
         d="M 842,36.9555 L 1683.92,36.9555 L 1683.92,632.276 L 842,632.276 L 842,36.9555 z" />
    </clipPath>
    <clipPath
       id="clipPath2430"
       clipPathUnits="userSpaceOnUse">
      <path
         id="path2432"
         d="M 0,595.32 L 841.92,595.32 L 841.92,0 L 0,0 L 0,595.32 z" />
    </clipPath>
    <clipPath
       id="clipPath2424"
       clipPathUnits="userSpaceOnUse">
      <path
         id="path2426"
         d="M 6.1e-05,595.276 L 841.89006,595.276 L 841.89006,0 L 6.1e-05,0 L 6.1e-05,595.276 z" />
    </clipPath>
    <clipPath
       id="clipPath2418"
       clipPathUnits="userSpaceOnUse">
      <path
         id="path2420"
         clip-rule="evenodd"
         d="M 558.425,602.896 L 667.13,602.896 L 667.13,-8.503 L 558.425,-8.503 L 558.425,602.896 z" />
    </clipPath>
    <inkscape:perspective
       id="perspective2410"
       inkscape:persp3d-origin="372.04724 : 350.78739 : 1"
       inkscape:vp_z="744.09448 : 526.18109 : 1"
       inkscape:vp_y="0 : 1000 : 0"
       inkscape:vp_x="0 : 526.18109 : 1"
       sodipodi:type="inkscape:persp3d" />
  </defs>
  <sodipodi:namedview
     id="base"
     pagecolor="#ffffff"
     bordercolor="#666666"
     borderopacity="1.0"
     inkscape:pageopacity="0.0"
     inkscape:pageshadow="2"
     inkscape:zoom="0.35"
     inkscape:cx="8.5714286"
     inkscape:cy="520"
     inkscape:document-units="px"
     inkscape:current-layer="layer1"
     showgrid="false"
     inkscape:window-width="1280"
     inkscape:window-height="750"
     inkscape:window-x="-8"
     inkscape:window-y="-8" />
  <metadata
     id="metadata7">
    <rdf:RDF>
      <cc:Work
         rdf:about="">
        <dc:format>image/svg+xml</dc:format>
        <dc:type
           rdf:resource="http://purl.org/dc/dcmitype/StillImage" />
      </cc:Work>
    </rdf:RDF>
  </metadata>
  <g
     inkscape:label="Ebene 1"
     inkscape:groupmode="layer"
     id="layer1"
     transform="translate(-623.34338,158.58856)">
    <g
       id="g4664"
       transform="matrix(5.6642682,0,0,5.6642682,-2897.4409,-154.09351)">
      <g
         transform="matrix(1.25,0,0,-1.25,-315.69546,715.87541)"
         id="g2530"
         clip-path="url(#clipPath2532)">
        <g
           id="g2536"
           clip-path="url(#clipPath2538)">
          <g
             id="g2542"
             clip-path="url(#clipPath2544)">
            <g
               id="g2548"
               transform="matrix(1,0,0,-1,-841.9999,632.2755)">
              <g
                 id="g2550">
                <g
                   id="g2552"
                   clip-path="url(#clipPath2554)">
                  <g
                     id="g2558">
                    <g
                       id="g2560"
                       clip-path="url(#clipPath2562)">
                      <g
                         id="g2566"
                         clip-path="url(#clipPath2568)">
                        <g
                           id="g2572"
                           clip-path="url(#clipPath2574)">
                          <g
                             id="g2578"
                             transform="matrix(67.7934,0,0,-28.6636,1593.231,89.0163)">
                            <g
                               id="g2580">
                              <g
                                 id="g2582"
                                 clip-path="url(#clipPath2584)">
                                <g
                                   id="g2588">
                                <g
                                   id="g2590"
                                   clip-path="url(#clipPath2592)">
                                <g
                                   id="g2596"
                                   clip-path="url(#clipPath2598)">
                                <g
                                   id="g2602"
                                   clip-path="url(#clipPath2604)">
                                <g
                                   id="g2608"
                                   clip-path="url(#clipPath2610)">
                                <path
                                   d="M 0.63161,0.27099 L 0.83642,0.99788 L 0.000995,0.99788 L 0.000995,0.27135"
                                   style="fill:#c3181e;fill-opacity:1;fill-rule:nonzero;stroke:none"
                                   id="path2614" />
                                <path
                                   d="M 0.37299,0.80136 C 0.38713,0.84228 0.39837,0.90597 0.45336,0.9058 L 0.63808,0.9058 L 0.60387,0.7851 C 0.60387,0.7851 0.45427,0.78496 0.44867,0.7851 C 0.44306,0.78521 0.43525,0.77629 0.43067,0.75506 L 0.59549,0.75506 L 0.56022,0.63058 L 0.32476,0.63058 C 0.32476,0.63058 0.37195,0.79824 0.37299,0.80136"
                                   style="fill:#ffffff;fill-opacity:1;fill-rule:nonzero;stroke:none"
                                   id="path2616" />
                                <path
                                   d="M 0.87885,0.58103 C 0.87896,0.74307 0.8791,0.99707 0.87874,0.99618 C 0.8782,0.99493 0.7247,0.44955 0.7247,0.44955 L 0.8418,0.44955 L 0.79145,0.27092 L 0.99694,0.27092 L 0.99694,1"
                                   style="fill:#378754;fill-opacity:1;fill-rule:nonzero;stroke:none"
                                   id="path2618" />
                                <path
                                   d="M 0.044927,0.15409 C 0.04383,0.16341 0.041719,0.18097 0.030349,0.18097 C 0.023746,0.18097 0.014027,0.17057 0.014027,0.12655 C 0.014027,0.098568 0.018706,0.073414 0.030349,0.073414 C 0.037963,0.073414 0.043279,0.083611 0.044927,0.10268 L 0.058682,0.10268 C 0.05593,0.068863 0.046582,0.045225 0.030073,0.045225 C 0.012566,0.045225 0,0.07319 0,0.12698 C 0,0.18141 0.013294,0.20918 0.03026,0.20918 C 0.049974,0.20918 0.057946,0.17708 0.058682,0.15409"
                                   style="fill:#211f1e;fill-opacity:1;fill-rule:nonzero;stroke:none"
                                   id="path2620" />
                                <path
                                   d="M 0.11177,0.049348 L 0.098933,0.049348 L 0.098933,0.11939 C 0.098933,0.12784 0.098749,0.14216 0.09059,0.14216 C 0.084906,0.14216 0.080507,0.13306 0.080507,0.11549 L 0.080507,0.049347 L 0.067668,0.049347 L 0.067668,0.20504 L 0.080507,0.20504 L 0.080507,0.14975 L 0.08069,0.14975 C 0.082336,0.1593 0.087835,0.16775 0.094806,0.16775 C 0.10434,0.16775 0.11177,0.15452 0.11177,0.12915"
                                   style="fill:#211f1e;fill-opacity:1;fill-rule:nonzero;stroke:none"
                                   id="path2622" />
                                <path
                                   d="M 0.15248,0.11853 C 0.15175,0.13717 0.1467,0.14281 0.14258,0.14281 C 0.13653,0.14281 0.13331,0.13371 0.13259,0.11853 L 0.15248,0.11853 z M 0.16513,0.083177 C 0.16174,0.05542 0.15202,0.046311 0.14368,0.046311 C 0.12992,0.046311 0.11938,0.061921 0.11938,0.10942 C 0.11938,0.12329 0.1214,0.16775 0.14276,0.16775 C 0.15239,0.16775 0.16568,0.15691 0.16568,0.10421 L 0.16568,0.098785 L 0.13221,0.098785 C 0.13259,0.090111 0.13331,0.070596 0.14368,0.070596 C 0.14725,0.070596 0.15092,0.074929 0.15193,0.083177 L 0.16513,0.083177"
                                   style="fill:#211f1e;fill-opacity:1;fill-rule:nonzero;stroke:none"
                                   id="path2624" />
                                <path
                                   d="M 0.24353,0.049348 L 0.23069,0.049348 L 0.23069,0.11939 C 0.23069,0.13652 0.22748,0.14216 0.22372,0.14216 C 0.2173,0.14216 0.21501,0.13219 0.21501,0.11853 L 0.21501,0.049348 L 0.20217,0.049348 L 0.20217,0.11874 C 0.20217,0.1285 0.20217,0.14217 0.19447,0.14217 C 0.18842,0.14217 0.18649,0.13219 0.18649,0.11961 L 0.18649,0.049348 L 0.17365,0.049348 L 0.17365,0.16472 L 0.18594,0.16472 L 0.18594,0.14779 L 0.18612,0.14779 C 0.18778,0.15539 0.19136,0.16775 0.19997,0.16775 C 0.20703,0.16775 0.21025,0.16167 0.21354,0.14931 C 0.21519,0.15495 0.21877,0.16775 0.22656,0.16775 C 0.2361,0.16775 0.24353,0.15452 0.24353,0.12915"
                                   style="fill:#211f1e;fill-opacity:1;fill-rule:nonzero;stroke:none"
                                   id="path2626" />
                                <path
                                   d="M 0.25517,0.16472 L 0.268008,0.16472 L 0.268008,0.04935 L 0.25517,0.04935 L 0.25517,0.16472 z M 0.26801,0.17838 L 0.25517,0.17838 L 0.25517,0.20657 L 0.26801,0.20657 L 0.26801,0.17838"
                                   style="fill:#211f1e;fill-opacity:1;fill-rule:nonzero;stroke:none"
                                   id="path2628" />
                                <path
                                   d="M 0.32394,0.049348 L 0.3111,0.049348 L 0.3111,0.11939 C 0.3111,0.12784 0.31092,0.14216 0.30276,0.14216 C 0.29707,0.14216 0.29267,0.13306 0.29267,0.11549 L 0.29267,0.049347 L 0.27984,0.049347 L 0.27984,0.16472 L 0.29212,0.16472 L 0.29212,0.14779 L 0.29231,0.14779 C 0.29405,0.15473 0.29772,0.16775 0.30698,0.16775 C 0.31651,0.16775 0.32394,0.15452 0.32394,0.12915"
                                   style="fill:#211f1e;fill-opacity:1;fill-rule:nonzero;stroke:none"
                                   id="path2630" />
                                <path
                                   d="M 0.363,0.12958 C 0.36245,0.13695 0.36135,0.14476 0.35437,0.14476 C 0.34741,0.14476 0.34649,0.13848 0.34649,0.13348 C 0.34649,0.11527 0.37702,0.1285 0.37702,0.085994 C 0.37702,0.052377 0.36327,0.046311 0.35566,0.046311 C 0.34457,0.046311 0.33256,0.05542 0.33219,0.086212 L 0.34539,0.086212 C 0.34539,0.076443 0.34796,0.069298 0.35603,0.069298 C 0.36263,0.069298 0.36419,0.076894 0.36419,0.081226 C 0.36419,0.10052 0.33393,0.085994 0.33393,0.12915 C 0.33393,0.14606 0.33842,0.16775 0.35365,0.16775 C 0.36318,0.16775 0.37455,0.16212 0.37556,0.12958"
                                   style="fill:#211f1e;fill-opacity:1;fill-rule:nonzero;stroke:none"
                                   id="path2632" />
                                <path
                                   d="M 0.43186,0.071247 C 0.44002,0.071247 0.44322,0.087291 0.44322,0.10442 C 0.44322,0.12286 0.44102,0.14151 0.43223,0.14151 C 0.42406,0.14151 0.42131,0.12437 0.42131,0.10616 C 0.42131,0.092494 0.42361,0.071246 0.43186,0.071246 L 0.43186,0.071247 z M 0.45551,0.049348 L 0.44295,0.049348 L 0.44295,0.063878 L 0.44277,0.063878 C 0.43965,0.050862 0.43397,0.046311 0.42865,0.046311 C 0.41416,0.046311 0.40811,0.076668 0.40811,0.10833 C 0.40811,0.14823 0.41764,0.16775 0.42837,0.16775 C 0.43663,0.16775 0.44048,0.15712 0.44249,0.14975 L 0.44268,0.14975 L 0.44268,0.20504 L 0.45551,0.20504 L 0.45551,0.049348"
                                   style="fill:#211f1e;fill-opacity:1;fill-rule:nonzero;stroke:none"
                                   id="path2634" />
                                <path
                                   d="M 0.49576,0.11853 C 0.49503,0.13717 0.48999,0.14281 0.48586,0.14281 C 0.47981,0.14281 0.4766,0.13371 0.47587,0.11853 L 0.49576,0.11853 z M 0.50841,0.083177 C 0.50503,0.05542 0.4953,0.046311 0.48696,0.046311 C 0.47321,0.046311 0.46267,0.061921 0.46267,0.10942 C 0.46267,0.12329 0.46468,0.16775 0.48604,0.16775 C 0.49567,0.16775 0.50897,0.15691 0.50897,0.10421 L 0.50897,0.098785 L 0.4755,0.098785 C 0.47587,0.090111 0.4766,0.070596 0.48696,0.070596 C 0.49054,0.070596 0.4942,0.074929 0.49521,0.083177 L 0.50841,0.083177"
                                   style="fill:#211f1e;fill-opacity:1;fill-rule:nonzero;stroke:none"
                                   id="path2636" />
                                <path
                                   d="M 0.55693,0.049348 L 0.54409,0.049348 L 0.54409,0.14303 L 0.53702,0.14303 L 0.53702,0.16472 L 0.54409,0.16472 L 0.54409,0.17404 C 0.54409,0.19789 0.54959,0.207 0.55839,0.207 C 0.56215,0.207 0.56389,0.20678 0.56499,0.20657 L 0.56499,0.18206 L 0.56142,0.18206 C 0.55702,0.18206 0.55693,0.1788 0.55693,0.16927 L 0.55693,0.16472 L 0.56527,0.16472 L 0.56527,0.14303 L 0.55693,0.14303"
                                   style="fill:#211f1e;fill-opacity:1;fill-rule:nonzero;stroke:none"
                                   id="path2638" />
                                <path
                                   d="M 0.6005,0.11853 C 0.59976,0.13717 0.59471,0.14281 0.5906,0.14281 C 0.58454,0.14281 0.58133,0.13371 0.5806,0.11853 L 0.6005,0.11853 z M 0.61315,0.083177 C 0.60976,0.05542 0.60004,0.046311 0.5917,0.046311 C 0.57794,0.046311 0.5674,0.061921 0.5674,0.10942 C 0.5674,0.12329 0.56941,0.16775 0.59078,0.16775 C 0.6004,0.16775 0.61369,0.15691 0.61369,0.10421 L 0.61369,0.098785 L 0.58023,0.098785 C 0.5806,0.090111 0.58133,0.070596 0.5917,0.070596 C 0.59527,0.070596 0.59894,0.074929 0.59995,0.083177 L 0.61315,0.083177"
                                   style="fill:#211f1e;fill-opacity:1;fill-rule:nonzero;stroke:none"
                                   id="path2640" />
                                <path
                                   d="M 0.62168,0.16472 L 0.63396,0.16472 L 0.63396,0.14476 L 0.63415,0.14476 C 0.63681,0.15647 0.63974,0.16775 0.64753,0.16775 C 0.64835,0.16775 0.64918,0.16753 0.65,0.16732 L 0.65,0.13652 C 0.64891,0.13695 0.64753,0.13695 0.64633,0.13695 C 0.63635,0.13695 0.63451,0.12221 0.63451,0.10942 L 0.63451,0.049348 L 0.62168,0.049348"
                                   style="fill:#211f1e;fill-opacity:1;fill-rule:nonzero;stroke:none"
                                   id="path2642" />
                                <path
                                   d="M 0.70291,0.071247 C 0.71107,0.071247 0.71428,0.087291 0.71428,0.10442 C 0.71428,0.12286 0.71208,0.14151 0.70328,0.14151 C 0.69512,0.14151 0.69237,0.12437 0.69237,0.10616 C 0.69237,0.092494 0.69466,0.071246 0.70291,0.071246 L 0.70291,0.071247 z M 0.72657,0.049348 L 0.71401,0.049348 L 0.71401,0.063878 L 0.71383,0.063878 C 0.7107,0.050862 0.70502,0.046311 0.6997,0.046311 C 0.68522,0.046311 0.67916,0.076668 0.67916,0.10833 C 0.67916,0.14823 0.6887,0.16775 0.69943,0.16775 C 0.70768,0.16775 0.71153,0.15712 0.71355,0.14975 L 0.71373,0.14975 L 0.71373,0.20504 L 0.72657,0.20504 L 0.72657,0.049348"
                                   style="fill:#211f1e;fill-opacity:1;fill-rule:nonzero;stroke:none"
                                   id="path2644" />
                                <path
                                   d="M 0.78158,0.049348 L 0.7693,0.049348 L 0.7693,0.06561 L 0.76912,0.06561 C 0.76618,0.053247 0.76105,0.046311 0.75425,0.046311 C 0.74463,0.046311 0.73766,0.05932 0.73766,0.088806 L 0.73766,0.16472 L 0.75049,0.16472 L 0.75049,0.093146 C 0.75049,0.075363 0.7549,0.071893 0.75884,0.071893 C 0.76306,0.071893 0.76874,0.07753 0.76874,0.098132 L 0.76874,0.16472 L 0.78158,0.16472"
                                   style="fill:#211f1e;fill-opacity:1;fill-rule:nonzero;stroke:none"
                                   id="path2646" />
                                <path
                                   d="M 0.85658,0.094452 C 0.85658,0.061486 0.84934,0.045434 0.83614,0.045434 C 0.81422,0.045434 0.81422,0.078407 0.81422,0.10811 L 0.82706,0.10811 C 0.82706,0.083611 0.82779,0.071675 0.83513,0.071675 C 0.84228,0.071675 0.84283,0.082524 0.84283,0.094453 L 0.84283,0.20505 L 0.85658,0.20505"
                                   style="fill:#211f1e;fill-opacity:1;fill-rule:nonzero;stroke:none"
                                   id="path2648" />
                                <path
                                   d="M 0.91089,0.049348 L 0.89859,0.049348 L 0.89859,0.06561 L 0.89841,0.06561 C 0.89548,0.053247 0.89035,0.046311 0.88356,0.046311 C 0.87393,0.046311 0.86696,0.05932 0.86696,0.088806 L 0.86696,0.16472 L 0.8798,0.16472 L 0.8798,0.093146 C 0.8798,0.075363 0.8842,0.071893 0.88815,0.071893 C 0.89236,0.071893 0.89805,0.07753 0.89805,0.098132 L 0.89805,0.16472 L 0.91089,0.16472"
                                   style="fill:#211f1e;fill-opacity:1;fill-rule:nonzero;stroke:none"
                                   id="path2650" />
                                <path
                                   d="M 0.92234,0.16472 L 0.93463,0.16472 L 0.93463,0.14476 L 0.93481,0.14476 C 0.93747,0.15647 0.94041,0.16775 0.9482,0.16775 C 0.94903,0.16775 0.94985,0.16753 0.95068,0.16732 L 0.95068,0.13652 C 0.94958,0.13695 0.9482,0.13695 0.94701,0.13695 C 0.93702,0.13695 0.93518,0.12221 0.93518,0.10942 L 0.93518,0.049348 L 0.92234,0.049348"
                                   style="fill:#211f1e;fill-opacity:1;fill-rule:nonzero;stroke:none"
                                   id="path2652" />
                                <path
                                   d="M 0.98459,0.10551 C 0.98332,0.10313 0.98121,0.10117 0.97589,0.09922 C 0.97112,0.097271 0.96718,0.094452 0.96718,0.081871 C 0.96718,0.071247 0.97067,0.067993 0.97314,0.067993 C 0.97883,0.067993 0.98459,0.076668 0.98459,0.09077 L 0.98459,0.10551 z M 0.99716,0.071893 C 0.99716,0.058232 0.99845,0.055196 1,0.053891 L 1,0.049348 L 0.98616,0.049348 C 0.98543,0.054769 0.98524,0.0565 0.98497,0.063008 C 0.98203,0.055848 0.97791,0.046311 0.96919,0.046311 C 0.96187,0.046311 0.95435,0.056066 0.95435,0.079922 C 0.95435,0.10247 0.96039,0.11397 0.96855,0.11679 L 0.98011,0.1209 C 0.98212,0.12156 0.98459,0.12351 0.98459,0.13001 C 0.98459,0.14281 0.97947,0.14345 0.97616,0.14345 C 0.96976,0.14345 0.96865,0.13414 0.96828,0.12741 L 0.95591,0.12741 C 0.95737,0.16276 0.96773,0.16775 0.97773,0.16775 C 0.98459,0.16775 0.99716,0.16276 0.99716,0.13435 L 0.99716,0.071893"
                                   style="fill:#211f1e;fill-opacity:1;fill-rule:nonzero;stroke:none"
                                   id="path2654" />
                                <path
                                   d="M 0.044927,0.15409 C 0.04383,0.16341 0.041719,0.18097 0.030349,0.18097 C 0.023746,0.18097 0.014027,0.17057 0.014027,0.12655 C 0.014027,0.098568 0.018706,0.073414 0.030349,0.073414 C 0.037963,0.073414 0.043279,0.083611 0.044927,0.10268 L 0.058682,0.10268 C 0.05593,0.068863 0.046582,0.045225 0.030073,0.045225 C 0.012566,0.045225 0,0.07319 0,0.12698 C 0,0.18141 0.013294,0.20918 0.03026,0.20918 C 0.049974,0.20918 0.057946,0.17708 0.058682,0.15409"
                                   style="fill:#211f1e;fill-opacity:1;fill-rule:nonzero;stroke:none"
                                   id="path2656" />
                                <path
                                   d="M 0.11177,0.049348 L 0.098933,0.049348 L 0.098933,0.11939 C 0.098933,0.12784 0.098749,0.14216 0.09059,0.14216 C 0.084906,0.14216 0.080507,0.13306 0.080507,0.11549 L 0.080507,0.049347 L 0.067668,0.049347 L 0.067668,0.20504 L 0.080507,0.20504 L 0.080507,0.14975 L 0.08069,0.14975 C 0.082336,0.1593 0.087835,0.16775 0.094806,0.16775 C 0.10434,0.16775 0.11177,0.15452 0.11177,0.12915"
                                   style="fill:#211f1e;fill-opacity:1;fill-rule:nonzero;stroke:none"
                                   id="path2658" />
                                <path
                                   d="M 0.15248,0.11853 C 0.15175,0.13717 0.1467,0.14281 0.14258,0.14281 C 0.13653,0.14281 0.13331,0.13371 0.13259,0.11853 L 0.15248,0.11853 z M 0.16513,0.083177 C 0.16174,0.05542 0.15202,0.046311 0.14368,0.046311 C 0.12992,0.046311 0.11938,0.061921 0.11938,0.10942 C 0.11938,0.12329 0.1214,0.16775 0.14276,0.16775 C 0.15239,0.16775 0.16568,0.15691 0.16568,0.10421 L 0.16568,0.098785 L 0.13221,0.098785 C 0.13259,0.090111 0.13331,0.070596 0.14368,0.070596 C 0.14725,0.070596 0.15092,0.074929 0.15193,0.083177 L 0.16513,0.083177"
                                   style="fill:#211f1e;fill-opacity:1;fill-rule:nonzero;stroke:none"
                                   id="path2660" />
                                <path
                                   d="M 0.24353,0.049348 L 0.23069,0.049348 L 0.23069,0.11939 C 0.23069,0.13652 0.22748,0.14216 0.22372,0.14216 C 0.2173,0.14216 0.21501,0.13219 0.21501,0.11853 L 0.21501,0.049348 L 0.20217,0.049348 L 0.20217,0.11874 C 0.20217,0.1285 0.20217,0.14217 0.19447,0.14217 C 0.18842,0.14217 0.18649,0.13219 0.18649,0.11961 L 0.18649,0.049348 L 0.17365,0.049348 L 0.17365,0.16472 L 0.18594,0.16472 L 0.18594,0.14779 L 0.18612,0.14779 C 0.18778,0.15539 0.19136,0.16775 0.19997,0.16775 C 0.20703,0.16775 0.21025,0.16167 0.21354,0.14931 C 0.21519,0.15495 0.21877,0.16775 0.22656,0.16775 C 0.2361,0.16775 0.24353,0.15452 0.24353,0.12915"
                                   style="fill:#211f1e;fill-opacity:1;fill-rule:nonzero;stroke:none"
                                   id="path2662" />
                                <path
                                   d="M 0.25517,0.16472 L 0.268008,0.16472 L 0.268008,0.04935 L 0.25517,0.04935 L 0.25517,0.16472 z M 0.26801,0.17838 L 0.25517,0.17838 L 0.25517,0.20657 L 0.26801,0.20657 L 0.26801,0.17838"
                                   style="fill:#211f1e;fill-opacity:1;fill-rule:nonzero;stroke:none"
                                   id="path2664" />
                                <path
                                   d="M 0.32394,0.049348 L 0.3111,0.049348 L 0.3111,0.11939 C 0.3111,0.12784 0.31092,0.14216 0.30276,0.14216 C 0.29707,0.14216 0.29267,0.13306 0.29267,0.11549 L 0.29267,0.049347 L 0.27984,0.049347 L 0.27984,0.16472 L 0.29212,0.16472 L 0.29212,0.14779 L 0.29231,0.14779 C 0.29405,0.15473 0.29772,0.16775 0.30698,0.16775 C 0.31651,0.16775 0.32394,0.15452 0.32394,0.12915"
                                   style="fill:#211f1e;fill-opacity:1;fill-rule:nonzero;stroke:none"
                                   id="path2666" />
                                <path
                                   d="M 0.363,0.12958 C 0.36245,0.13695 0.36135,0.14476 0.35437,0.14476 C 0.34741,0.14476 0.34649,0.13848 0.34649,0.13348 C 0.34649,0.11527 0.37702,0.1285 0.37702,0.085994 C 0.37702,0.052377 0.36327,0.046311 0.35566,0.046311 C 0.34457,0.046311 0.33256,0.05542 0.33219,0.086212 L 0.34539,0.086212 C 0.34539,0.076443 0.34796,0.069298 0.35603,0.069298 C 0.36263,0.069298 0.36419,0.076894 0.36419,0.081226 C 0.36419,0.10052 0.33393,0.085994 0.33393,0.12915 C 0.33393,0.14606 0.33842,0.16775 0.35365,0.16775 C 0.36318,0.16775 0.37455,0.16212 0.37556,0.12958"
                                   style="fill:#211f1e;fill-opacity:1;fill-rule:nonzero;stroke:none"
                                   id="path2668" />
                                <path
                                   d="M 0.43186,0.071247 C 0.44002,0.071247 0.44322,0.087291 0.44322,0.10442 C 0.44322,0.12286 0.44102,0.14151 0.43223,0.14151 C 0.42406,0.14151 0.42131,0.12437 0.42131,0.10616 C 0.42131,0.092494 0.42361,0.071246 0.43186,0.071246 L 0.43186,0.071247 z M 0.45551,0.049348 L 0.44295,0.049348 L 0.44295,0.063878 L 0.44277,0.063878 C 0.43965,0.050862 0.43397,0.046311 0.42865,0.046311 C 0.41416,0.046311 0.40811,0.076668 0.40811,0.10833 C 0.40811,0.14823 0.41764,0.16775 0.42837,0.16775 C 0.43663,0.16775 0.44048,0.15712 0.44249,0.14975 L 0.44268,0.14975 L 0.44268,0.20504 L 0.45551,0.20504 L 0.45551,0.049348"
                                   style="fill:#211f1e;fill-opacity:1;fill-rule:nonzero;stroke:none"
                                   id="path2670" />
                                <path
                                   d="M 0.49576,0.11853 C 0.49503,0.13717 0.48999,0.14281 0.48586,0.14281 C 0.47981,0.14281 0.4766,0.13371 0.47587,0.11853 L 0.49576,0.11853 z M 0.50841,0.083177 C 0.50503,0.05542 0.4953,0.046311 0.48696,0.046311 C 0.47321,0.046311 0.46267,0.061921 0.46267,0.10942 C 0.46267,0.12329 0.46468,0.16775 0.48604,0.16775 C 0.49567,0.16775 0.50897,0.15691 0.50897,0.10421 L 0.50897,0.098785 L 0.4755,0.098785 C 0.47587,0.090111 0.4766,0.070596 0.48696,0.070596 C 0.49054,0.070596 0.4942,0.074929 0.49521,0.083177 L 0.50841,0.083177"
                                   style="fill:#211f1e;fill-opacity:1;fill-rule:nonzero;stroke:none"
                                   id="path2672" />
                                <path
                                   d="M 0.55693,0.049348 L 0.54409,0.049348 L 0.54409,0.14303 L 0.53702,0.14303 L 0.53702,0.16472 L 0.54409,0.16472 L 0.54409,0.17404 C 0.54409,0.19789 0.54959,0.207 0.55839,0.207 C 0.56215,0.207 0.56389,0.20678 0.56499,0.20657 L 0.56499,0.18206 L 0.56142,0.18206 C 0.55702,0.18206 0.55693,0.1788 0.55693,0.16927 L 0.55693,0.16472 L 0.56527,0.16472 L 0.56527,0.14303 L 0.55693,0.14303"
                                   style="fill:#211f1e;fill-opacity:1;fill-rule:nonzero;stroke:none"
                                   id="path2674" />
                                <path
                                   d="M 0.6005,0.11853 C 0.59976,0.13717 0.59471,0.14281 0.5906,0.14281 C 0.58454,0.14281 0.58133,0.13371 0.5806,0.11853 L 0.6005,0.11853 z M 0.61315,0.083177 C 0.60976,0.05542 0.60004,0.046311 0.5917,0.046311 C 0.57794,0.046311 0.5674,0.061921 0.5674,0.10942 C 0.5674,0.12329 0.56941,0.16775 0.59078,0.16775 C 0.6004,0.16775 0.61369,0.15691 0.61369,0.10421 L 0.61369,0.098785 L 0.58023,0.098785 C 0.5806,0.090111 0.58133,0.070596 0.5917,0.070596 C 0.59527,0.070596 0.59894,0.074929 0.59995,0.083177 L 0.61315,0.083177"
                                   style="fill:#211f1e;fill-opacity:1;fill-rule:nonzero;stroke:none"
                                   id="path2676" />
                                <path
                                   d="M 0.62168,0.16472 L 0.63396,0.16472 L 0.63396,0.14476 L 0.63415,0.14476 C 0.63681,0.15647 0.63974,0.16775 0.64753,0.16775 C 0.64835,0.16775 0.64918,0.16753 0.65,0.16732 L 0.65,0.13652 C 0.64891,0.13695 0.64753,0.13695 0.64633,0.13695 C 0.63635,0.13695 0.63451,0.12221 0.63451,0.10942 L 0.63451,0.049348 L 0.62168,0.049348"
                                   style="fill:#211f1e;fill-opacity:1;fill-rule:nonzero;stroke:none"
                                   id="path2678" />
                                <path
                                   d="M 0.70291,0.071247 C 0.71107,0.071247 0.71428,0.087291 0.71428,0.10442 C 0.71428,0.12286 0.71208,0.14151 0.70328,0.14151 C 0.69512,0.14151 0.69237,0.12437 0.69237,0.10616 C 0.69237,0.092494 0.69466,0.071246 0.70291,0.071246 L 0.70291,0.071247 z M 0.72657,0.049348 L 0.71401,0.049348 L 0.71401,0.063878 L 0.71383,0.063878 C 0.7107,0.050862 0.70502,0.046311 0.6997,0.046311 C 0.68522,0.046311 0.67916,0.076668 0.67916,0.10833 C 0.67916,0.14823 0.6887,0.16775 0.69943,0.16775 C 0.70768,0.16775 0.71153,0.15712 0.71355,0.14975 L 0.71373,0.14975 L 0.71373,0.20504 L 0.72657,0.20504 L 0.72657,0.049348"
                                   style="fill:#211f1e;fill-opacity:1;fill-rule:nonzero;stroke:none"
                                   id="path2680" />
                                <path
                                   d="M 0.78158,0.049348 L 0.7693,0.049348 L 0.7693,0.06561 L 0.76912,0.06561 C 0.76618,0.053247 0.76105,0.046311 0.75425,0.046311 C 0.74463,0.046311 0.73766,0.05932 0.73766,0.088806 L 0.73766,0.16472 L 0.75049,0.16472 L 0.75049,0.093146 C 0.75049,0.075363 0.7549,0.071893 0.75884,0.071893 C 0.76306,0.071893 0.76874,0.07753 0.76874,0.098132 L 0.76874,0.16472 L 0.78158,0.16472"
                                   style="fill:#211f1e;fill-opacity:1;fill-rule:nonzero;stroke:none"
                                   id="path2682" />
                                <path
                                   d="M 0.85658,0.094452 C 0.85658,0.061486 0.84934,0.045434 0.83614,0.045434 C 0.81422,0.045434 0.81422,0.078407 0.81422,0.10811 L 0.82706,0.10811 C 0.82706,0.083611 0.82779,0.071675 0.83513,0.071675 C 0.84228,0.071675 0.84283,0.082524 0.84283,0.094453 L 0.84283,0.20505 L 0.85658,0.20505"
                                   style="fill:#211f1e;fill-opacity:1;fill-rule:nonzero;stroke:none"
                                   id="path2684" />
                                <path
                                   d="M 0.91089,0.049348 L 0.89859,0.049348 L 0.89859,0.06561 L 0.89841,0.06561 C 0.89548,0.053247 0.89035,0.046311 0.88356,0.046311 C 0.87393,0.046311 0.86696,0.05932 0.86696,0.088806 L 0.86696,0.16472 L 0.8798,0.16472 L 0.8798,0.093146 C 0.8798,0.075363 0.8842,0.071893 0.88815,0.071893 C 0.89236,0.071893 0.89805,0.07753 0.89805,0.098132 L 0.89805,0.16472 L 0.91089,0.16472"
                                   style="fill:#211f1e;fill-opacity:1;fill-rule:nonzero;stroke:none"
                                   id="path2686" />
                                <path
                                   d="M 0.92234,0.16472 L 0.93463,0.16472 L 0.93463,0.14476 L 0.93481,0.14476 C 0.93747,0.15647 0.94041,0.16775 0.9482,0.16775 C 0.94903,0.16775 0.94985,0.16753 0.95068,0.16732 L 0.95068,0.13652 C 0.94958,0.13695 0.9482,0.13695 0.94701,0.13695 C 0.93702,0.13695 0.93518,0.12221 0.93518,0.10942 L 0.93518,0.049348 L 0.92234,0.049348"
                                   style="fill:#211f1e;fill-opacity:1;fill-rule:nonzero;stroke:none"
                                   id="path2688" />
                                <path
                                   d="M 0.98459,0.10551 C 0.98332,0.10313 0.98121,0.10117 0.97589,0.09922 C 0.97112,0.097271 0.96718,0.094452 0.96718,0.081871 C 0.96718,0.071247 0.97067,0.067993 0.97314,0.067993 C 0.97883,0.067993 0.98459,0.076668 0.98459,0.09077 L 0.98459,0.10551 z M 0.99716,0.071893 C 0.99716,0.058232 0.99845,0.055196 1,0.053891 L 1,0.049348 L 0.98616,0.049348 C 0.98543,0.054769 0.98524,0.0565 0.98497,0.063008 C 0.98203,0.055848 0.97791,0.046311 0.96919,0.046311 C 0.96187,0.046311 0.95435,0.056066 0.95435,0.079922 C 0.95435,0.10247 0.96039,0.11397 0.96855,0.11679 L 0.98011,0.1209 C 0.98212,0.12156 0.98459,0.12351 0.98459,0.13001 C 0.98459,0.14281 0.97947,0.14345 0.97616,0.14345 C 0.96976,0.14345 0.96865,0.13414 0.96828,0.12741 L 0.95591,0.12741 C 0.95737,0.16276 0.96773,0.16775 0.97773,0.16775 C 0.98459,0.16775 0.99716,0.16276 0.99716,0.13435 L 0.99716,0.071893"
                                   style="fill:#211f1e;fill-opacity:1;fill-rule:nonzero;stroke:none"
                                   id="path2690" />
                                <path
                                   d="M 0.69113,0.9058 L 0.76529,0.9058 L 0.73131,0.7851 L 0.65687,0.7851"
                                   style="fill:#ffffff;fill-opacity:1;fill-rule:nonzero;stroke:none"
                                   id="path2692" />
                                <path
                                   d="M 0.63837,0.4557 C 0.60744,0.34517 0.57131,0.34308 0.53234,0.34308 L 0.64853,0.75489 L 0.72301,0.75486 C 0.72301,0.75486 0.64752,0.48835 0.63837,0.4557"
                                   style="fill:#ffffff;fill-opacity:1;fill-rule:nonzero;stroke:none"
                                   id="path2694" />
                                </g>
                                </g>
                                </g>
                                </g>
                                </g>
                              </g>
                            </g>
                          </g>
                        </g>
                      </g>
                    </g>
                  </g>
                </g>
              </g>
            </g>
          </g>
        </g>
      </g>
    </g>
  </g>
</svg>
