<?xml version="1.0" encoding="utf-8"?>
<!-- Generator: Adobe Illustrator 26.3.1, SVG Export Plug-In . SVG Version: 6.00 Build 0)  -->
<svg version="1.1" id="Ebene_1" xmlns="http://www.w3.org/2000/svg" xmlns:xlink="http://www.w3.org/1999/xlink" x="0px" y="0px"
	 viewBox="0 0 768.03 133.32" style="enable-background:new 0 0 768.03 133.32;" xml:space="preserve">
<style type="text/css">
	.st0{clip-path:url(#SVGID_00000013159421691497725840000001689387697928718748_);}
	
		.st1{clip-path:url(#SVGID_00000013159421691497725840000001689387697928718748_);fill-rule:evenodd;clip-rule:evenodd;fill:#4C9046;}
	
		.st2{clip-path:url(#SVGID_00000013159421691497725840000001689387697928718748_);fill-rule:evenodd;clip-rule:evenodd;fill:#FFFFFF;}
	.st3{clip-path:url(#SVGID_00000083788009590352441950000008676629553184968337_);fill:#E30613;}
</style>
<g>
	<g>
		<defs>
			<rect id="SVGID_1_" x="-1.86" y="-17.48" width="634.66" height="169.53"/>
		</defs>
		<clipPath id="SVGID_00000054232526937768658350000004034999709213379234_">
			<use xlink:href="#SVGID_1_"  style="overflow:visible;"/>
		</clipPath>
		<path style="clip-path:url(#SVGID_00000054232526937768658350000004034999709213379234_);" d="M159.61,40.17h17.38
			c11.39,0,16.65,4.24,16.65,13.58c0,6.14-2.04,9.06-7.96,11.39c7.08,1.53,10.15,5.4,10.15,13c0,10.08-6.35,15.12-19.06,15.12
			h-17.16V40.17z M176.48,61.87c4.38,0,6.14-1.9,6.14-6.65c0-4.74-1.54-6.35-5.92-6.35H171v13H176.48z M176.34,84.65
			c5.99,0,8.18-2.12,8.18-7.81c0-5.69-1.97-7.59-7.67-7.59H171v15.41H176.34z"/>
		<path style="clip-path:url(#SVGID_00000054232526937768658350000004034999709213379234_);" d="M222.1,88.45
			c-2.48,3.94-5.7,5.85-10,5.85c-6.58,0-10.3-4.17-10.3-11.47c0-5.84,2.04-9.13,6.72-10.74c2.93-0.95,5.48-1.24,13.07-1.53v-2.92
			c0-4.02-1.61-5.55-5.77-5.55c-3.43,0-6.28,0.58-11.39,2.41v-8.47c4.46-1.75,8.47-2.56,13.07-2.56c10.15,0,14.46,4.09,14.46,13.8
			v17.38c0,3.95,0.37,5.55,1.54,6.57v2.04h-10.01L222.1,88.45z M221.59,75.81c-4.82,0.37-4.82,0.37-6.21,0.73
			c-2.56,0.66-3.36,1.97-3.36,5.26c0,3.58,1.17,5.11,4.02,5.11c2.05,0,3.8-0.81,5.55-2.49V75.81z"/>
		<path style="clip-path:url(#SVGID_00000054232526937768658350000004034999709213379234_);" d="M241.13,40.47
			c4.02-0.07,6.72-0.88,7.96-2.26h2.41v21.69c3.87-4.31,7.6-6.28,12.12-6.28c6.14,0,9.06,3.87,9.06,11.83v27.83h-10.37V67.63
			c0-3.8-1.1-5.11-4.16-5.11c-2.12,0-3.8,0.58-6.65,2.12v28.63h-10.37V40.47z"/>
		<path style="clip-path:url(#SVGID_00000054232526937768658350000004034999709213379234_);" d="M281.67,55.66
			c4.02-0.07,6.72-0.88,7.96-2.26h2.41v6.5c4.09-4.46,7.6-6.28,12.12-6.28c5.84,0,9.05,3.87,9.05,10.81v28.85h-10.37V66.98
			c0-3.07-1.32-4.45-4.16-4.45c-2.12,0-3.8,0.51-6.65,2.12v28.63h-10.37V55.66z"/>
		<path style="clip-path:url(#SVGID_00000054232526937768658350000004034999709213379234_);" d="M339.74,81.88
			c4.82,2.48,8.32,3.43,12.63,3.43c5.4,0,8.25-2.12,8.25-6.2c0-3.72-1.24-4.89-8.69-8.54c-4.23-2.05-6.21-3.36-8.03-5.33
			c-2.55-2.78-3.87-6.43-3.87-10.88c0-9.79,6.28-15.41,17.23-15.41c4.38,0,7.96,0.73,11.68,2.34v9.42c-4.38-1.97-7.37-2.7-11.02-2.7
			c-4.82,0-7.3,1.9-7.3,5.55c0,3.58,1.24,4.82,8.25,8.1c5.04,2.41,7.16,3.8,9.13,5.99c2.41,2.63,3.65,6.21,3.65,10.59
			c0,10.52-6.42,16.14-18.47,16.14c-5.04,0-8.84-0.88-13.44-3.07V81.88z"/>
		<path style="clip-path:url(#SVGID_00000054232526937768658350000004034999709213379234_);" d="M399.48,92.76
			c-2.05,0.88-4.53,1.32-7.23,1.32c-8.32,0-11.98-3.73-11.98-12.41v-19.5h-4.6v-7.67h0.8c3.51,0,4.89-1.17,5.84-4.97l0.88-3.72h7.45
			v8.69h8.18v7.67h-8.18v18.55c0,3.8,1.1,5.04,4.38,5.04c1.46,0,2.55-0.22,4.45-0.88V92.76z"/>
		<path style="clip-path:url(#SVGID_00000054232526937768658350000004034999709213379234_);" d="M427.17,88.01
			c-3.8,4.38-7.3,6.21-11.83,6.21c-6.35,0-9.42-3.8-9.42-11.75V55.15l10.37-0.88v26.07c0,3.8,1.02,5.18,4.01,5.18
			c2.05,0,3.5-0.51,6.28-2.12V55.15l10.37-0.88v38.99h-8.18L427.17,88.01z"/>
		<path style="clip-path:url(#SVGID_00000054232526937768658350000004034999709213379234_);" d="M467.32,92.76
			c-2.05,0.88-4.53,1.32-7.23,1.32c-8.32,0-11.97-3.73-11.97-12.41v-19.5h-4.6v-7.67h0.8c3.51,0,4.89-1.17,5.84-4.97l0.88-3.72h7.45
			v8.69h8.18v7.67h-8.18v18.55c0,3.8,1.1,5.04,4.38,5.04c1.46,0,2.55-0.22,4.46-0.88V92.76z"/>
		<path style="clip-path:url(#SVGID_00000054232526937768658350000004034999709213379234_);" d="M494.07,92.76
			c-2.05,0.88-4.53,1.32-7.23,1.32c-8.32,0-11.97-3.73-11.97-12.41v-19.5h-4.6v-7.67h0.81c3.5,0,4.89-1.17,5.84-4.97l0.88-3.72h7.45
			v8.69h8.18v7.67h-8.18v18.55c0,3.8,1.1,5.04,4.38,5.04c1.46,0,2.56-0.22,4.46-0.88V92.76z"/>
		<path style="clip-path:url(#SVGID_00000054232526937768658350000004034999709213379234_);" d="M555.4,75.81
			c-4.82,0.37-4.82,0.37-6.2,0.73c-2.55,0.66-3.36,1.97-3.36,5.26c0,3.57,1.17,5.11,4.02,5.11c2.04,0,3.8-0.81,5.55-2.49V75.81z
			 M555.91,88.45c-2.48,3.94-5.7,5.84-10,5.84c-6.57,0-10.3-4.17-10.3-11.47c0-5.84,2.04-9.13,6.72-10.74
			c2.92-0.95,5.48-1.24,13.07-1.53v-2.92c0-4.02-1.6-5.55-5.77-5.55c-3.43,0-6.28,0.58-11.4,2.41v-8.47
			c4.46-1.75,8.47-2.56,13.07-2.56c10.15,0,14.46,4.09,14.46,13.8v17.38c0,3.94,0.37,5.55,1.53,6.57v2.04h-10L555.91,88.45z"/>
		<path style="clip-path:url(#SVGID_00000054232526937768658350000004034999709213379234_);" d="M573.8,55.66
			c4.01-0.07,6.72-0.88,8.03-2.26h2.34v7.08c2.99-4.09,7.16-6.57,11.32-6.86v9.93c-4.53,0.37-7.37,0.95-10.51,2.12l-0.8,0.22v27.38
			H573.8V55.66z"/>
		<path style="clip-path:url(#SVGID_00000054232526937768658350000004034999709213379234_);" d="M622.56,92.76
			c-2.05,0.88-4.53,1.32-7.23,1.32c-8.32,0-11.97-3.73-11.97-12.41v-19.5h-4.6v-7.67h0.8c3.51,0,4.89-1.17,5.84-4.97l0.88-3.72h7.45
			v8.69h8.18v7.67h-8.18v18.55c0,3.8,1.09,5.04,4.38,5.04c1.46,0,2.56-0.22,4.46-0.88V92.76z"/>
		<path style="clip-path:url(#SVGID_00000054232526937768658350000004034999709213379234_);" d="M510.01,66.87
			c0,5.04,1.24,6.78,4.67,6.78c3.35,0,4.6-1.75,4.6-6.71c0-5.03-1.17-6.71-4.6-6.71C511.25,60.23,510.01,61.98,510.01,66.87
			 M510.89,92.62c-0.88,0-1.38-0.07-2.04-0.15c-1.31,1.31-2.04,3.06-2.04,4.96c0,2.99,2.33,4.3,7.66,4.3c5.91,0,8.24-1.46,8.24-5.03
			c0-3.06-1.46-4.08-5.98-4.08H510.89z M531.38,60.6c-1.24,0-2.33,0.15-3.28,0.44c0.73,1.82,1.02,3.21,1.02,5.54
			c0,8.75-5.03,13.42-14.52,13.42c-2.11,0-3.94-0.22-5.91-0.8c-0.58,0.88-0.8,1.61-0.8,2.55c0,2.41,1.17,3.36,4.16,3.36h5.76
			c4.81,0,7.44,0.44,9.85,1.68c2.99,1.6,4.6,4.6,4.6,8.83c0,8.75-6.05,13.2-17.8,13.2c-10.94,0-17-3.35-17-9.41
			c0-3.57,1.97-6.35,6.05-8.39c-2.33-1.39-3.36-3.06-3.36-5.54c0-3.06,1.46-5.76,4.3-8.32c-3.06-2.55-4.3-5.47-4.3-10.14
			c0-4.96,1.39-8.17,4.6-10.58c2.48-1.9,5.91-2.92,10.07-2.92c2.48,0,4.45,0.29,6.56,1.02h11.02v6.05H531.38z"/>
		
			<path style="clip-path:url(#SVGID_00000054232526937768658350000004034999709213379234_);fill-rule:evenodd;clip-rule:evenodd;fill:#4C9046;" d="
			M0.32,66.72c0-36.65,29.71-66.37,66.37-66.37c36.65,0,66.37,29.72,66.37,66.37c0,36.65-29.71,66.37-66.37,66.37
			C30.04,133.09,0.32,103.37,0.32,66.72"/>
		
			<path style="clip-path:url(#SVGID_00000054232526937768658350000004034999709213379234_);fill-rule:evenodd;clip-rule:evenodd;fill:#FFFFFF;" d="
			M103.35,28.48V45.7c-9.15-9.86-22.93-18.53-39.09-18.53c-9.15,0-14.38,4.87-14.38,10.57c0,24,59.76,7.13,59.76,46.56
			c0,15.92-15.44,34.46-41.46,34.46c-14.49,0-31.24-6.53-40.39-14.73V83.36c8.67,12.48,24.47,22.1,40.39,22.1
			c9.74,0,17.58-5.58,17.58-11.52c0-22.44-58.8-8.55-58.8-47.28c0-20.31,19.84-31.24,37.66-31.24
			C79.47,15.41,92.77,20.28,103.35,28.48"/>
	</g>
	<g>
		<defs>
			<rect id="SVGID_00000039126793694932464910000000331923433957903526_" x="651.25" y="25.4" width="116.79" height="81.75"/>
		</defs>
		<clipPath id="SVGID_00000163055728388372070650000006451613070747758984_">
			<use xlink:href="#SVGID_00000039126793694932464910000000331923433957903526_"  style="overflow:visible;"/>
		</clipPath>
		<path style="clip-path:url(#SVGID_00000163055728388372070650000006451613070747758984_);fill:#E30613;" d="M756.3,25.4h-93.31
			c-6.42,0-11.74,5.08-11.74,11.64v58.35c0,6.56,5.32,11.76,11.74,11.76h93.31c6.42,0,11.74-5.2,11.74-11.76V37.04
			C768.03,30.48,762.72,25.4,756.3,25.4 M759.51,95.39c0,1.86-1.36,3.35-3.21,3.35h-93.31c-1.85,0-3.21-1.49-3.21-3.35V37.04
			c0-1.86,1.36-3.34,3.21-3.34h93.31c1.85,0,3.21,1.49,3.21,3.34V95.39z"/>
		<path style="clip-path:url(#SVGID_00000163055728388372070650000006451613070747758984_);fill:#E30613;" d="M686.96,93.04h-19.65
			V39.52h19.65c13.84,0,21.48,8.67,21.48,26.51C708.45,81.52,703.27,92.91,686.96,93.04 M695.49,67.14c0-10.78-1.12-19.2-12.73-19.2
			h-2.6v36.41h4.57C691.53,84.36,695.49,78.91,695.49,67.14"/>
		<path style="clip-path:url(#SVGID_00000163055728388372070650000006451613070747758984_);fill:#E30613;" d="M742.39,65.04
			c3.79-1,9.36-5.33,9.36-12.46c0-1.11-0.23-13.04-15.28-13.04h-22.39v53.49h18.92c5.01,0,20.62,0,20.62-15.04
			C753.62,74.23,752.08,67.16,742.39,65.04 M726.8,47.8h4.05c5.75,0,8.04,2.01,8.04,6.44c0,3.52-2.52,6.47-6.99,6.47h-5.1V47.8z
			 M732.07,84.36h-5.27V70.61h5.62c6.68,0,8.31,3.9,8.31,6.88C740.72,84.36,734.11,84.36,732.07,84.36"/>
	</g>
</g>
</svg>
