<?xml version="1.0" encoding="UTF-8" standalone="no"?>
<!-- Created with Inkscape (http://www.inkscape.org/) -->
<svg
   xmlns:svg="http://www.w3.org/2000/svg"
   xmlns="http://www.w3.org/2000/svg"
   version="1.0"
   width="500"
   height="170.60001"
   id="svg2">
  <defs
     id="defs4" />
  <g
     transform="translate(-375.32852,-233.59333)"
     id="layer1">
    <g
       transform="matrix(3.2349646,0,0,3.2349646,-828.84592,-848.64669)"
       id="g2907">
      <g
         transform="translate(-77.818262,-8.592275)"
         id="g2856">
        <path
           d="M 502.11052,366.15504 L 503.49427,366.15504 C 503.98927,366.15504 504.27427,365.83504 504.27427,365.40879 C 504.27427,364.84129 503.84802,364.70004 503.38677,364.70004 L 502.11052,364.70004 L 502.11052,366.15504 z M 502.11052,364.23879 L 503.24427,364.23879 C 503.84802,364.23879 504.09552,364.02629 504.09552,363.56504 C 504.09552,362.99879 503.70677,362.92754 503.24427,362.92754 L 502.11052,362.92754 L 502.11052,364.23879 z M 501.58052,362.46754 L 503.06802,362.46754 C 503.45802,362.46754 503.91927,362.46754 504.16802,362.60879 C 504.45052,362.78629 504.66302,363.06879 504.66302,363.46004 C 504.66302,363.92004 504.41552,364.23879 504.06052,364.41754 C 504.55677,364.52379 504.84052,364.91379 504.84052,365.40879 C 504.84052,366.01254 504.41552,366.61379 503.56427,366.61379 L 501.58052,366.61379 L 501.58052,362.46754"
           id="path2414"
           style="fill:#231f20;fill-opacity:1;fill-rule:evenodd;stroke:none" />
        <path
           d="M 507.82052,362.46754 L 510.69177,362.46754 L 510.69177,362.92754 L 508.38552,362.92754 L 508.38552,364.23879 L 510.54802,364.23879 L 510.54802,364.70004 L 508.38552,364.70004 L 508.38552,366.15504 L 510.72677,366.15504 L 510.72677,366.61379 L 507.82052,366.61379 L 507.82052,362.46754"
           id="path2416"
           style="fill:#231f20;fill-opacity:1;fill-rule:nonzero;stroke:none" />
        <path
           d="M 514.59052,362.92754 L 513.20802,362.92754 L 513.20802,362.46754 L 516.54052,362.46754 L 516.54052,362.92754 L 515.15927,362.92754 L 515.15927,366.61379 L 514.59052,366.61379 L 514.59052,362.92754"
           id="path2418"
           style="fill:#231f20;fill-opacity:1;fill-rule:nonzero;stroke:none" />
        <path
           d="M 520.97177,364.38129 C 521.46802,364.38129 521.92927,364.23879 521.92927,363.63754 C 521.92927,363.21129 521.71677,362.92754 521.18427,362.92754 L 519.80177,362.92754 L 519.80177,364.38129 L 520.97177,364.38129 z M 519.27052,362.46754 L 521.22052,362.46754 C 522.00052,362.46754 522.46177,362.89254 522.46177,363.53129 C 522.46177,364.02629 522.24802,364.45254 521.75302,364.59379 C 522.24802,364.70004 522.31927,365.05379 522.39052,365.44504 C 522.42677,365.87004 522.39052,366.33129 522.63927,366.61379 L 522.00052,366.61379 C 521.85802,366.43879 521.92927,365.97754 521.85802,365.58629 C 521.78677,365.16129 521.68052,364.84129 521.14927,364.84129 L 519.80177,364.84129 L 519.80177,366.61379 L 519.27052,366.61379 L 519.27052,362.46754"
           id="path2420"
           style="fill:#231f20;fill-opacity:1;fill-rule:evenodd;stroke:none" />
        <path
           d="M 525.54552,362.46754 L 525.54552,366.61492 L 526.07806,366.61492 L 526.07806,362.46754 L 525.54552,362.46754 z"
           id="path2422"
           style="fill:#231f20;fill-opacity:1;fill-rule:nonzero;stroke:none" />
        <path
           d="M 529.30427,362.46754 L 532.17677,362.46754 L 532.17677,362.92754 L 529.83677,362.92754 L 529.83677,364.23879 L 531.99927,364.23879 L 531.99927,364.70004 L 529.83677,364.70004 L 529.83677,366.15504 L 532.17677,366.15504 L 532.17677,366.61379 L 529.30427,366.61379 L 529.30427,362.46754"
           id="path2424"
           style="fill:#231f20;fill-opacity:1;fill-rule:nonzero;stroke:none" />
        <path
           d="M 535.68552,366.15504 L 537.06927,366.15504 C 537.53052,366.15504 537.84927,365.83504 537.84927,365.40879 C 537.84927,364.84129 537.38802,364.70004 536.92552,364.70004 L 535.68552,364.70004 L 535.68552,366.15504 z M 535.68552,364.23879 L 536.78552,364.23879 C 537.42427,364.23879 537.67177,364.02629 537.67177,363.56504 C 537.67177,362.99879 537.24552,362.92754 536.78552,362.92754 L 535.68552,362.92754 L 535.68552,364.23879 z M 535.11927,362.46754 L 536.64302,362.46754 C 536.99802,362.46754 537.49552,362.46754 537.74177,362.60879 C 537.99052,362.78629 538.20302,363.06879 538.20302,363.46004 C 538.20302,363.92004 537.99052,364.23879 537.60052,364.41754 C 538.09677,364.52379 538.38177,364.91379 538.38177,365.40879 C 538.38177,366.01254 537.95552,366.61379 537.13927,366.61379 L 535.11927,366.61379 L 535.11927,362.46754"
           id="path2426"
           style="fill:#231f20;fill-opacity:1;fill-rule:evenodd;stroke:none" />
        <path
           d="M 481.05052,363.60129 C 481.05052,363.35379 480.83677,363.24754 480.51802,363.24754 L 479.66677,363.24754 L 479.66677,364.06254 L 480.51802,364.06254 C 480.83677,364.06254 481.05052,363.95504 481.05052,363.60129"
           id="path2428"
           style="fill:#007dc2;fill-opacity:1;fill-rule:nonzero;stroke:none" />
        <path
           d="M 491.04802,367.39504 C 490.48052,367.39504 488.77927,367.18379 488.74427,365.48004 L 490.37552,365.48004 C 490.37552,365.62254 490.41052,365.72754 490.44677,365.83504 C 490.55302,366.15504 490.90677,366.22504 491.19052,366.22504 C 491.47427,366.22504 491.86427,366.11879 491.86427,365.72754 C 491.86427,365.48004 491.65177,365.40879 490.72927,365.12629 C 489.91427,364.91379 488.95677,364.66504 488.95677,363.60129 C 488.95677,362.39629 489.98552,361.86379 491.08427,361.86379 C 492.21927,361.86379 493.21177,362.32504 493.28177,363.60129 L 491.75802,363.60129 C 491.75802,363.38879 491.68677,363.24754 491.54552,363.17629 C 491.40302,363.06879 491.22552,363.03379 491.08427,363.03379 C 490.83552,363.03379 490.48052,363.10379 490.48052,363.38879 C 490.51677,363.77879 491.26177,363.85004 492.00677,364.06254 C 492.75052,364.27504 493.49552,364.59379 493.49552,365.58629 C 493.49552,366.93379 492.21927,367.39504 491.04802,367.39504 z M 488.28302,365.23254 C 488.28302,366.68629 487.46802,367.39504 485.87302,367.39504 C 484.27677,367.39504 483.46177,366.68629 483.46177,365.23254 L 483.46177,362.00629 L 485.09177,362.00629 L 485.09177,364.87879 C 485.09177,365.40879 485.09177,366.08379 485.87302,366.08379 C 486.65177,366.08379 486.65177,365.40879 486.65177,364.87879 L 486.65177,362.00629 L 488.28302,362.00629 L 488.28302,365.23254 z M 488.03552,346.22879 L 471.12427,362.00629 L 480.90802,362.00629 C 482.29052,362.00629 482.61052,362.78629 482.61052,363.31879 C 482.61052,363.85004 482.32677,364.13379 481.93677,364.34629 C 482.43302,364.52379 482.85802,364.87879 482.85802,365.65754 C 482.85802,366.72129 481.93677,367.25379 481.01552,367.25379 L 465.48427,367.25379 L 453.14677,378.77629 L 466.23052,392.78129 L 501.11802,360.26879 L 488.03552,346.22879"
           id="path2430"
           style="fill:#007dc2;fill-opacity:1;fill-rule:evenodd;stroke:none" />
        <path
           d="M 479.66677,366.01254 L 480.62552,366.01254 C 480.94427,366.01254 481.22677,365.90629 481.22677,365.51629 C 481.22677,365.19754 481.05052,365.01879 480.66052,365.01879 L 479.66677,365.01879 L 479.66677,366.01254"
           id="path2432"
           style="fill:#007dc2;fill-opacity:1;fill-rule:nonzero;stroke:none" />
        <path
           d="M 506.93177,371.18879 C 506.93177,372.50004 507.82052,373.45754 509.13052,373.45754 C 510.47927,373.45754 511.36427,372.50004 511.36427,371.18879 C 511.36427,369.84129 510.47927,368.88379 509.13052,368.88379 C 507.82052,368.88379 506.93177,369.84129 506.93177,371.18879 z M 508.27927,371.18879 C 508.27927,370.19629 508.81177,369.98379 509.13052,369.98379 C 509.48552,369.98379 510.01802,370.19629 510.01802,371.18879 C 510.01802,372.14629 509.48552,372.39379 509.13052,372.39379 C 508.81177,372.39379 508.27927,372.14629 508.27927,371.18879"
           id="path2434"
           style="fill:#007dc2;fill-opacity:1;fill-rule:evenodd;stroke:none" />
        <path
           d="M 513.95302,368.99129 L 515.30052,368.99129 L 515.30052,372.25379 L 517.24927,372.25379 L 517.24927,373.38629 L 513.95302,373.38629 L 513.95302,368.99129"
           id="path2436"
           style="fill:#007dc2;fill-opacity:1;fill-rule:nonzero;stroke:none" />
        <path
           d="M 520.15677,370.09004 L 518.91552,370.09004 L 518.91552,368.99129 L 522.74427,368.99129 L 522.74427,370.09004 L 521.50427,370.09004 L 521.50427,373.38629 L 520.15677,373.38629 L 520.15677,370.09004"
           id="path2438"
           style="fill:#007dc2;fill-opacity:1;fill-rule:nonzero;stroke:none" />
        <path
           d="M 525.26177,368.99129 L 528.87927,368.99129 L 528.87927,370.09004 L 526.61052,370.09004 L 526.61052,370.65754 L 528.66677,370.65754 L 528.66677,371.68504 L 526.61052,371.68504 L 526.61052,372.25379 L 528.95052,372.25379 L 528.95052,373.38629 L 525.26177,373.38629 L 525.26177,368.99129"
           id="path2440"
           style="fill:#007dc2;fill-opacity:1;fill-rule:nonzero;stroke:none" />
        <path
           d="M 531.60927,368.99129 L 532.99177,368.99129 L 534.26677,371.33129 L 534.26677,368.99129 L 535.54427,368.99129 L 535.54427,373.38629 L 534.23302,373.38629 L 532.88552,370.97629 L 532.88552,373.38629 L 531.60927,373.38629 L 531.60927,368.99129"
           id="path2442"
           style="fill:#007dc2;fill-opacity:1;fill-rule:nonzero;stroke:none" />
        <path
           d="M 544.94052,372.92504 C 544.62052,373.31629 544.16052,373.49379 543.69802,373.49379 C 542.38802,373.49379 541.57177,372.46504 541.57177,371.22379 C 541.57177,369.55879 542.77802,368.88379 543.76927,368.88379 C 544.86927,368.88379 545.57802,369.48754 545.79052,370.51629 L 544.47927,370.51629 C 544.44302,370.19629 544.16052,369.98379 543.84052,369.98379 C 542.91927,369.98379 542.95427,370.94004 542.95427,371.25879 C 542.95427,371.68504 543.09552,372.39379 543.94802,372.39379 C 544.23052,372.39379 544.54927,372.21754 544.62052,371.89754 L 544.05427,371.89754 L 544.05427,370.97629 L 545.82677,370.97629 L 545.82677,373.38629 L 544.97552,373.38629 L 544.94052,372.92504"
           id="path2444"
           style="fill:#007dc2;fill-opacity:1;fill-rule:nonzero;stroke:none" />
        <path
           d="M 548.37927,371.18879 C 548.37927,372.53629 549.26552,373.49379 550.61302,373.49379 C 551.96052,373.49379 552.84677,372.53629 552.84677,371.18879 C 552.84677,369.84129 551.96052,368.88379 550.61302,368.88379 C 549.26552,368.88379 548.37927,369.84129 548.37927,371.18879 z M 549.40677,367.85629 L 549.40677,368.63642 L 550.43427,368.63642 L 550.43427,367.85629 L 549.40677,367.85629 z M 550.79052,367.85629 L 550.79052,368.63642 L 551.85427,368.63642 L 551.85427,367.85629 L 550.79052,367.85629 z M 549.72677,371.18879 C 549.72677,370.19629 550.25802,369.98379 550.61302,369.98379 C 550.96802,369.98379 551.49927,370.19629 551.49927,371.18879 C 551.49927,372.14629 550.96802,372.39379 550.61302,372.39379 C 550.25802,372.39379 549.72677,372.14629 549.72677,371.18879"
           id="path2446"
           style="fill:#007dc2;fill-opacity:1;fill-rule:evenodd;stroke:none" />
        <path
           d="M 556.49927,371.89754 C 556.49927,372.00379 556.53302,372.11004 556.53302,372.18254 C 556.64052,372.46504 556.95927,372.50004 557.20677,372.50004 C 557.41927,372.50004 557.73927,372.43004 557.73927,372.11004 C 557.73927,371.89754 557.56177,371.82629 556.81802,371.61379 C 556.10802,371.40254 555.32927,371.22379 555.32927,370.33879 C 555.32927,369.31004 556.17927,368.88379 557.10177,368.88379 C 558.05927,368.88379 558.87427,369.23879 558.90802,370.30379 L 557.63427,370.30379 C 557.66802,370.16004 557.59802,370.05379 557.49052,369.98379 C 557.38427,369.87754 557.20677,369.84129 557.06552,369.84129 C 556.88677,369.84129 556.60427,369.91254 556.60427,370.16004 C 556.60427,370.47879 557.24177,370.51629 557.88052,370.69379 C 558.48427,370.87004 559.12177,371.15254 559.12177,371.96879 C 559.12177,373.10379 558.05927,373.49379 557.06552,373.49379 C 556.56927,373.49379 555.15177,373.31629 555.15177,371.89754 L 556.49927,371.89754"
           id="path2448"
           style="fill:#007dc2;fill-opacity:1;fill-rule:nonzero;stroke:none" />
        <path
           d="M 564.75802,372.92504 C 564.44052,373.31629 563.97927,373.49379 563.51802,373.49379 C 562.20677,373.49379 561.39177,372.46504 561.39177,371.22379 C 561.39177,369.55879 562.59677,368.88379 563.58927,368.88379 C 564.68677,368.88379 565.39677,369.48754 565.61052,370.51629 L 564.29802,370.51629 C 564.26427,370.19629 563.97927,369.98379 563.65927,369.98379 C 562.73802,369.98379 562.77302,370.94004 562.77302,371.25879 C 562.77302,371.68504 562.91427,372.39379 563.76677,372.39379 C 564.05052,372.39379 564.37052,372.21754 564.44052,371.89754 L 563.87177,371.89754 L 563.87177,370.97629 L 565.64427,370.97629 L 565.64427,373.38629 L 564.79427,373.38629 L 564.75802,372.92504"
           id="path2450"
           style="fill:#007dc2;fill-opacity:1;fill-rule:nonzero;stroke:none" />
        <path
           d="M 568.33927,368.99129 L 571.95552,368.99129 L 571.95552,370.12504 L 569.68677,370.12504 L 569.68677,370.65754 L 571.74302,370.65754 L 571.74302,371.72129 L 569.68677,371.72129 L 569.68677,372.25379 L 572.02677,372.25379 L 572.02677,373.38629 L 568.33927,373.38629 L 568.33927,368.99129"
           id="path2452"
           style="fill:#007dc2;fill-opacity:1;fill-rule:nonzero;stroke:none" />
        <path
           d="M 574.68677,368.99129 L 576.06927,368.99129 L 577.34552,371.33129 L 577.34552,368.99129 L 578.62302,368.99129 L 578.62302,373.38629 L 577.31052,373.38629 L 575.96302,370.97629 L 575.96302,373.38629 L 574.68677,373.38629 L 574.68677,368.99129"
           id="path2454"
           style="fill:#007dc2;fill-opacity:1;fill-rule:nonzero;stroke:none" />
        <path
           d="M 587.80552,372.92504 C 587.48677,373.31629 587.02427,373.49379 586.56427,373.49379 C 585.25177,373.49379 584.47302,372.46504 584.47302,371.22379 C 584.47302,369.55879 585.64177,368.88379 586.63552,368.88379 C 587.73302,368.88379 588.44177,369.48754 588.65552,370.51629 L 587.34427,370.51629 C 587.30927,370.19629 587.02427,369.98379 586.70802,369.98379 C 585.78302,369.98379 585.82052,370.97629 585.82052,371.25879 C 585.82052,371.68504 585.96052,372.39379 586.81177,372.39379 C 587.09552,372.39379 587.44927,372.21754 587.48677,371.89754 L 586.91802,371.89754 L 586.91802,370.97629 L 588.69177,370.97629 L 588.69177,373.38629 L 587.84177,373.38629 L 587.80552,372.92504"
           id="path2456"
           style="fill:#007dc2;fill-opacity:1;fill-rule:nonzero;stroke:none" />
        <path
           d="M 590.81802,373.38629 L 592.20177,373.38629 L 592.38052,372.74879 L 593.79802,372.74879 L 593.97427,373.38629 L 595.35677,373.38629 L 593.76052,368.99129 L 592.44927,368.99129 L 590.81802,373.38629 z M 591.88302,367.85629 L 591.88302,368.63642 L 592.91302,368.63642 L 592.91302,367.85629 L 591.88302,367.85629 z M 593.26552,367.85629 L 593.26552,368.63642 L 594.32802,368.63642 L 594.32802,367.85629 L 593.26552,367.85629 z M 592.66177,371.82629 L 593.08802,370.44504 L 593.12302,370.44504 L 593.51177,371.82629 L 592.66177,371.82629"
           id="path2458"
           style="fill:#007dc2;fill-opacity:1;fill-rule:evenodd;stroke:none" />
        <path
           d="M 601.52552,371.68504 C 601.52552,372.89129 600.85302,373.49379 599.50552,373.49379 C 598.15927,373.49379 597.51927,372.89129 597.51927,371.68504 L 597.51927,368.99129 L 598.86677,368.99129 L 598.86677,371.36504 C 598.86677,371.82629 598.86677,372.39379 599.50552,372.39379 C 600.14427,372.39379 600.14427,371.82629 600.14427,371.36504 L 600.14427,368.99129 L 601.52552,368.99129 L 601.52552,371.68504"
           id="path2460"
           style="fill:#007dc2;fill-opacity:1;fill-rule:nonzero;stroke:none" />
      </g>
    </g>
  </g>
</svg>
