<?xml version="1.0" encoding="UTF-8"?>
<svg width="282px" height="282px" viewBox="0 0 282 282" version="1.1" xmlns="http://www.w3.org/2000/svg" xmlns:xlink="http://www.w3.org/1999/xlink">
    <!-- Generator: Sketch 54.1 (76490) - https://sketchapp.com -->
    <title>Logo</title>
    <desc>Created with Sketch.</desc>
    <g id="Logo" stroke="none" stroke-width="1" fill="none" fill-rule="evenodd">
        <g id="Logo_Alliance_SwissPass_RGB" transform="translate(1.000000, 1.000000)" fill-rule="nonzero">
            <g>
                <path d="M281,247.000461 C281,265.700194 265.700238,281 247.000504,281 L33.9995189,281 C15.2997847,281 0,265.700194 0,247.000461 L0,33.9995162 C0,15.2997835 15.2997847,0 33.9995189,0 L247.000504,0 C265.700238,0 281,15.2997835 281,33.9995162 L281,247.000461 Z" id="Path" fill="#C51416"></path>
                <g id="Group" transform="translate(16.000000, 50.000000)" fill="#FFFFFF">
                    <g transform="translate(57.000000, 63.000000)">
                        <polygon id="Path" points="178.113617 70.6076661 171.027756 70.6076661 171.027756 63.5392455 164.975616 63.5392455 164.975616 70.6076661 157.901382 70.6076661 157.901382 76.6714326 164.975616 76.6714326 164.975616 83.7456666 171.027756 83.7456666 171.027756 76.6714326 178.113617 76.6714326"></polygon>
                        <g>
                            <path d="M6.8154526,42.7384644 C7.6866454,44.5224609 8.8761673,45.9471132 10.3948441,47.0069733 C11.9141389,48.0668793 13.7095795,48.8259429 15.788353,49.2853089 C17.8605118,49.7447205 20.0743486,49.9744263 22.4413072,49.9744263 C23.7954178,49.9744263 25.2670822,49.7796936 26.8569184,49.3914186 C28.4467774,49.0085907 29.9304811,48.3906099 31.3081207,47.5483704 C32.6796721,46.7067261 33.8282014,45.6172944 34.7403868,44.2927551 C35.6531677,42.9681702 36.1125793,41.3608704 36.1125793,39.4822539 C36.1125793,38.0340726 35.7888031,36.780075 35.1352996,35.720169 C34.487152,34.660263 33.639511,33.765564 32.603134,33.0415191 C31.5673522,32.3174286 30.4248655,31.7283783 29.170822,31.2690123 C27.9168241,30.8101959 26.6863327,30.4388121 25.4793013,30.1506042 L13.9748533,27.324234 C12.4790647,26.9414061 11.0194624,26.4591063 9.6002578,25.8820953 C8.1755827,25.2991332 6.9330292,24.5280303 5.8731232,23.5621947 C4.8138352,22.6023558 3.9541093,21.4188993 3.3066025,20.0177307 C2.6585008,18.62265 2.3293456,16.9091493 2.3293456,14.8837737 C2.3293456,13.6297302 2.5704955,12.157791 3.0533905,10.4680479 C3.5302888,8.7841641 4.4370271,7.1886291 5.7676315,5.693115 C7.0922164,4.203552 8.9117356,2.9318844 11.2310638,1.8955992 C13.5389479,0.8594055 16.5064009,0.3412626 20.1274033,0.3412626 C22.6824799,0.3412626 25.1145553,0.6768492 27.4339294,1.3539732 C29.7477874,2.0310057 31.7729338,3.0437163 33.5098723,4.3919676 C35.2468108,5.7461241 36.6304474,7.4182431 37.6668241,9.4200438 C38.7032008,11.4218445 39.2271574,13.7533719 39.2271574,16.4027709 L34.3105009,16.4027709 C34.2104794,14.4245451 33.7631071,12.699417 32.9685208,11.2275237 C32.1732481,9.7615356 31.1314693,8.5310211 29.8599394,7.5418854 C28.5763702,6.5527497 27.1041106,5.8050384 25.443733,5.2986603 C23.7833554,4.7923278 22.0289305,4.5391845 20.1979444,4.5391845 C18.5080183,4.5391845 16.8832549,4.7158356 15.317497,5.0808105 C13.751167,5.439972 12.373573,6.0228423 11.1960904,6.8177031 C10.0065916,7.6125183 9.0588376,8.6605224 8.3341747,9.9616698 C7.6100842,11.2687683 7.2513577,12.881973 7.2513577,14.8131408 C7.2513577,16.0201263 7.451515,17.0680845 7.8632962,17.9571075 C8.2756726,18.8523558 8.8406215,19.6114197 9.5646664,20.2353972 C10.2893521,20.8654173 11.1195523,21.3718413 12.0552211,21.7547148 C12.9975505,22.1435394 13.9983592,22.4552763 15.0582424,22.6964262 L27.65155,25.8055572 C29.4831541,26.2884522 31.2080533,26.882904 32.8267972,27.5774688 C34.4401396,28.2780303 35.8653868,29.1497955 37.0898587,30.1855773 C38.3264158,31.2219543 39.2856136,32.4880371 39.986221,33.9832305 C40.6813351,35.4790191 41.034637,37.286499 41.034637,39.4117125 C41.034637,39.9886779 40.9755397,40.7597808 40.8579859,41.7256164 C40.7343898,42.691452 40.4455867,43.7157897 39.9862207,44.7991791 C39.5273584,45.8825685 38.8798516,46.9834899 38.0316157,48.0904083 C37.1839288,49.2027282 36.0299983,50.2035369 34.5583339,51.0927888 C33.0860287,51.9874878 31.2671047,52.7121735 29.0942836,53.2656555 C26.927482,53.8190919 24.3253702,54.0958098 21.2873758,54.0958098 C18.2493814,54.0958098 15.4230112,53.7479553 12.8208994,53.0473938 C10.2181924,52.3468323 7.9929118,51.2754822 6.1679452,49.826706 C4.3309624,48.3785706 2.9177317,46.5240783 1.9283899,44.2571871 C0.9396433,41.9902956 0.5212243,39.2645877 0.6689446,36.0795138 L5.5849831,36.0795138 C5.5319062,38.7346344 5.9442826,40.9545135 6.8154526,42.7384644 Z" id="Path"></path>
                            <polygon id="Path" points="49.4305267 15.7492677 58.9797973 47.7310641 59.1214753 47.7310641 68.2354585 15.7492677 73.3751374 15.7492677 82.4897155 47.7310641 82.6368406 47.7310641 92.1867064 15.7492677 97.0322263 15.7492677 85.0273282 53.0829621 80.0341336 53.0829621 70.8436123 21.6841737 70.6964872 21.6841737 61.582504 53.0829621 56.5899502 53.0829621 44.5790554 15.7492677"></polygon>
                            <path d="M106.870254,1.4246064 L106.870254,8.7312012 L102.312942,8.7312012 L102.312942,1.4246064 L106.870254,1.4246064 Z M106.870254,15.7492677 L106.870254,53.0829621 L102.312942,53.0829621 L102.312942,15.7492677 L106.870254,15.7492677 Z" id="Shape"></path>
                            <path d="M137.474457,23.020752 C136.944504,21.984375 136.231857,21.1306917 135.343201,20.4536592 C134.447907,19.7765811 133.423569,19.2876435 132.263596,18.9699099 C131.103623,18.6576234 129.87915,18.4988253 128.572052,18.4988253 C127.559204,18.4988253 126.534912,18.6106113 125.49849,18.8282319 C124.462753,19.040451 123.508957,19.4051973 122.643234,19.9116213 C121.778061,20.4180909 121.071457,21.0836793 120.541504,21.9017946 C120.011551,22.7205507 119.75232,23.7328035 119.75232,24.939789 C119.75232,25.952637 119.999512,26.8124085 120.505936,27.5069277 C121.01236,28.2074892 121.653824,28.7964936 122.425568,29.2788393 C123.196671,29.7617343 124.03891,30.1620942 124.957092,30.4743807 C125.87532,30.786072 126.71756,31.0393068 127.488663,31.2340395 L133.564652,32.6055909 C134.87175,32.7997284 136.155319,33.1530306 137.438843,33.6594543 C138.710419,34.1659239 139.846817,34.82547 140.836182,35.6496276 C141.824951,36.4677429 142.631622,37.4806365 143.261643,38.687622 C143.88562,39.8946075 144.197907,41.3132172 144.197907,42.9561309 C144.197907,44.9812317 143.738541,46.7067261 142.826355,48.1253355 C141.913574,49.5499875 140.736115,50.7099606 139.316864,51.5992581 C137.898255,52.4939571 136.290955,53.1299739 134.506958,53.5188444 C132.723007,53.9010771 130.96254,54.0958098 129.225601,54.0958098 C124.839539,54.0958098 121.277039,53.0594328 118.551331,50.9866788 C115.83107,48.9145659 114.276825,45.5817258 113.88855,41.0015256 L118.445221,41.0015256 C118.633957,44.086578 119.758362,46.4179686 121.812988,47.9842983 C123.862259,49.5499875 126.405319,50.3331753 129.443268,50.3331753 C130.550186,50.3331753 131.692673,50.2155759 132.882172,49.974426 C134.059632,49.7326809 135.154511,49.3208769 136.167359,48.7439115 C137.179611,48.1609038 138.015854,47.4308163 138.663361,46.5355221 C139.316864,45.6408231 139.64064,44.545944 139.64064,43.2449337 C139.64064,42.131973 139.416977,41.207748 138.958161,40.4595333 C138.498749,39.7119594 137.886215,39.0819393 137.10907,38.5754697 C136.337967,38.0696409 135.4608,37.6512447 134.47139,37.3100277 C133.482666,36.9742122 132.481262,36.6860043 131.469009,36.4442592 L125.604599,35.1432033 C124.109451,34.7543331 122.737259,34.3069605 121.483215,33.8005368 C120.229217,33.294708 119.134384,32.6701353 118.192032,31.9225155 C117.256317,31.1749416 116.514144,30.2567136 115.984191,29.1733242 C115.454284,28.0838925 115.189605,26.7472683 115.189605,25.1580501 C115.189605,23.2739865 115.607452,21.6606441 116.455093,20.3119809 C117.303329,18.9578703 118.398208,17.8747098 119.752319,17.05632 C121.09494,16.232025 122.602218,15.6314847 124.274017,15.2429349 C125.934417,14.8601988 127.582733,14.6659695 129.225601,14.6659695 C131.103622,14.6659695 132.858047,14.9073024 134.471389,15.3901059 C136.084777,15.8729091 137.509384,16.6206204 138.739898,17.6332851 C139.970459,18.6461787 140.947738,19.9001766 141.666381,21.39537 C142.396469,22.8911586 142.802826,24.6516261 142.902893,26.6767269 L138.345627,26.6767269 C138.292572,25.2756042 138.004364,24.0625764 137.474457,23.020752 Z" id="Path"></path>
                            <path d="M172.63533,23.020752 C172.105377,21.984375 171.392731,21.1306917 170.504074,20.4536592 C169.608826,19.7765811 168.584442,19.2876435 167.424469,18.9699099 C166.265137,18.6576234 165.040024,18.4988253 163.732971,18.4988253 C162.720672,18.4988253 161.695785,18.6106113 160.660004,18.8282319 C159.623627,19.040451 158.66983,19.4051973 157.804108,19.9116213 C156.938934,20.4180909 156.23233,21.0836793 155.702377,21.9017946 C155.172424,22.7205507 154.913193,23.7328035 154.913193,24.939789 C154.913193,25.952637 155.16098,26.8124085 155.666809,27.5069277 C156.173233,28.2074892 156.815384,28.7964936 157.586441,29.2788393 C158.357544,29.7617343 159.199783,30.1620942 160.118011,30.4743807 C161.036789,30.786072 161.878433,31.0393068 162.650177,31.2340395 L168.72612,32.6055909 C170.033218,32.7997284 171.316787,33.1530306 172.599762,33.6594543 C173.871841,34.1659239 175.008331,34.82547 175.997055,35.6496276 C176.986419,36.4677429 177.793091,37.4806365 178.423157,38.687622 C179.047134,39.8946075 179.358825,41.3132172 179.358825,42.9561309 C179.358825,44.9812317 178.900009,46.7067261 177.987228,48.1253355 C177.074447,49.5499875 175.897033,50.7099606 174.478378,51.5992581 C173.059173,52.4939571 171.451828,53.1299739 169.667877,53.5188444 C167.88388,53.9010771 166.123458,54.0958098 164.386474,54.0958098 C160.000412,54.0958098 156.438507,53.0594328 153.712204,50.9866788 C150.992584,48.9145659 149.437698,45.5817258 149.049423,41.0015256 L153.606735,41.0015256 C153.794876,44.086578 154.919235,46.4179686 156.973907,47.9842983 C159.023132,49.5499875 161.566741,50.3331753 164.604782,50.3331753 C165.711654,50.3331753 166.853591,50.2155759 168.043044,49.974426 C169.220504,49.7326809 170.315383,49.3208769 171.328231,48.7439115 C172.341125,48.1609038 173.176727,47.4308163 173.824829,46.5355221 C174.478378,45.6408231 174.802108,44.545944 174.802108,43.2449337 C174.802108,42.131973 174.578445,41.207748 174.119033,40.4595333 C173.659622,39.7119594 173.047683,39.0819393 172.270583,38.5754697 C171.49884,38.0696409 170.621673,37.6512447 169.632903,37.3100277 C168.643539,36.9742122 167.64273,36.6860043 166.629882,36.4442592 L160.766113,35.1432033 C159.270324,34.7543331 157.898727,34.3069605 156.644729,33.8005368 C155.39009,33.294708 154.295257,32.6701353 153.3535,31.9225155 C152.41719,31.1749416 151.675018,30.2567136 151.14511,29.1733242 C150.615752,28.0838925 150.350478,26.7472683 150.350478,25.1580501 C150.350478,23.2739865 150.768325,21.6606441 151.616561,20.3119809 C152.464248,18.9578703 153.559081,17.8747098 154.913192,17.05632 C156.255859,16.232025 157.763091,15.6314847 159.43489,15.2429349 C161.095291,14.8601988 162.744201,14.6659695 164.386474,14.6659695 C166.265136,14.6659695 168.019562,14.9073024 169.632904,15.3901059 C171.245651,15.8729091 172.670898,16.6206204 173.901413,17.6332851 C175.131927,18.6461787 176.109207,19.9001766 176.827255,21.39537 C177.557342,22.8911586 177.963699,24.6516261 178.063812,26.6767269 L173.5065,26.6767269 C173.453445,25.2756042 173.165283,24.0625764 172.63533,23.020752 Z" id="Path"></path>
                        </g>
                        <g transform="translate(0.000000, 63.000000)">
                            <path d="M0.6400372,0.7523805 L23.4312895,0.7523805 C27.099304,0.7523805 30.090286,1.2881013 32.4035947,2.3479617 C34.7174986,3.4077303 36.5014492,4.732407 37.755493,6.3279423 C39.0094909,7.9176183 39.8632201,9.6545109 40.3226317,11.5326237 C40.7819974,13.4166873 41.0117035,15.1535802 41.0117035,16.7432103 C41.0117035,18.3326574 40.7819977,20.0581518 40.3226317,21.9186864 C39.8632201,23.7731787 39.0094909,25.4980779 37.755493,27.087891 C36.5014495,28.6831515 34.7174986,29.9962467 32.4035947,31.0326237 C30.090286,32.0690007 27.099304,32.5869144 23.4312895,32.5869144 L9.683479,32.5869144 L9.683479,52.4107365 L0.6400372,52.4107365 L0.6400372,0.7523805 L0.6400372,0.7523805 Z M9.683479,25.2098694 L22.9248427,25.2098694 C23.9371183,25.2098694 24.9734953,25.0627443 26.039398,24.7739868 C27.099304,24.4857789 28.0765837,24.014328 28.9652404,23.3607789 C29.8545379,22.7132721 30.5846251,21.8421021 31.1381071,20.758713 C31.6915435,19.675278 31.9683073,18.3091281 31.9683073,16.6725771 C31.9683073,14.982834 31.7265166,13.5874332 31.2442168,12.4746552 C30.7612762,11.3678283 30.1137694,10.4846193 29.2890166,9.8369751 C28.4709013,9.1834716 27.5345917,8.7360534 26.4692611,8.494629 C25.4093779,8.2532502 24.2729338,8.1355134 23.071945,8.1355134 L9.683479,8.1355134 L9.683479,25.2098694 L9.683479,25.2098694 Z" id="Shape"></path>
                            <path d="M76.6024627,44.0913849 C76.6024627,45.1042329 76.7380981,45.8283234 77.0028229,46.264206 C77.2674562,46.6934511 77.7859651,46.9117128 78.557068,46.9117128 C78.7988131,46.9117128 79.087021,46.9117128 79.428238,46.9117128 C79.7640991,46.9117128 80.1468811,46.8647004 80.5828096,46.7700348 L80.5828096,52.4812776 C80.2940065,52.5813447 79.9232179,52.6874544 79.4638063,52.8110505 C79.0044406,52.9286043 78.533539,53.0347137 78.050644,53.1347811 C77.5682983,53.2288515 77.0854036,53.2993929 76.6024627,53.3524476 C76.1195677,53.39946 75.7132111,53.4235842 75.3779908,53.4235842 C73.6820221,53.4235842 72.2869417,53.0877687 71.1800233,52.4107362 C70.0670626,51.7336581 69.3490144,50.5561983 69.0072022,48.8663178 C67.3703308,50.4561309 65.3572693,51.6161043 62.9667817,52.3401948 C60.5762941,53.0642853 58.2798769,53.4235842 56.054596,53.4235842 C54.3706666,53.4235842 52.7573242,53.1938784 51.2151184,52.7344668 C49.6662751,52.2810978 48.3061675,51.6040653 47.1226654,50.709366 C45.9398041,49.8200685 44.9974519,48.6836244 44.3029327,47.3120271 C43.6024171,45.9344331 43.2545167,44.3325348 43.2545167,42.5015259 C43.2545167,40.1821746 43.6789552,38.3035584 44.5205536,36.855423 C45.3628387,35.4072417 46.4691163,34.2768402 47.8473511,33.4580841 C49.224991,32.6339265 50.7671968,32.045517 52.4745637,31.6801299 C54.1880188,31.3208313 55.9135132,31.0441131 57.6498568,30.8499756 C59.1455995,30.5617677 60.5642551,30.3555909 61.9183657,30.2380371 C63.2730256,30.1138458 64.4619754,29.9082183 65.4983524,29.6194611 C66.5347294,29.3312532 67.358887,28.8833313 67.9593814,28.2828369 C68.5598299,27.6823425 68.8661197,26.7756042 68.8661197,25.5686187 C68.8661197,24.5093079 68.6068423,23.6435394 68.1004183,22.9665069 C67.5945895,22.2894288 66.9700168,21.7715607 66.222397,21.4122162 C65.4748231,21.046875 64.6386262,20.8057251 63.7264405,20.6881713 C62.8136596,20.5645752 61.9424896,20.5054779 61.1237335,20.5054779 C58.8098296,20.5054779 56.9022826,20.9884185 55.4070892,21.9536133 C53.9113006,22.9194945 53.063614,24.4146423 52.8749236,26.4403839 L44.626663,26.4403839 C44.7737881,24.0263673 45.3507994,22.0241547 46.3636474,20.4349365 C47.3759002,18.8390808 48.6654661,17.5615998 50.2372435,16.5960387 C51.8035735,15.6363828 53.5700377,14.9592588 55.5481261,14.570709 C57.5262604,14.1879729 59.5519561,13.993698 61.6301575,13.993698 C63.4611664,13.993698 65.274643,14.1879729 67.0525972,14.570709 C68.8425904,14.9592588 70.4438935,15.5833737 71.8685458,16.454727 C73.2877504,17.3202207 74.4356845,18.4447629 75.3074497,19.8163602 C76.172623,21.194595 76.602463,22.8664395 76.602463,24.8445279 L76.602463,44.0913849 L76.6024627,44.0913849 Z M68.3596954,33.6703032 C67.0996093,34.4944608 65.5574035,34.9888458 63.7264405,35.1540525 C61.8948364,35.324661 60.058426,35.5778502 58.2328186,35.9136654 C57.3616486,36.0607905 56.5139617,36.2669673 55.7012938,36.5316465 C54.8771362,36.7963254 54.1530913,37.1556699 53.5230253,37.6150359 C52.8990475,38.0744475 52.404022,38.6749419 52.039276,39.4225614 C51.6859741,40.1701353 51.4972837,41.0768736 51.4972837,42.1367796 C51.4972837,43.0550076 51.7686001,43.8267057 52.2979123,44.4506835 C52.8278653,45.0807036 53.463928,45.5750883 54.2175442,45.9344328 C54.9597163,46.2991788 55.7838742,46.552368 56.6725309,46.6934508 C57.5618284,46.8411711 58.3744963,46.9117125 59.0985868,46.9117125 C60.0107725,46.9117125 61.0001371,46.7935638 62.0599972,46.552368 C63.1199032,46.3112181 64.1267545,45.8988645 65.0624233,45.3218535 C66.0047755,44.7388914 66.7933651,44.0087583 67.4179378,43.1140593 C68.0419612,42.2248077 68.3596951,41.1239316 68.3596951,39.8228757 L68.3596954,33.6703032 L68.3596954,33.6703032 Z" id="Shape"></path>
                            <path d="M92.0160979,40.3998414 C92.257843,42.8138124 93.1700287,44.5037385 94.76593,45.4629366 C96.3611905,46.4287722 98.2632901,46.9117128 100.482574,46.9117128 C101.24823,46.9117128 102.131531,46.8526155 103.120254,46.7290194 C104.109573,46.6114656 105.039841,46.3817598 105.911056,46.0459443 C106.776779,45.7047273 107.48883,45.2103426 108.042266,44.5622406 C108.595748,43.9086915 108.848938,43.0550079 108.801925,41.9951019 C108.748871,40.9297944 108.366043,40.0640259 107.641998,39.3869475 C106.923904,38.7159576 105.993637,38.1685179 104.857193,37.762161 C103.720703,37.3497618 102.437774,37.0025022 100.988998,36.7143399 C99.5408626,36.4194942 98.0685574,36.1078029 96.5734096,35.7719877 C95.030563,35.436813 93.5468593,35.0244138 92.1222073,34.5414732 C90.7035976,34.0585782 89.4254758,33.4050291 88.289581,32.5869138 C87.1531369,31.7687985 86.2524412,30.7203366 85.5753628,29.4428097 C84.9037318,28.1652828 84.5625148,26.5814664 84.5625148,24.7034451 C84.5625148,22.6777035 85.0568539,20.9763333 86.0462641,19.5987393 C87.0355828,18.227142 88.2895807,17.1200406 89.8143457,16.2722622 C91.3336633,15.4302975 93.0175012,14.8356168 94.8774409,14.5000302 C96.7265314,14.1644436 98.5044856,13.9936977 100.188369,13.9936977 C102.119445,13.9936977 103.96849,14.199783 105.722915,14.6118618 C107.48883,15.0181728 109.078643,15.6834408 110.503295,16.5960384 C111.922546,17.5144953 113.106002,18.7094418 114.047714,20.1817011 C114.990066,21.6534114 115.578475,23.4259179 115.82022,25.4980767 L107.206664,25.4980767 C106.823837,23.5199424 105.923095,22.1954034 104.497848,21.518325 C103.073196,20.8412925 101.44841,20.505477 99.611404,20.505477 C99.034393,20.505477 98.3453212,20.5524894 97.5506893,20.6526021 C96.7560574,20.7466269 96.0078883,20.9293203 95.3073268,21.1945944 C94.6067653,21.4592733 94.0183102,21.8421012 93.5354152,22.3485252 C93.0524746,22.854354 92.8113247,23.5199424 92.8113247,24.3381033 C92.8113247,25.3509513 93.1585843,26.1751089 93.8651881,26.7990867 C94.5657496,27.4291527 95.4839779,27.9476157 96.620422,28.3539726 C97.7629087,28.765731 99.0518794,29.1130362 100.506103,29.4017937 C101.954834,29.6959983 103.450027,30.0083307 105.004272,30.343551 C106.500061,30.6853632 107.977768,31.0917198 109.431945,31.5740196 C110.880127,32.0569602 112.175781,32.7105096 113.312179,33.5292198 C114.448028,34.3473807 115.366851,35.3837577 116.067413,36.6377556 C116.767975,37.8917991 117.121277,39.4340049 117.121277,41.2710105 C117.121277,43.4908896 116.614853,45.3689109 115.602005,46.9117119 C114.583709,48.4539177 113.264572,49.7079612 111.645782,50.6737968 C110.026397,51.6396324 108.231002,52.3401939 106.246872,52.7700339 C104.262741,53.2053213 102.308136,53.423583 100.377106,53.423583 C98.0040589,53.423583 95.8197937,53.1583089 93.8121337,52.6283559 C91.8044737,52.0984029 90.0615385,51.2917317 88.5898285,50.2029408 C87.1175689,49.1195058 85.9521943,47.7714375 85.1099092,46.1520528 C84.2683108,44.5387104 83.8209382,42.6196737 83.7678835,40.3998402 L92.0160979,40.3998402 L92.0160979,40.3998414 Z" id="Path"></path>
                            <path d="M129.926804,40.3998414 C130.168549,42.8138124 131.086777,44.5037385 132.67659,45.4629366 C134.265854,46.4287722 136.173996,46.9117128 138.387238,46.9117128 C139.164383,46.9117128 140.047638,46.8526155 141.036957,46.7290194 C142.020279,46.6114656 142.950546,46.3817598 143.81572,46.0459443 C144.687485,45.7047273 145.394089,45.2103426 145.952972,44.5622406 C146.506409,43.9086915 146.759644,43.0550079 146.712631,41.9951019 C146.665573,40.9297944 146.276703,40.0640259 145.558655,39.3869475 C144.828613,38.7159576 143.8983,38.1685179 142.767853,37.762161 C141.637451,37.3497618 140.342438,37.0025022 138.899704,36.7143399 C137.451523,36.4194942 135.979264,36.1078029 134.48407,35.7719877 C132.941269,35.436813 131.457566,35.0244138 130.03891,34.5414732 C128.613709,34.0585782 127.330734,33.4050291 126.200287,32.5869138 C125.069885,31.7687985 124.163101,30.7203366 123.491471,29.4428097 C122.808991,28.1652828 122.479264,26.5814664 122.479264,24.7034451 C122.479264,22.6777035 122.973648,20.9763333 123.962967,19.5987393 C124.945649,18.227142 126.200287,17.1200406 127.71901,16.2722622 C129.238282,15.4302975 130.927613,14.8356168 132.782746,14.5000302 C134.64264,14.1644436 136.40915,13.9936977 138.105073,13.9936977 C140.030106,13.9936977 141.873154,14.199783 143.639069,14.6118618 C145.394089,15.0181728 146.98935,15.6834408 148.408555,16.5960384 C149.833207,17.5144953 151.016709,18.7094418 151.952378,20.1817011 C152.89473,21.6534114 153.48314,23.4259179 153.730927,25.4980767 L145.122773,25.4980767 C144.734498,23.5199424 143.827805,22.1954034 142.403107,21.518325 C140.983902,20.8412925 139.353073,20.505477 137.528107,20.505477 C136.945099,20.505477 136.255982,20.5524894 135.461396,20.6526021 C134.666764,20.7466269 133.918549,20.9293203 133.217987,21.1945944 C132.523514,21.4592733 131.929016,21.8421012 131.446076,22.3485252 C130.963181,22.854354 130.722031,23.5199424 130.722031,24.3381033 C130.722031,25.3509513 131.075287,26.1751089 131.775894,26.7990867 C132.476456,27.4291527 133.394638,27.9476157 134.537171,28.3539726 C135.667572,28.765731 136.962586,29.1130362 138.410721,29.4017937 C139.86554,29.6959983 141.36673,30.0083307 142.908936,30.343551 C144.416168,30.6853632 145.888474,31.0917198 147.336655,31.5740196 C148.790787,32.0569602 150.080399,32.7105096 151.22229,33.5292198 C152.35878,34.3473807 153.277558,35.3837577 153.978119,36.6377556 C154.684723,37.8917991 155.031983,39.4340049 155.031983,41.2710105 C155.031983,43.4908896 154.525559,45.3689109 153.507263,46.9117119 C152.49437,48.4539177 151.175232,49.7079612 149.556488,50.6737968 C147.937104,51.6396324 146.135666,52.3401939 144.157532,52.7700339 C142.173401,53.2053213 140.212799,53.423583 138.281723,53.423583 C135.914765,53.423583 133.724411,53.1583089 131.72284,52.6283559 C129.71518,52.0984029 127.978241,51.2917317 126.50058,50.2029408 C125.022232,49.1195058 123.868302,47.7714375 123.020615,46.1520528 C122.172928,44.5387104 121.725647,42.6196737 121.678589,40.3998402 L129.926804,40.3998402 L129.926804,40.3998414 Z" id="Path"></path>
                        </g>
                    </g>
                    <g>
                        <path d="M27.2365645,0.8038101 L47.5005721,52.4600829 L42.2155303,52.4600829 L35.9130631,36.4000626 L12.3989107,36.4000626 L6.1847461,52.4600829 L0.9774325,52.4600829 L21.7395556,0.8038101 L27.2365645,0.8038101 Z M34.2597352,32.203125 L24.2690431,5.7214278 L13.9250719,32.203125 L34.2597352,32.203125 Z" id="Shape"></path>
                        <polygon id="Path" points="55.965103 0.8038101 55.965103 52.4600829 51.4007644 52.4600829 51.4007644 0.8038101"></polygon>
                        <polygon id="Path" points="69.3472747 0.8038101 69.3472747 52.4600829 64.782913 52.4600829 64.782913 0.8038101"></polygon>
                        <path d="M82.7294236,0.8038101 L82.7294236,8.1095811 L78.165085,8.1095811 L78.165085,0.8038101 L82.7294236,0.8038101 Z M82.7294236,15.125679 L82.7294236,52.4600829 L78.165085,52.4600829 L78.165085,15.125679 L82.7294236,15.125679 Z" id="Shape"></path>
                        <path d="M92.4233704,20.912361 C93.1864624,19.3226163 94.2321319,18.0225675 95.5604707,17.0051193 C96.8888092,15.9947433 98.4432373,15.2457963 100.223755,14.7653274 C102.018372,14.2848816 103.996735,14.0446473 106.158798,14.0446473 C107.798004,14.0446473 109.43721,14.2000809 111.076416,14.5109712 C112.715622,14.8289337 114.199417,15.4153749 115.499466,16.2844392 C116.799515,17.1535035 117.859375,18.3687744 118.678955,19.9373247 C119.498581,21.5058747 119.908371,23.5478211 119.908371,26.0490189 L119.908371,45.8749695 C119.908371,47.712021 120.79863,48.6234741 122.593292,48.6234741 C123.11615,48.6234741 123.596573,48.5316009 124.034653,48.3338013 L124.034653,52.1703645 C123.49765,52.2692871 123.031327,52.3399659 122.621537,52.3894044 C122.211746,52.4388888 121.688889,52.4600832 121.067108,52.4600832 C119.908371,52.4600832 118.975724,52.3046268 118.28331,51.986664 C117.576752,51.6757968 117.039749,51.2306673 116.658203,50.6512758 C116.262558,50.0719302 116.008179,49.3865664 115.895157,48.588135 C115.767944,47.7967989 115.711411,46.9136127 115.711411,45.9456255 L115.570099,45.9456255 C114.750519,47.1538239 113.916794,48.2277834 113.068924,49.1675265 C112.235199,50.1072237 111.288406,50.8915104 110.256836,51.5203401 C109.21112,52.1491701 108.038238,52.6296387 106.7099,52.9687959 C105.381607,53.3008578 103.798889,53.4704592 101.961884,53.4704592 C100.223755,53.4704592 98.5986481,53.2655184 97.0866547,52.8557283 C95.5604707,52.4459382 94.2321319,51.7959138 93.1016389,50.9056551 C91.9711915,50.0153964 91.0809328,48.8778078 90.4308625,47.5071033 C89.7808381,46.1293263 89.4558259,44.5042422 89.4558259,42.6177525 C89.4558259,40.0176321 90.0352174,37.9756854 91.1798098,36.5060352 C92.3385928,35.0364078 93.8788759,33.912987 95.7865603,33.1428456 C97.6801456,32.3727039 99.8280643,31.8286518 102.216217,31.5177618 C104.60437,31.1998221 107.034912,30.8960043 109.493744,30.6133809 C110.454682,30.5144583 111.302506,30.394341 112.023209,30.2459568 C112.743912,30.1046451 113.351547,29.8502889 113.832016,29.4899601 C114.312439,29.1296085 114.693985,28.6350177 114.948365,28.0061877 C115.216843,27.3773577 115.358155,26.5577547 115.358155,25.5473787 C115.358155,24.0000231 115.103775,22.7352906 114.595063,21.7461093 C114.08635,20.756928 113.379792,19.9726413 112.489533,19.3932726 C111.599274,18.8139039 110.567704,18.418236 109.380677,18.1991961 C108.193695,17.9872287 106.936035,17.8741839 105.579407,17.8741839 C102.696686,17.8741839 100.322678,18.5665971 98.4997258,19.9373247 C96.6627202,21.3151017 95.7017827,23.5195542 95.6028601,26.5577547 L91.0384984,26.5577547 C91.1798095,24.3886185 91.6461334,22.5091782 92.4233704,20.912361 Z M115.202698,32.0547408 C114.920074,32.5917204 114.368973,32.9732664 113.549393,33.213501 C112.715622,33.4537353 111.994964,33.6232911 111.373184,33.7222137 C109.43721,34.0613709 107.458847,34.3581162 105.409851,34.6266174 C103.34671,34.8880233 101.481415,35.2907637 99.7998199,35.8206939 C98.1040801,36.350601 96.7192078,37.1136933 95.6311492,38.0958021 C94.5571441,39.0849837 94.0060423,40.4980773 94.0060423,42.328056 C94.0060423,43.4868162 94.2321319,44.5113141 94.6984555,45.4086453 C95.1506803,46.298904 95.7724606,47.0690457 96.535507,47.7190701 C97.312744,48.3690945 98.2030027,48.8707578 99.2204284,49.2028653 C100.223755,49.5419766 101.269424,49.711578 102.329285,49.711578 C104.067413,49.711578 105.734863,49.4430537 107.317535,48.9131466 C108.914352,48.3832395 110.299225,47.6130978 111.486251,46.6027218 C112.659134,45.5852733 113.60588,44.3558805 114.29834,42.9074475 C115.004898,41.4660642 115.358154,39.8268582 115.358154,37.9898067 L115.358154,32.0547405 L115.202698,32.0547405 L115.202698,32.0547408 Z" id="Shape"></path>
                        <path d="M133.516632,15.125679 L133.516632,21.5694579 L133.657944,21.5694579 C134.534058,19.3014219 136.074341,17.4785154 138.292938,16.1007156 C140.511536,14.7300108 142.942078,14.0446473 145.598709,14.0446473 C148.198853,14.0446473 150.38916,14.376732 152.141434,15.0550233 C153.907807,15.7333146 155.320923,16.6801071 156.380738,17.9095002 C157.440598,19.1389161 158.189545,20.6509323 158.627625,22.4314728 C159.05156,24.2190399 159.277649,26.2185975 159.277649,28.4371719 L159.277649,52.4600835 L154.713287,52.4600829 L154.713287,29.1649245 C154.713287,27.5681304 154.571976,26.0914077 154.275208,24.7136307 C153.992584,23.3358537 153.483872,22.1417772 152.763214,21.1314012 C152.042511,20.1210252 151.05333,19.3226166 149.823914,18.7432482 C148.594498,18.1638567 147.06836,17.8741839 145.231308,17.8741839 C143.408402,17.8741839 141.769196,18.1991961 140.356079,18.856293 C138.928864,19.5063174 137.727692,20.3965761 136.738511,21.5270694 C135.749329,22.6646349 134.972138,24.0141453 134.421036,25.5826953 C133.869889,27.1512453 133.559021,28.8469851 133.516632,30.6840366 L133.516632,52.4600835 L128.952271,52.4600835 L128.952271,15.125679 L133.516632,15.125679 Z" id="Path"></path>
                        <path d="M190.74762,20.2623366 C189.05188,18.6725919 186.691971,17.8741836 183.653793,17.8741836 C181.491729,17.8741836 179.584045,18.333435 177.944839,19.2519606 C176.305633,20.1704862 174.934906,21.3716352 173.846802,22.8695295 C172.772842,24.3674238 171.939117,26.0631636 171.388016,27.970848 C170.836868,29.8785552 170.554245,31.8145065 170.554245,33.7928694 C170.554245,35.7712323 170.836868,37.7142561 171.388016,39.6148908 C171.939117,41.522598 172.772842,43.2253872 173.846802,44.7162093 C174.934906,46.2141264 176.305633,47.4223251 177.944839,48.3338013 C179.584045,49.2523041 181.49173,49.7115783 183.653793,49.7115783 C185.052765,49.7115783 186.381103,49.443054 187.638763,48.9131469 C188.882324,48.3832398 189.998673,47.6484144 190.959564,46.7086944 C191.920502,45.7689972 192.725983,44.6455536 193.347717,43.3455048 C193.983642,42.0383835 194.365188,40.6181946 194.5065,39.0779115 L199.070816,39.0779115 C198.434937,43.6069338 196.781586,47.139702 194.06842,49.6762392 C191.3694,52.2057039 187.893143,53.4704592 183.653793,53.4704592 C180.813461,53.4704592 178.283996,52.9546512 176.093643,51.9160311 C173.903336,50.8773654 172.052139,49.4713443 170.554245,47.6837541 C169.070496,45.9032364 167.925857,43.8118287 167.162811,41.4236757 C166.385574,39.0355227 166.004028,36.491913 166.004028,33.7928697 C166.004028,31.0938264 166.385574,28.5502398 167.162811,26.1620637 C167.925858,23.7739107 169.070496,21.6895752 170.554245,19.9019853 C172.052139,18.1214676 173.903335,16.6942293 176.093643,15.634392 C178.283997,14.5745775 180.813461,14.0446473 183.653793,14.0446473 C187.652908,14.0446473 191.044388,15.1044846 193.814087,17.2241592 C196.597885,19.3508835 198.251236,22.5586395 198.774093,26.8474272 L194.223877,26.8474272 C193.587952,24.0494844 192.429215,21.8520813 190.74762,20.2623366 Z" id="Path"></path>
                        <path d="M208.807175,40.1236038 C209.259354,41.8829268 209.994202,43.4656218 211.011627,44.8645935 C212.014953,46.2635652 213.300857,47.4223251 214.841141,48.3338013 C216.381424,49.2523041 218.246765,49.7115783 220.408829,49.7115783 C223.743728,49.7115783 226.343872,48.842514 228.223312,47.1043854 C230.102753,45.3662568 231.416946,43.0558089 232.13765,40.1589432 L236.687866,40.1589432 C235.726929,44.4053421 233.960556,47.6837541 231.374558,50.0012511 C228.788559,52.3187712 225.142746,53.4704589 220.408829,53.4704589 C217.469528,53.4704589 214.925919,52.9546509 212.778,51.9160308 C210.630081,50.8773651 208.877808,49.457199 207.53537,47.6484144 C206.178788,45.8396529 205.189606,43.7411727 204.525437,41.3530194 C203.875412,38.9648664 203.5504,36.4495236 203.5504,33.7928694 C203.5504,31.3340604 203.875412,28.924713 204.525437,26.5577544 C205.189606,24.1978452 206.178787,22.0852431 207.53537,20.22702 C208.877808,18.3687741 210.630081,16.8779295 212.778,15.7403868 C214.925919,14.6098935 217.469528,14.044647 220.408829,14.044647 C223.404617,14.044647 225.962326,14.6452329 228.082001,15.8534316 C230.201675,17.0545806 231.925659,18.6372528 233.253998,20.5873488 C234.582291,22.5445173 235.529083,24.7842864 236.108475,27.3208236 C236.687866,29.8502883 236.928055,32.4221649 236.843277,35.0222853 L208.114761,35.0222853 C208.114761,36.6614913 208.340851,38.3642808 208.807175,40.1236038 Z M231.374558,26.1974031 C230.823456,24.6076584 230.032074,23.194542 229.028793,21.9651261 C228.011322,20.735733 226.781952,19.7465517 225.326447,18.9976044 C223.88504,18.2486574 222.245835,17.8741836 220.408829,17.8741836 C218.529389,17.8741836 216.861893,18.2486571 215.420532,18.9976044 C213.979172,19.7465517 212.749756,20.735733 211.732331,21.9651261 C210.714859,23.194542 209.909378,24.6147081 209.301743,26.2327194 C208.708252,27.850731 208.298462,29.5040817 208.114762,31.1856765 L232.278962,31.1856765 C232.236527,29.4546204 231.925659,27.7871475 231.374558,26.1974031 Z" id="Shape"></path>
                    </g>
                </g>
            </g>
        </g>
    </g>
</svg>