<?xml version="1.0" encoding="UTF-8"?>
<svg width="78px" height="32px" viewBox="0 0 78 32" version="1.1" xmlns="http://www.w3.org/2000/svg" xmlns:xlink="http://www.w3.org/1999/xlink">
    <title>RVF</title>
    <g id="RVF" stroke="none" stroke-width="1" fill="none" fill-rule="evenodd">
        <path d="M53.5525224,11.6021652 L34.6289809,0.682621541 C32.2085279,-0.720140988 29.1004462,0.105013441 27.6976837,2.55297158 C26.2949211,4.97342457 27.1200756,8.08150625 29.5680337,9.48426878 L40.8726494,16.0029888 L29.5680337,22.5217088 C27.1475807,23.9244713 26.2949211,27.032553 27.6976837,29.453006 C29.1004462,31.873459 32.2085279,32.7261185 34.6289809,31.323356 L53.5250173,20.4038124 C55.147821,19.4686374 56.082996,17.7358131 56.0554909,15.9754836 C56.0554909,14.2151542 55.147821,12.509835 53.5250173,11.5471549" id="Path" fill="#E3000B" fill-rule="nonzero"></path>
        <path d="M51.1320694,13.059938 C50.306915,13.059938 49.564276,13.3899997 49.0416782,13.9125976 L35.206589,5.90859959 C35.2615993,5.66105326 35.3166096,5.38600179 35.3166096,5.13845546 C35.3166096,3.4881466 33.9963625,2.16789951 32.3460536,2.16789951 C30.6957448,2.16789951 29.3754977,3.4881466 29.3754977,5.13845546 C29.3754977,6.78876432 30.6957448,8.1090114 32.3460536,8.1090114 C33.9963625,8.1090114 33.8863419,7.77894963 34.4089397,7.25635183 L48.2715341,15.2878549 C48.2165238,15.5354013 48.1615135,15.7829476 48.1615135,16.0304939 C48.1615135,16.2780402 48.1890187,16.5530917 48.2715341,16.8006381 L34.4089397,24.8321412 C33.8863419,24.3095434 33.1437029,24.0069867 32.3460536,24.0069867 C30.6957448,24.0069867 29.3754977,25.3272338 29.3754977,26.9775427 C29.3754977,28.6278515 30.6957448,29.9480986 32.3460536,29.9480986 C33.9963625,29.9480986 35.3166096,28.6278515 35.3166096,26.9775427 C35.3166096,25.3272338 35.2891044,26.4274397 35.206589,26.1798934 L49.0691834,18.1483903 C49.5917812,18.6709881 50.3344202,19.0010499 51.1595746,19.0010499 C52.8098835,19.0010499 54.1301305,17.6808028 54.1301305,16.0304939 C54.1301305,14.3801851 52.8098835,13.059938 51.1595746,13.059938" id="Path" fill="#FFFFFF" fill-rule="nonzero"></path>
        <polygon id="Path" fill="#E3000B" fill-rule="nonzero" points="59.053552 1.09519876 59.053552 30.9382839 67.3601065 30.9382839 67.3601065 19.9087197 76.3542898 19.9087197 76.3542898 12.8398968 67.3601065 12.8398968 67.3601065 8.38406288 77.9770935 8.38406288 77.9770935 1.09519876"></polygon>
        <path d="M14.7427591,11.0795673 C14.7427591,13.995113 13.8350893,14.5727211 11.359626,14.5727211 L8.30655458,14.5727211 L8.30655458,7.72393934 L11.4421414,7.72393934 C13.9176047,7.72393934 14.7427591,8.43907317 14.7427591,11.0520622 M23.4343858,10.7770107 C23.4343858,4.09325985 19.3911291,1.1227039 11.3871311,1.1227039 L0,1.1227039 L0,30.9382839 L8.30655458,30.9382839 L8.30655458,20.5688433 L11.3321208,20.5688433 L15.4853981,30.9382839 L25.1947152,30.9382839 L18.9235416,18.9185344 C21.7840769,17.7633182 23.4068806,14.737752 23.4068806,10.7770107" id="Shape" fill="#E3000B" fill-rule="nonzero"></path>
    </g>
</svg>