<svg xmlns="http://www.w3.org/2000/svg" width="84.714" height="39.003" viewBox="0 0 84.714 39.003"><defs><style>.a{fill:#fae253;fill-rule:evenodd;}</style></defs><path class="a" d="M633.441,360.132a11.23,11.23,0,0,0-.3,22.458q.15,0,.3,0h23.04a3.768,3.768,0,0,1,3.718,3.658,3.708,3.708,0,0,1-3.724,3.677H631.723a9.218,9.218,0,0,0-9.266,9.17h0v.038H656.5a12.865,12.865,0,1,0-.022-25.73H633.5a2,2,0,1,1,.062-4H675.1v29.729h.009a9.4,9.4,0,0,0,9.433-9.211V369.4h4.255a9.262,9.262,0,0,0,9.312-9.211h0v-.061Zm64.784,9.33v29.67c4.7,0,8.535-4.162,8.55-9.3v-29.7C702.067,360.132,698.225,364.31,698.225,369.462Z" transform="translate(-622.061 -360.13)"/></svg>