<svg width="200" height="63" viewBox="0 0 200 63" fill="none" xmlns="http://www.w3.org/2000/svg">
<path d="M59.9846 4.00732H22.0357C15.0909 4.00732 8.76523 9.64636 7.89356 16.6021C7.02664 23.5626 11.9709 29.1731 18.9205 29.1731H29.2044L24.1792 24.1351L24.0124 23.9729C22.5358 22.4988 22.5358 20.0991 24.0124 18.6201C25.4891 17.1412 27.885 17.1364 29.3616 18.6201L40.1313 29.4021L34.7822 34.7501L34.7536 34.7262L29.5331 39.955L29.3759 40.1315C29.2759 40.2317 29.1568 40.3128 29.0472 40.3986L28.3137 46.3287C27.4515 53.294 32.3815 58.9235 39.3216 58.9235C46.2617 58.9235 52.5111 53.585 53.4304 46.6245C53.4447 46.5243 53.7495 44.5253 54.2211 41.4625C52.9683 41.8919 51.1583 42.3737 48.2956 42.264C46.5665 42.202 45.2566 41.5341 44.2849 40.4702C43.3275 39.4016 42.8464 37.9369 42.8464 36.0716C42.8464 35.6422 42.9131 35.1317 43.0512 34.502L45.9425 20.6477H43.0941L43.8276 17.2557H46.6713L47.824 11.7264L52.7921 9.86104L51.0392 17.2557H57.946L59.9894 4.00732H59.9846Z" fill="#C6183D"/>
<path d="M57.4215 20.6479H50.2671L47.7426 32.7704C47.5378 33.7103 47.4473 34.4402 47.4473 34.9602C47.4473 37.2693 48.5904 38.4333 50.8959 38.4333C51.7628 38.4333 53.5728 37.8942 54.8446 37.4124L57.4215 20.6527V20.6479Z" fill="#C6183D"/>
<path d="M54.2195 41.4626C52.9668 41.892 51.1567 42.3786 48.294 42.2641C46.565 42.202 45.2551 41.5341 44.2881 40.4655C43.3307 39.3968 42.8496 37.9322 42.8496 36.0669C42.8496 35.6375 42.9163 35.127 43.0497 34.4973L45.941 20.6382H43.0925L43.8261 17.2462H46.6698L47.8225 11.7169L52.7905 9.85156L51.0377 17.2462H57.9444L57.4204 20.6382H50.266L47.7415 32.7607C47.5367 33.7006 47.4462 34.4305 47.4462 34.9505C47.4462 37.2643 48.5893 38.4236 50.8948 38.4236C51.7617 38.4236 53.5717 37.8845 54.8435 37.4027L54.2195 41.4578V41.4626Z" fill="#DADADA"/>
<path d="M81.3992 20.2996C81.3992 20.2996 79.2367 19.5601 76.8312 20.2328C74.6735 20.8339 72.9492 22.5561 72.9492 22.5561L73.2731 20.3568H68.8718L65.4375 41.8634H69.8721L71.6345 29.927C71.6345 29.927 72.43 25.4329 75.507 24.202C78.4841 23.0046 80.1417 25.0035 80.1417 25.0035L81.3944 20.3091L81.3992 20.2996Z" fill="#3C3C3B"/>
<path d="M100.9 29.5072C100.181 32.6798 99.7857 34.5165 97.9328 36.8017C96.5514 38.5001 92.2883 39.125 92.0978 35.3609C91.8691 30.7619 93.6315 26.9501 95.9322 25.0752C98.4948 22.9904 102.005 24.3119 102.005 24.3119C102.005 24.3119 101.605 26.3871 100.905 29.5072M104.563 34.4402C105.111 31.5968 107.212 21.8311 107.212 21.8311C107.212 21.8311 103.934 19.0545 98.0137 19.9895C91.931 20.9532 88.1776 25.7956 87.2583 33.1998C86.2104 41.6297 92.6932 42.3644 94.8128 42.2022C98.0042 41.9636 100.205 40.3177 100.205 40.3177C100.205 40.3177 100.329 40.6803 100.491 41.0811C100.653 41.4818 100.843 41.8348 100.843 41.8348H105.678C105.678 41.8348 103.963 37.5555 104.558 34.4306" fill="#3C3C3B"/>
<path d="M125.365 31.2676L122.221 20.1375H115.771L122.373 42.0448H125.308L139.111 20.1375H131.919L125.365 31.2676Z" fill="#3C3C3B"/>
<path d="M146.042 20.1373H152.863L155.159 32.2789L160.97 20.1373H168.482L157.826 41.9874C157.826 41.9874 155.911 46.7391 152.229 48.5567C148.828 50.2313 144.289 50.1024 144.289 50.1024V43.6906C144.289 43.6906 147.738 43.6906 149.4 42.7889C151.272 41.7775 151.906 39.2681 151.906 39.2681C151.906 39.2681 149.781 37.9895 149.086 34.9935C148.519 32.5365 146.047 20.1326 146.047 20.1326" fill="#3C3C3B"/>
<path d="M175.856 33.7198C175.856 33.7198 178.714 36.8685 181.095 36.6061C183.229 36.3675 183.439 34.8695 182.596 34.3066C181.762 33.7484 175.927 31.1913 175.451 28.3574C174.922 25.1276 176.199 20.9389 181.729 19.5888C186.383 18.4581 192.198 21.4351 192.198 21.4351L188.879 28.0092C188.879 28.0092 186.587 25.5522 184.487 25.433C182.748 25.3376 181.405 26.2726 183.801 27.5178C186.197 28.7534 189.036 29.9556 189.884 32.3601C190.717 34.7646 190.241 42.727 180.209 42.727C175.984 42.727 172.131 40.1698 172.131 40.1698L175.851 33.7198H175.856Z" fill="#3C3C3B"/>
</svg>
