<svg height="45.075" width="64.392" xmlns="http://www.w3.org/2000/svg"><g fill="#fbfbfb"><path d="m57.953 0h-51.482a6.439 6.439 0 0 0 -6.471 6.439v32.2a6.471 6.471 0 0 0 6.471 6.439h51.482a6.471 6.471 0 0 0 6.439-6.484v-32.155a6.439 6.439 0 0 0 -6.439-6.439zm1.739 38.59a1.777 1.777 0 0 1 -1.739 1.842h-51.482a1.777 1.777 0 0 1 -1.771-1.842v-32.151a1.777 1.777 0 0 1 1.771-1.867h51.482a1.777 1.777 0 0 1 1.739 1.867z"/><path d="m19.691 37.289h-10.831v-29.504h10.831c7.63 0 11.848 4.778 11.848 14.617.013 8.538-2.853 14.817-11.848 14.887zm4.709-14.275c0-5.943-.644-10.586-7.019-10.586h-1.438v20.077h2.518c3.754 0 5.937-3 5.937-9.491z"/><path d="m50.226 21.855a7.251 7.251 0 0 0 5.151-6.867c0-.612-.122-7.186-8.422-7.186h-12.312v29.486h10.432c2.762 0 11.372 0 11.372-8.294-.004-2.072-.851-5.974-6.221-7.139zm-8.564-9.511h2.228c3.175 0 4.437 1.108 4.437 3.554a3.547 3.547 0 0 1 -3.864 3.567h-2.8zm2.9 20.161h-2.9v-7.579h3.1c3.677 0 4.578 2.144 4.578 3.793-.003 3.786-3.622 3.786-4.774 3.786z"/></g></svg>