<svg xmlns="http://www.w3.org/2000/svg" width="221.533" height="64.155"><path d="M203.155 0v7.55h-4.6v7.837h4.6v12.335c0 8.147 4.639 13.281 13.269 13.281a22.475 22.475 0 0 0 5.109-.53v-7.917a16.7 16.7 0 0 1-2.933.3c-3.648 0-6.343-1.623-6.343-5.754V15.387h8.689V7.55h-8.734L212.2 0zM110.83 5.846l-.011.011a18.734 18.734 0 0 0-18.758 18.71v39.588l29.816-24.43 1.612-1.324A18.746 18.746 0 0 0 110.83 5.845zm-44.212.874c-7.33 0-14.443 6.9-14.443 17.261s7.113 17.054 14.443 17.054a12.2 12.2 0 0 0 10.69-5.835l.944 5.064h7.918V7.549h-7.918l-.944 5.03a12.336 12.336 0 0 0-10.69-5.859zm-48.244.007q-.47-.02-.939.007A10.092 10.092 0 0 0 8.4 12.1h-.183l-.933-4.55H0v32.716h9.368V20.6c0-2.831 1.519-5.315 4.706-5.315s4.338 1.715 4.338 5.258v19.723h9.4V19.715a4.6 4.6 0 0 1 4.77-4.43h.007c3.188 0 4.338 1.715 4.338 5.259v19.723h9.39V18.6c0-7.146-3.337-11.863-10.449-11.863a10.679 10.679 0 0 0-9.332 5.545 9.4 9.4 0 0 0-8.163-5.551zm129.035.007c-8.4 0-13.267 4.488-13.267 10.449s4.81 8.077 9.977 9.561c4.269 1.174 6.57 1.83 6.57 3.832 0 1.772-1.874 2.832-5.154 2.832a17.468 17.468 0 0 1-11.22-4.075v8.678a21.289 21.289 0 0 0 11.623 3.061c8.757 0 13.809-4.131 13.809-10.564 0-6.9-5.7-8.735-11.036-10.035-3.694-.967-5.581-1.68-5.581-3.452 0-1.588 1.657-2.589 4.6-2.589a18.688 18.688 0 0 1 9.918 2.888V9.265h.034a20.529 20.529 0 0 0-10.272-2.531zm32.924 0c-9.045 0-16.32 6.9-16.32 17.261 0 9.92 6.571 17.052 18.021 17.052a22.29 22.29 0 0 0 11.29-2.911V30.4a18.861 18.861 0 0 1-10.161 3.245c-4.937 0-8.988-2.417-10.22-7.089h22.141a18.413 18.413 0 0 0 .276-3.187c0-10.921-6.753-16.639-15.028-16.639zm-.058 7.433c3.521 0 6.145 2.485 6.145 6.731h-13.6a7.848 7.848 0 0 1 7.458-6.731zm-69.459 1a9.436 9.436 0 1 1-9.438 9.436v-.012a9.448 9.448 0 0 1 9.438-9.424zm-41.427.115c4.453 0 7.572 3.6 7.572 8.687s-3.222 8.678-7.572 8.678c-4.453 0-7.745-3.661-7.745-8.678s3.291-8.685 7.745-8.685z" fill="#fff"/></svg>